<svg width="16" height="16" viewBox="0 0 16 16" fill="none" xmlns="http://www.w3.org/2000/svg">
<g clip-path="url(#clip0_2_161)">
<path d="M5.13807 5.13807C5.39842 4.87772 5.39842 4.45561 5.13807 4.19526C4.87772 3.93491 4.45561 3.93491 4.19526 4.19526L0.861928 7.5286C0.601579 7.78895 0.601579 8.21106 0.861929 8.4714L4.19526 11.8047C4.45561 12.0651 4.87772 12.0651 5.13807 11.8047C5.39842 11.5444 5.39842 11.1223 5.13807 10.8619L2.94281 8.66667L14.6667 8.66667C15.0349 8.66667 15.3333 8.36819 15.3333 8C15.3333 7.63181 15.0349 7.33333 14.6667 7.33333L2.94281 7.33333L5.13807 5.13807Z" fill="#6D6E71"/>
</g>
<defs>
<clipPath id="clip0_2_161">
<rect width="16" height="16" fill="white" transform="translate(16 16) rotate(180)"/>
</clipPath>
</defs>
</svg>
