<svg width="20" height="20" viewBox="0 0 20 20" fill="none" xmlns="http://www.w3.org/2000/svg">
<path d="M5.58922 4.41107C5.26378 4.08563 4.73614 4.08563 4.4107 4.41107C4.08527 4.73651 4.08527 5.26414 4.4107 5.58958L8.82146 10.0003L4.41073 14.4111C4.08529 14.7365 4.08529 15.2641 4.41073 15.5896C4.73616 15.915 5.2638 15.915 5.58924 15.5896L9.99997 11.1788L14.4107 15.5896C14.7361 15.915 15.2638 15.915 15.5892 15.5896C15.9147 15.2642 15.9147 14.7365 15.5892 14.4111L11.1785 10.0003L15.5892 5.58958C15.9147 5.26415 15.9147 4.73651 15.5892 4.41107C15.2638 4.08563 14.7362 4.08563 14.4107 4.41107L9.99997 8.82183L5.58922 4.41107Z" fill="#A7A9AC"/>
</svg>
