<svg width="50" height="50" viewBox="0 0 50 50" fill="none" xmlns="http://www.w3.org/2000/svg">
<path d="M15.625 24.9997C17.2732 24.9997 18.8844 24.5109 20.2548 23.5953C21.6252 22.6796 22.6933 21.3781 23.324 19.8554C23.9547 18.3327 24.1198 16.6571 23.7982 15.0406C23.4767 13.4241 22.683 11.9392 21.5176 10.7738C20.3521 9.60835 18.8673 8.81468 17.2508 8.49313C15.6343 8.17159 13.9587 8.33662 12.436 8.96735C10.9133 9.59808 9.61179 10.6662 8.69611 12.0366C7.78043 13.407 7.29169 15.0182 7.29169 16.6663C7.29169 18.8765 8.16966 20.9961 9.73246 22.5589C11.2953 24.1217 13.4149 24.9997 15.625 24.9997ZM15.625 10.4163C16.8612 10.4163 18.0695 10.7829 19.0973 11.4697C20.1251 12.1564 20.9262 13.1325 21.3993 14.2746C21.8723 15.4166 21.9961 16.6733 21.7549 17.8857C21.5138 19.098 20.9185 20.2117 20.0444 21.0858C19.1704 21.9598 18.0567 22.5551 16.8443 22.7963C15.632 23.0374 14.3753 22.9136 13.2332 22.4406C12.0912 21.9675 11.1151 21.1665 10.4283 20.1387C9.74158 19.1109 9.37502 17.9025 9.37502 16.6663C9.37502 15.0087 10.0335 13.419 11.2056 12.2469C12.3777 11.0748 13.9674 10.4163 15.625 10.4163V10.4163Z" fill="#A50034"/>
<path d="M19.7916 27.083H11.4583C8.96999 27.0885 6.58548 28.0809 4.82792 29.8423C3.07036 31.6038 2.08331 33.9905 2.08331 36.4788V40.6455C2.08331 40.9218 2.19306 41.1867 2.38841 41.3821C2.58376 41.5774 2.84871 41.6872 3.12498 41.6872C3.40125 41.6872 3.6662 41.5774 3.86155 41.3821C4.0569 41.1867 4.16665 40.9218 4.16665 40.6455V36.4788C4.16391 35.5195 4.35049 34.5691 4.7157 33.682C5.08091 32.795 5.61758 31.9887 6.29495 31.3094C6.97231 30.6301 7.77707 30.0911 8.66309 29.7234C9.54912 29.3556 10.499 29.1663 11.4583 29.1663H19.7916C21.7255 29.1663 23.5802 29.9346 24.9476 31.302C26.3151 32.6695 27.0833 34.5241 27.0833 36.458V40.6247C27.0833 40.9009 27.1931 41.1659 27.3884 41.3612C27.5838 41.5566 27.8487 41.6663 28.125 41.6663C28.4012 41.6663 28.6662 41.5566 28.8615 41.3612C29.0569 41.1659 29.1666 40.9009 29.1666 40.6247V36.458C29.1611 33.9733 28.1717 31.5919 26.4147 29.835C24.6577 28.078 22.2764 27.0885 19.7916 27.083V27.083Z" fill="#A50034"/>
<path d="M37.5 8.33301C35.4398 8.33301 33.4258 8.94393 31.7128 10.0885C29.9998 11.2331 28.6647 12.86 27.8762 14.7634C27.0878 16.6668 26.8815 18.7612 27.2835 20.7819C27.6854 22.8025 28.6775 24.6586 30.1343 26.1154C31.5911 27.5722 33.4472 28.5643 35.4678 28.9662C37.4884 29.3681 39.5829 29.1618 41.4863 28.3734C43.3897 27.585 45.0165 26.2499 46.1611 24.5369C47.3057 22.8239 47.9166 20.8099 47.9166 18.7497C47.9166 17.3817 47.6472 16.0272 47.1237 14.7634C46.6002 13.4996 45.833 12.3513 44.8657 11.384C43.8984 10.4167 42.7501 9.64942 41.4863 9.12593C40.2225 8.60244 38.8679 8.33301 37.5 8.33301V8.33301ZM37.5 27.083C35.8518 27.083 34.2406 26.5943 32.8702 25.6786C31.4998 24.7629 30.4317 23.4614 29.801 21.9387C29.1703 20.416 29.0052 18.7404 29.3268 17.1239C29.6483 15.5074 30.442 14.0226 31.6074 12.8571C32.7729 11.6917 34.2577 10.898 35.8742 10.5765C37.4907 10.2549 39.1663 10.4199 40.689 11.0507C42.2117 11.6814 43.5132 12.7495 44.4289 14.1199C45.3446 15.4903 45.8333 17.1015 45.8333 18.7497C45.8333 20.9598 44.9553 23.0794 43.3925 24.6422C41.8297 26.205 39.7101 27.083 37.5 27.083Z" fill="#A50034"/>
<path d="M39.7292 15.792L36.7709 19.4379L35.2292 17.792C35.1348 17.6922 35.0217 17.6119 34.8963 17.5557C34.7708 17.4996 34.6356 17.4687 34.4982 17.4649C34.3609 17.461 34.2241 17.4842 34.0957 17.5332C33.9673 17.5822 33.8499 17.656 33.75 17.7504C33.6502 17.8448 33.5699 17.9579 33.5137 18.0833C33.4576 18.2087 33.4267 18.344 33.4228 18.4813C33.419 18.6187 33.4422 18.7554 33.4912 18.8838C33.5402 19.0122 33.614 19.1297 33.7084 19.2295L36.0625 21.7295C36.2591 21.9347 36.5285 22.0544 36.8125 22.0629V22.0629C36.96 22.0573 37.1047 22.0211 37.2374 21.9566C37.3701 21.892 37.488 21.8005 37.5834 21.6879L41.2917 17.1045C41.3948 17.0017 41.4753 16.8783 41.5278 16.7425C41.5803 16.6066 41.6038 16.4612 41.5966 16.3158C41.5895 16.1703 41.5519 16.0279 41.4863 15.8978C41.4207 15.7678 41.3286 15.6529 41.2158 15.5607C41.1031 15.4684 40.9723 15.4008 40.8318 15.3623C40.6913 15.3238 40.5443 15.3151 40.4003 15.3369C40.2563 15.3587 40.1184 15.4105 39.9956 15.4889C39.8729 15.5673 39.7679 15.6706 39.6875 15.792H39.7292Z" fill="#A50034"/>
</svg>
