<svg width="50" height="50" viewBox="0 0 50 50" fill="none" xmlns="http://www.w3.org/2000/svg">
<path d="M39.5834 7.02051H32.0209L31.6875 5.68717C31.6355 5.46128 31.5081 5.25983 31.3264 5.11595C31.1446 4.97206 30.9193 4.89432 30.6875 4.89551H28.875V3.12467C28.875 2.84841 28.7653 2.58346 28.5699 2.3881C28.3746 2.19275 28.1096 2.08301 27.8334 2.08301H22.1667C21.8904 2.08301 21.6255 2.19275 21.4301 2.3881C21.2348 2.58346 21.125 2.84841 21.125 3.12467V4.89551H19.3125C19.0807 4.89432 18.8554 4.97206 18.6737 5.11595C18.4919 5.25983 18.3646 5.46128 18.3125 5.68717L17.9792 7.02051H10.4167C9.86417 7.02051 9.33427 7.24 8.94357 7.6307C8.55287 8.0214 8.33337 8.55131 8.33337 9.10384V45.833C8.33337 46.3855 8.55287 46.9154 8.94357 47.3061C9.33427 47.6968 9.86417 47.9163 10.4167 47.9163H36.4584C36.7346 47.9163 36.9996 47.8066 37.1949 47.6112C37.3903 47.4159 37.5 47.1509 37.5 46.8747C37.5 46.5984 37.3903 46.3335 37.1949 46.1381C36.9996 45.9428 36.7346 45.833 36.4584 45.833H10.4167V9.10384H17.4375L16.875 11.333C16.8418 11.4871 16.8413 11.6465 16.8736 11.8009C16.9059 11.9552 16.9703 12.101 17.0625 12.2288C17.1628 12.3532 17.2897 12.4534 17.434 12.5219C17.5783 12.5905 17.7361 12.6256 17.8959 12.6247H32.1042C32.2639 12.6256 32.4218 12.5905 32.5661 12.5219C32.7104 12.4534 32.8373 12.3532 32.9375 12.2288C33.0298 12.101 33.0942 11.9552 33.1265 11.8009C33.1588 11.6465 33.1583 11.4871 33.125 11.333L32.5625 9.10384H39.5834V42.708C39.5834 42.9843 39.6931 43.2492 39.8885 43.4446C40.0838 43.6399 40.3488 43.7497 40.625 43.7497C40.9013 43.7497 41.1663 43.6399 41.3616 43.4446C41.557 43.2492 41.6667 42.9843 41.6667 42.708V9.10384C41.6667 8.55131 41.4472 8.0214 41.0565 7.6307C40.6658 7.24 40.1359 7.02051 39.5834 7.02051V7.02051ZM19.2292 10.5413L20.125 6.97884H22.2084C22.4846 6.97884 22.7496 6.86909 22.9449 6.67374C23.1403 6.47839 23.25 6.21344 23.25 5.93717V4.16634H26.8334V5.93717C26.8334 6.21344 26.9431 6.47839 27.1385 6.67374C27.3338 6.86909 27.5988 6.97884 27.875 6.97884H29.9584L30.8542 10.5413H19.2292Z" fill="#A50034"/>
<path d="M22.3542 19.8125C22.1349 19.6409 21.8571 19.5623 21.5805 19.5935C21.3039 19.6246 21.0506 19.7631 20.875 19.9791L17.9167 23.625L16.375 21.9791C16.28 21.8821 16.1665 21.8051 16.0413 21.7524C15.9161 21.6998 15.7817 21.6727 15.6458 21.6727C15.51 21.6727 15.3756 21.6998 15.2504 21.7524C15.1252 21.8051 15.0117 21.8821 14.9167 21.9791C14.819 22.076 14.7415 22.1912 14.6887 22.3181C14.6358 22.445 14.6086 22.5812 14.6086 22.7187C14.6086 22.8562 14.6358 22.9924 14.6887 23.1193C14.7415 23.2462 14.819 23.3615 14.9167 23.4583L17.2708 25.9583C17.3652 26.0637 17.4808 26.148 17.6101 26.2054C17.7394 26.2629 17.8794 26.2923 18.0208 26.2916V26.2916C18.1663 26.2741 18.3065 26.2261 18.4321 26.1507C18.5577 26.0753 18.6661 25.9742 18.75 25.8541L22.4583 21.2916C22.6323 21.078 22.7183 20.8062 22.699 20.5314C22.6796 20.2566 22.5563 19.9996 22.3542 19.8125V19.8125Z" fill="#A50034"/>
<path d="M34.375 22.917H26.0417C25.7654 22.917 25.5004 23.0267 25.3051 23.2221C25.1097 23.4174 25 23.6824 25 23.9587C25 24.2349 25.1097 24.4999 25.3051 24.6952C25.5004 24.8906 25.7654 25.0003 26.0417 25.0003H34.375C34.6513 25.0003 34.9162 24.8906 35.1116 24.6952C35.3069 24.4999 35.4167 24.2349 35.4167 23.9587C35.4167 23.6824 35.3069 23.4174 35.1116 23.2221C34.9162 23.0267 34.6513 22.917 34.375 22.917Z" fill="#A50034"/>
<path d="M20.8333 32.4791L17.9167 36.125L16.375 34.4791C16.28 34.3821 16.1665 34.3051 16.0413 34.2524C15.9161 34.1998 15.7817 34.1727 15.6458 34.1727C15.51 34.1727 15.3756 34.1998 15.2504 34.2524C15.1252 34.3051 15.0117 34.3821 14.9167 34.4791C14.819 34.576 14.7415 34.6912 14.6887 34.8181C14.6358 34.945 14.6086 35.0812 14.6086 35.2187C14.6086 35.3562 14.6358 35.4924 14.6887 35.6193C14.7415 35.7462 14.819 35.8615 14.9167 35.9583L17.2708 38.4583C17.3652 38.5637 17.4808 38.648 17.6101 38.7054C17.7394 38.7629 17.8794 38.7923 18.0208 38.7916V38.7916C18.1663 38.7741 18.3065 38.7261 18.4321 38.6507C18.5577 38.5753 18.6661 38.4742 18.75 38.3541L22.4583 33.7916C22.6272 33.573 22.7062 33.298 22.6791 33.0231C22.652 32.7481 22.5209 32.4939 22.3125 32.3125C22.0933 32.1409 21.8155 32.0623 21.5389 32.0935C21.2623 32.1246 21.0089 32.2631 20.8333 32.4791Z" fill="#A50034"/>
<path d="M34.375 35.417H26.0417C25.7654 35.417 25.5004 35.5267 25.3051 35.7221C25.1097 35.9174 25 36.1824 25 36.4587C25 36.7349 25.1097 36.9999 25.3051 37.1952C25.5004 37.3906 25.7654 37.5003 26.0417 37.5003H34.375C34.6513 37.5003 34.9162 37.3906 35.1116 37.1952C35.3069 36.9999 35.4167 36.7349 35.4167 36.4587C35.4167 36.1824 35.3069 35.9174 35.1116 35.7221C34.9162 35.5267 34.6513 35.417 34.375 35.417Z" fill="#A50034"/>
</svg>
