<svg width="50" height="50" viewBox="0 0 50 50" fill="none" xmlns="http://www.w3.org/2000/svg">
<path d="M45.8334 19.7913H30.5L26.5834 14.7705C26.0956 14.1747 25.4823 13.694 24.7872 13.3626C24.0922 13.0313 23.3325 12.8576 22.5625 12.8538H8.18754C8.04663 12.4506 7.78518 12.1005 7.43862 11.8508C7.09206 11.6011 6.67713 11.464 6.25004 11.458H3.12504C2.84877 11.458 2.58382 11.5678 2.38847 11.7631C2.19312 11.9585 2.08337 12.2234 2.08337 12.4997C2.08337 12.7759 2.19312 13.0409 2.38847 13.2362C2.58382 13.4316 2.84877 13.5413 3.12504 13.5413H6.25004V28.1247H3.12504C2.84877 28.1247 2.58382 28.2344 2.38847 28.4298C2.19312 28.6251 2.08337 28.8901 2.08337 29.1663C2.08337 29.4426 2.19312 29.7076 2.38847 29.9029C2.58382 30.0983 2.84877 30.208 3.12504 30.208H6.25004C6.77821 30.2093 7.28716 30.0099 7.67393 29.6502C8.06069 29.2906 8.2964 28.7974 8.33337 28.2705H10.1667C10.7965 29.1201 11.6116 29.815 12.5502 30.3023C13.4888 30.7897 14.5261 31.0567 15.5834 31.083H16.6667V36.458C16.6667 37.0105 16.8862 37.5404 17.2769 37.9311C17.6676 38.3218 18.1975 38.5413 18.75 38.5413H45.8334C46.3859 38.5413 46.9158 38.3218 47.3065 37.9311C47.6972 37.5404 47.9167 37.0105 47.9167 36.458V21.8747C47.9167 21.3221 47.6972 20.7922 47.3065 20.4015C46.9158 20.0108 46.3859 19.7913 45.8334 19.7913ZM45.8334 23.958H27.2084L25.125 21.8747H45.8334V23.958ZM15.5625 28.9997C14.7622 28.9628 13.9825 28.7333 13.2897 28.3308C12.597 27.9282 12.0116 27.3643 11.5834 26.6872C11.4899 26.5336 11.3583 26.4069 11.2013 26.3192C11.0443 26.2316 10.8673 26.1861 10.6875 26.1872H8.33337V14.9372H22.5625C23.0319 14.9393 23.4948 15.0472 23.9168 15.2528C24.3388 15.4584 24.709 15.7564 25 16.1247L27.8542 19.7913H23.1667L20.1667 16.6663L18.75 18.1663L22.0417 21.5413L25.9792 25.5622L26.2084 25.7913L26.5625 26.1455C26.3373 26.4161 26.0302 26.6062 25.6875 26.6872C25.2907 26.8324 24.8668 26.889 24.4457 26.853C24.0246 26.8171 23.6165 26.6893 23.25 26.4788C22.5 25.9372 20.1042 23.7913 19.2292 23.0205C19.0663 22.8907 18.8689 22.8117 18.6615 22.7931C18.4541 22.7746 18.2458 22.8175 18.0625 22.9163C17.2173 23.2904 16.2863 23.4279 15.369 23.3141C14.4517 23.2004 13.5825 22.8397 12.8542 22.2705C12.6356 22.1016 12.3606 22.0226 12.0857 22.0497C11.8107 22.0769 11.5565 22.208 11.375 22.4163C11.2869 22.5208 11.2206 22.6419 11.1801 22.7724C11.1396 22.903 11.1258 23.0404 11.1394 23.1764C11.153 23.3124 11.1937 23.4443 11.2593 23.5642C11.3248 23.6842 11.4138 23.7897 11.5209 23.8747C12.9955 24.9862 14.8258 25.5197 16.6667 25.3747V28.9997H15.5625ZM18.75 36.458V25.458C19.7709 26.3538 21.3334 27.7288 22 28.208C22.9368 28.8024 24.0465 29.064 25.1501 28.9507C26.2538 28.8373 27.287 28.3555 28.0834 27.583C28.2655 27.3725 28.4036 27.1276 28.4894 26.8628C28.5753 26.598 28.6073 26.3187 28.5834 26.0413H45.8334V36.458H18.75Z" fill="#A50034"/>
<path d="M40.625 32.292H36.4583C36.182 32.292 35.9171 32.4017 35.7217 32.5971C35.5264 32.7924 35.4166 33.0574 35.4166 33.3337C35.4166 33.6099 35.5264 33.8749 35.7217 34.0702C35.9171 34.2656 36.182 34.3753 36.4583 34.3753H40.625C40.9012 34.3753 41.1662 34.2656 41.3615 34.0702C41.5569 33.8749 41.6666 33.6099 41.6666 33.3337C41.6666 33.0574 41.5569 32.7924 41.3615 32.5971C41.1662 32.4017 40.9012 32.292 40.625 32.292Z" fill="#A50034"/>
<path d="M19.3959 18.4583C19.9712 18.4583 20.4375 17.992 20.4375 17.4167C20.4375 16.8414 19.9712 16.375 19.3959 16.375C18.8206 16.375 18.3542 16.8414 18.3542 17.4167C18.3542 17.992 18.8206 18.4583 19.3959 18.4583Z" fill="#A50034"/>
</svg>
