<svg width="50" height="50" viewBox="0 0 50 50" fill="none" xmlns="http://www.w3.org/2000/svg">
<path d="M43.082 19.5454C41.8557 18.3609 40.2046 17.707 38.4916 17.7273H30.7063V11.3636C30.7063 9.67589 30.0292 8.05728 28.824 6.86387C27.6188 5.67045 25.9841 5 24.2797 5H23.3616C22.8746 5 22.4076 5.19156 22.0633 5.53253C21.7189 5.87351 21.5255 6.33597 21.5255 6.81818V14.4545C21.5266 15.5933 21.2419 16.7145 20.6971 17.7174C20.1522 18.7203 19.3643 19.5734 18.404 20.2C17.2652 20.9611 15.922 21.3664 14.548 21.3636H13.9788C13.7916 20.8389 13.4467 20.3835 12.9905 20.0585C12.5342 19.7335 11.9885 19.5545 11.4266 19.5454H7.75424C7.02377 19.5454 6.32322 19.8328 5.8067 20.3442C5.29018 20.8557 5 21.5494 5 22.2727V40.4545C5 41.1778 5.29018 41.8715 5.8067 42.383C6.32322 42.8945 7.02377 43.1818 7.75424 43.1818H9.59041C9.8339 43.1818 10.0674 43.086 10.2396 42.9155C10.4118 42.7451 10.5085 42.5138 10.5085 42.2727C10.5085 42.0316 10.4118 41.8004 10.2396 41.6299C10.0674 41.4594 9.8339 41.3636 9.59041 41.3636H7.75424C7.51075 41.3636 7.27724 41.2678 7.10506 41.0974C6.93289 40.9269 6.83616 40.6956 6.83616 40.4545V22.2727C6.83616 22.0316 6.93289 21.8004 7.10506 21.6299C7.27724 21.4594 7.51075 21.3636 7.75424 21.3636H11.4266C11.6701 21.3636 11.9036 21.4594 12.0757 21.6299C12.2479 21.8004 12.3446 22.0316 12.3446 22.2727V36.0727C12.3406 37.0067 12.5461 37.9299 12.9462 38.7757C13.3463 39.6215 13.931 40.3688 14.6582 40.9636L17.7613 43.5273C18.9178 44.4765 20.3722 44.9973 21.8743 45H36.1413C37.6616 45.0029 39.1334 44.4706 40.2939 43.498C41.4543 42.5255 42.2278 41.1761 42.4761 39.6909L44.8998 25.2364C45.0834 24.2129 45.014 23.1607 44.6974 22.1696C44.3808 21.1786 43.8266 20.2782 43.082 19.5454ZM43.082 24.8545L40.6399 39.4C40.4621 40.455 39.9127 41.4136 39.0893 42.1058C38.2658 42.798 37.2215 43.1792 36.1413 43.1818H21.8743C20.8009 43.1798 19.7619 42.8068 18.9365 42.1273L15.815 39.5454C15.2961 39.1207 14.8787 38.5873 14.5929 37.9837C14.3072 37.3801 14.1602 36.7212 14.1625 36.0545V23.1818H14.5297C16.8657 23.177 19.1046 22.256 20.7565 20.6203C22.4083 18.9847 23.3384 16.7677 23.3433 14.4545V6.81818H24.2613C24.8642 6.81818 25.4611 6.93575 26.018 7.16418C26.575 7.39261 27.081 7.72743 27.5073 8.14951C27.9335 8.5716 28.2716 9.07268 28.5023 9.62416C28.733 10.1756 28.8518 10.7667 28.8518 11.3636V18.6364C28.8518 18.8775 28.9485 19.1087 29.1207 19.2792C29.2928 19.4497 29.5263 19.5454 29.7698 19.5454H38.4732C39.0885 19.5409 39.6983 19.6593 40.2662 19.8936C40.8341 20.1279 41.3484 20.4733 41.7783 20.9091C42.3156 21.4348 42.7164 22.0814 42.9466 22.7938C43.1768 23.5062 43.2296 24.2631 43.1004 25L43.082 24.8545Z" fill="#A50034"/>
</svg>
