<svg width="17" height="17" viewBox="0 0 17 17" xmlns="http://www.w3.org/2000/svg">
<path fill-rule="evenodd" clip-rule="evenodd" d="M16.7457 4.9894C16.7819 5.62801 16.8001 6.77824 16.8001 8.44008C16.8001 10.1019 16.7819 11.2521 16.7457 11.8908C16.6731 13.4002 16.2231 14.5686 15.3959 15.3959C14.5686 16.2231 13.4002 16.6731 11.8908 16.7457C11.2521 16.7819 10.1019 16.8001 8.44008 16.8001C6.77824 16.8001 5.62801 16.7819 4.9894 16.7457C3.47996 16.6731 2.31159 16.2231 1.4843 15.3959C0.657005 14.5686 0.207075 13.4002 0.134505 11.8908C0.0982205 11.2521 0.0800781 10.1019 0.0800781 8.44008C0.0800781 6.77824 0.0982205 5.62801 0.134505 4.9894C0.207075 3.47996 0.657005 2.31159 1.4843 1.4843C2.31159 0.657005 3.47996 0.207075 4.9894 0.134506C5.62801 0.0982207 6.77824 0.0800781 8.44008 0.0800781C10.1019 0.0800781 11.2521 0.0982207 11.8908 0.134506C13.4002 0.207075 14.5686 0.657005 15.3959 1.4843C16.2231 2.31159 16.6731 3.47996 16.7457 4.9894ZM14.8234 3.95601C14.8234 3.60024 14.697 3.29596 14.4443 3.04318C14.1915 2.7904 13.8872 2.664 13.5314 2.664C13.1757 2.664 12.8714 2.7904 12.6186 3.04318C12.3658 3.29596 12.2394 3.60024 12.2394 3.95601C12.2394 4.31177 12.3658 4.61605 12.6186 4.86883C12.8714 5.12161 13.1757 5.24801 13.5314 5.24801C13.8872 5.24801 14.1915 5.12161 14.4443 4.86883C14.697 4.61605 14.8234 4.31177 14.8234 3.95601ZM11.6409 8.44045C11.6409 10.2086 10.2076 11.6419 8.43943 11.6419C6.67129 11.6419 5.23793 10.2086 5.23793 8.44045C5.23793 6.67231 6.67129 5.23895 8.43943 5.23895C10.2076 5.23895 11.6409 6.67231 11.6409 8.44045ZM12.9994 8.44045C12.9994 10.9589 10.9578 13.0004 8.43943 13.0004C5.92101 13.0004 3.87943 10.9589 3.87943 8.44045C3.87943 5.92203 5.92101 3.88045 8.43943 3.88045C10.9578 3.88045 12.9994 5.92203 12.9994 8.44045Z" />
</svg>
