<svg width="54" height="54" viewBox="0 0 54 54" fill="none" xmlns="http://www.w3.org/2000/svg">
<g clip-path="url(#clip0_34_722)">
<path d="M30.32 30.9599C30.32 31.0349 30.34 31.0749 30.385 31.0749C30.42 31.0749 30.45 31.0599 30.485 31.0399L42.875 23.3149C43.095 23.1749 43.29 23.0999 43.59 23.0999H46.315C46.735 23.0999 47.015 23.3699 47.015 23.7749V28.7599C47.015 29.3599 46.88 29.7099 46.315 30.0349L43.01 31.9349C42.97 31.9649 42.93 31.9749 42.9 31.9749C42.86 31.9749 42.825 31.9499 42.825 31.8399V26.0149C42.825 25.9499 42.805 25.8999 42.755 25.8999C42.72 25.8999 42.695 25.9149 42.66 25.9349L33.6 31.5799C33.345 31.7399 33.14 31.7849 32.905 31.7849H26.895C26.48 31.7849 26.195 31.5149 26.195 31.1149V23.9299C26.195 23.8799 26.17 23.8349 26.13 23.8349C26.095 23.8349 26.065 23.8449 26.03 23.8649L20.055 27.3099C19.995 27.3449 19.98 27.3799 19.98 27.4049C19.98 27.4299 19.99 27.4499 20.035 27.4899L24.3 31.5799C24.355 31.6349 24.395 31.6799 24.395 31.7199C24.395 31.7649 24.335 31.7899 24.26 31.7899H20.4C20.1 31.7899 19.865 31.7449 19.7 31.5899L17.11 29.1049C17.08 29.0749 17.06 29.0649 17.035 29.0649C17.0053 29.0675 16.9764 29.076 16.95 29.0899L12.625 31.5899C12.365 31.7399 12.185 31.7849 11.925 31.7849H7.93999C7.51999 31.7849 7.23999 31.5149 7.23999 31.1149V26.2199C7.23999 25.6099 7.37499 25.2699 7.93999 24.9449L11.265 23.0299C11.3 23.0099 11.325 23.0049 11.355 23.0049C11.4 23.0049 11.43 23.0549 11.43 23.1599V29.7099C11.43 29.7749 11.45 29.8099 11.5 29.8099C11.525 29.8099 11.56 29.7899 11.595 29.7699L22.825 23.2949C23.09 23.1399 23.255 23.0949 23.565 23.0949H29.61C30.03 23.0949 30.31 23.3649 30.31 23.7649L30.32 30.9599Z" fill="black"/>
</g>
<defs>
<clipPath id="clip0_34_722">
<rect width="40" height="9" fill="white" transform="translate(7 23)"/>
</clipPath>
</defs>
</svg>
