<svg width="180" height="36" viewBox="0 0 180 36" fill="none" xmlns="http://www.w3.org/2000/svg">
<path d="M118.807 12.2971H121.486V26.0534H118.807L118.743 21.9735C118.169 21.9522 116.256 21.9735 115.363 21.9735C111.494 21.9949 111.217 19.4102 111.217 16.5693C111.217 13.2797 111.217 12.2971 111.217 12.2971H113.896C113.896 12.2971 113.917 16.6547 113.917 17.0606C113.96 19.0044 114.746 19.3462 115.661 19.3889C116.681 19.4316 117.574 19.4316 118.828 19.3889L118.807 12.2971ZM135.177 22.7212C135.177 21.7813 135.177 22.2085 135.177 16.7615C135.177 14.1341 134.008 12.8098 132.265 12.3826C130.394 11.9126 127.8 12.3185 125.525 13.3651L126.418 15.6721C128.289 14.8604 130.925 14.4118 131.776 14.9458C132.413 15.3517 132.498 16.2489 132.498 17.6587C132.498 17.6587 130.245 17.6587 128.969 17.6373C126.227 17.6587 124.781 18.5985 124.739 21.4395C124.739 21.9735 124.76 22.3794 124.802 23.0629C125.057 25.6262 126.439 26.1602 128.48 26.0962C129.947 26.0534 132.052 25.6476 132.924 25.3485C133.094 25.5194 133.264 26.1389 134.858 26.0962C135.347 26.0748 135.709 26.0962 136.176 26.0748L136.198 23.5542C135.454 23.6183 135.177 23.661 135.177 22.7212ZM132.477 22.9561C132.477 22.9561 131.776 23.2125 129.671 23.5756C127.566 23.9387 127.439 22.828 127.417 22.2299C127.396 20.756 127.332 20.0297 128.842 19.9443C131.01 19.9229 132.477 19.9229 132.477 19.9229V22.9561ZM172.573 12.1689H169.278C166.918 12.1689 165.026 14.0914 165.026 16.4411V21.8454C165.026 24.2164 166.939 26.1175 169.278 26.1175H172.573C174.933 26.1175 176.825 24.1951 176.825 21.8454V16.4625C176.846 14.0914 174.933 12.1689 172.573 12.1689ZM174.232 21.9095C174.232 22.7852 173.53 23.4902 172.658 23.4902H169.172C168.3 23.4902 167.598 22.7852 167.598 21.9095V16.3557C167.598 15.4799 168.3 14.775 169.172 14.775H172.658C173.53 14.775 174.232 15.4799 174.232 16.3557V21.9095ZM103.776 12.1689H101.098C98.7378 12.1689 96.8457 14.0914 96.8457 16.4411V17.5732H94.1669V12.2971H91.4882V26.0748H94.1669V19.9443H96.8457V21.824C96.8457 24.1951 98.759 26.0962 101.098 26.0962H103.776C106.136 26.0962 108.028 24.1737 108.028 21.824V16.4411C108.05 14.0914 106.136 12.1689 103.776 12.1689ZM105.435 21.9095C105.435 22.7852 104.733 23.4902 103.861 23.4902H101.013C100.141 23.4902 99.4394 22.7852 99.4394 21.9095V16.3557C99.4394 15.4799 100.141 14.775 101.013 14.775H103.861C104.733 14.775 105.435 15.4799 105.435 16.3557V21.9095ZM152.164 12.2971H163.325L162.985 14.7536H159.052V26.0748H156.373V14.7536H152.461L152.164 12.2971ZM78.137 12.2971H87.4275V26.0962H84.7275V14.7963V14.7536H80.6882C80.6244 17.7868 80.7307 22.3794 80.4118 23.4902C79.6039 26.3098 77.7543 26.3952 76.4787 26.3952C76.3724 25.6262 76.1598 24.1737 76.1598 24.1737C77.6055 23.9814 78.0945 23.3193 78.137 21.6531C78.1795 19.9656 78.137 12.2971 78.137 12.2971ZM148.635 18.4917C149.23 17.8509 149.528 17.2101 149.549 15.9498C149.549 13.9419 147.572 12.2971 145.339 12.2971H139.876L139.854 26.1175H146.105C148.465 26.1175 150.357 24.1951 150.357 21.8454V21.4395C150.335 21.4395 150.378 19.4316 148.635 18.4917ZM142.533 14.8177H145.531C146.339 14.839 146.87 15.3731 146.87 16.1634C146.87 17.146 146.339 17.6587 145.637 17.6587C144.425 17.6587 143.724 17.6587 142.554 17.6587C142.533 17.2742 142.533 15.0099 142.533 14.8177ZM146.147 23.5756H142.533C142.533 22.5716 142.533 19.9229 142.533 19.9229C142.533 19.9229 144.723 19.9229 146.126 19.9229C146.87 19.9229 147.784 20.3928 147.784 21.7599C147.763 23.0202 147.019 23.4902 146.147 23.5756ZM71.7165 20.4783C71.9929 21.0764 72.6732 23.127 73.8638 26.0962H71.0149C70.3346 24.3659 69.2504 21.3754 69.0803 21.1618C68.6551 20.1579 68.0173 19.9443 66.6779 19.9656L65.296 19.9443L65.3173 26.1175H62.6598V12.3185H65.3173V17.5519H66.7842L70.8874 12.3185H73.8425L69.4842 18.0004C70.8874 18.449 71.2275 19.453 71.7165 20.4783Z" fill="#D1D3D4"/>
<path d="M14.5275 4.97012C18.0567 4.97012 21.2669 6.65762 23.0953 9.3918C23.074 9.4986 23.0527 9.62677 23.0527 9.75493C23.0527 10.588 23.7118 11.2502 24.5409 11.2502C25.3701 11.2502 26.0291 10.588 26.0291 9.75493C26.0291 9.51996 25.9653 9.30636 25.8803 9.11411C26.5394 8.34512 27.2834 7.68294 28.0701 7.08484C28.1764 7.19164 28.2614 7.29845 28.389 7.40525C27.8362 7.87519 27.4748 8.25968 27.2834 8.51601C27.1984 8.53737 27.0921 8.62281 27.0071 8.75098C26.8795 8.94322 26.8582 9.13547 26.9433 9.17819C27.0283 9.22091 27.1771 9.11411 27.3047 8.94322C27.3897 8.81506 27.411 8.70825 27.411 8.62281C27.6023 8.38784 27.9425 8.00335 28.4953 7.53341C28.5803 7.64022 28.6866 7.72566 28.7929 7.83246C29.452 7.29845 30.8126 6.59354 30.8126 6.59354L30.6 6.16632C31.259 5.82455 32.0244 5.48278 32.9386 5.16237C33.9378 5.80319 34.3205 6.18768 34.3205 6.18768L34.3417 6.20905L34.3842 6.18768C34.4055 6.18768 35.7236 5.86727 37.552 5.93136L37.5307 6.18768C37.5094 6.18768 37.4669 6.18768 37.4457 6.18768C37.4244 6.14496 37.3819 6.10224 37.3394 6.10224C37.2968 6.10224 37.2543 6.1236 37.2118 6.18768C36.9992 6.18768 36.7866 6.20905 36.5953 6.23041C36.574 6.14496 36.5102 6.08088 36.4464 6.08088C36.3827 6.08088 36.3189 6.16632 36.2976 6.27313C36.1063 6.29449 35.9149 6.31585 35.7023 6.35857C35.6811 6.23041 35.596 6.1236 35.511 6.1236C35.426 6.1236 35.3622 6.25177 35.3622 6.42265C35.1709 6.46538 34.9795 6.5081 34.7882 6.55082C34.7669 6.35857 34.6606 6.23041 34.5543 6.25177C34.448 6.27313 34.4055 6.42265 34.4268 6.6149C34.4268 6.63626 34.4268 6.63626 34.448 6.65762C34.2567 6.7217 34.0441 6.76443 33.8527 6.82851C33.8527 6.78579 33.8527 6.76443 33.8315 6.7217C33.789 6.55082 33.6827 6.42265 33.5764 6.44401C33.4913 6.46538 33.4275 6.63626 33.4701 6.80715C33.4913 6.84987 33.4913 6.89259 33.5126 6.93531C33.1086 6.55082 32.5772 6.18769 32.2795 5.99544C32.4071 5.91 32.4708 5.82455 32.4496 5.76047C32.4071 5.67503 32.2157 5.67503 32.0031 5.76047C31.7905 5.84591 31.663 5.99544 31.7055 6.08088C31.748 6.16632 31.9181 6.16633 32.1094 6.10224C32.3645 6.27313 32.9173 6.63626 33.3425 7.02075C33.1724 7.08484 32.9811 7.17028 32.811 7.23436C32.811 7.17028 32.811 7.08484 32.7897 6.99939C32.726 6.82851 32.6197 6.70034 32.5134 6.74307C32.4283 6.76443 32.3858 6.93531 32.4496 7.1062C32.4708 7.213 32.5346 7.27708 32.5771 7.31981C28.3464 9.26363 25.3913 13.5358 25.3913 18.5128C25.3913 20.1576 25.7102 21.717 26.3055 23.1481C26.1779 23.2549 26.1354 23.3831 26.1779 23.4685C26.2205 23.5326 26.3268 23.554 26.4756 23.5113C26.5606 23.7249 26.6669 23.9171 26.7732 24.1307C26.7307 24.2162 26.7307 24.2802 26.7732 24.323C26.7945 24.3657 26.8583 24.3657 26.9008 24.3657C27.7724 25.9677 29.0055 27.3562 30.4724 28.4456L30.1323 29.001C30.1323 28.9583 30.111 28.9155 30.0685 28.8942C29.9622 28.8301 29.7708 28.9369 29.6645 29.1291C29.537 29.3214 29.537 29.535 29.622 29.5991C29.6646 29.6204 29.7071 29.6204 29.7496 29.5991L29.3031 30.3467C28.4102 29.77 27.5811 29.1078 26.8583 28.3602C26.8795 28.2747 26.9008 28.1893 26.9008 28.1038C26.9008 27.5057 26.4331 27.0358 25.8378 27.0358C25.7953 27.0358 25.7527 27.0358 25.7102 27.0571C25.3488 26.5872 25.0086 26.0745 24.711 25.5619C24.796 25.4124 24.8386 25.2201 24.8386 25.0279C24.8386 24.857 24.796 24.6861 24.7323 24.5366C24.8173 24.5366 24.9236 24.4939 25.0299 24.4298C25.2212 24.3016 25.3275 24.1307 25.2638 24.0239C25.2 23.9171 24.9874 23.9385 24.796 24.0453C24.6897 24.1094 24.626 24.1948 24.5834 24.2589C24.4134 24.0453 24.1583 23.8958 23.8819 23.853C23.6905 23.4045 23.5205 22.9345 23.3929 22.4646C23.6693 22.1869 23.8394 21.8024 23.8394 21.3965C23.8394 20.7557 23.4354 20.2217 22.8827 20.0081C22.8189 19.4954 22.7976 18.9614 22.7976 18.4274H21.5008C21.5008 19.0041 21.5433 19.5595 21.5858 20.1149C21.1606 20.3712 20.863 20.8412 20.863 21.3965C20.863 21.4179 20.863 21.4179 20.863 21.4393C18.5669 22.7423 15.6331 23.2122 12.9118 23.6394C10.9984 23.9385 9.19132 24.2375 7.85195 24.7929C3.13226 26.7795 3.6425 31.1798 3.6425 31.2225L3.70628 31.7565H25.4551L24.6685 30.539H4.85431C4.89683 29.4923 5.36455 27.1853 8.31967 25.9464C9.53148 25.4337 11.2748 25.156 13.1031 24.857C15.8031 24.4298 18.8858 23.9171 21.3945 22.55C21.6071 22.7423 21.8622 22.8491 22.1598 22.8918C22.3086 23.4045 22.5 23.9171 22.6913 24.4084C22.585 24.6007 22.5 24.8143 22.5 25.0492C22.5 25.6687 22.989 26.1814 23.5842 26.2241C23.9457 26.8435 24.3496 27.4416 24.796 27.997C24.796 28.0397 24.7748 28.0825 24.7748 28.1038C24.7748 28.6806 25.2425 29.1505 25.8165 29.1719C28.6228 32.0769 32.5346 33.8926 36.8716 33.8926C40.6346 33.8926 44.2063 32.5255 46.9701 30.0904L47.4165 30.7098C47.4165 30.7098 48.9685 29.6632 49.9252 27.9757L47.4378 25.8609C48.9685 23.8103 49.8827 21.2684 49.8827 18.4915C49.8827 16.8894 49.585 15.3728 49.0323 13.9844L49.7551 13.8562C50.2441 15.2874 50.5205 16.8253 50.5205 18.4274H51.8173C51.8173 15.5864 51.052 12.9163 49.7126 10.6307C49.6063 10.3103 49.4149 9.90446 49.1598 9.54132C49.1173 9.56269 49.096 9.56268 49.0535 9.58405C48.9047 9.3918 48.7772 9.19955 48.6283 9.00731L48.8835 8.85778C48.8835 8.85778 48.522 8.02471 47.8417 7.36253C47.7142 7.44797 47.5866 7.55477 47.459 7.64022C47.2464 7.42661 47.0338 7.213 46.8212 7.02075L47.1827 6.63626C47.1827 6.63626 46.6086 5.91 45.7795 5.46142C45.652 5.61095 45.5457 5.73911 45.4394 5.88864C44.2063 4.99148 42.8457 4.28658 41.4 3.79528C41.4 3.75256 41.4 3.7312 41.4 3.70984C41.4 2.76996 40.6346 2.00098 39.6992 2.00098C38.9976 2.00098 38.3811 2.44955 38.126 3.06901C37.5732 3.00493 36.9992 2.98357 36.4252 2.98357C34.0653 2.98357 31.7905 3.51759 29.7283 4.52155L29.6008 4.26522C27.7086 5.14101 26.9645 5.88864 26.9645 5.88864C26.9645 5.88864 27.0283 5.95272 27.1559 6.10224C26.3268 6.74307 25.5401 7.44797 24.8386 8.25968C24.7323 8.23832 24.626 8.21696 24.5197 8.21696C24.2858 8.21696 24.0732 8.28104 23.8606 8.36648C21.7771 5.48278 18.2905 3.70984 14.485 3.70984C8.21337 3.70984 3.13226 8.51601 3.13226 14.4116H4.34407C4.38659 9.24227 8.9362 4.97012 14.5275 4.97012ZM39.6992 5.46142C40.1244 5.46142 40.5071 5.29053 40.8047 5.03421C41.2512 5.18373 41.6764 5.35462 42.1016 5.5255L42.0165 5.71775C41.8252 5.63231 41.6338 5.58958 41.4 5.58958C40.911 5.58958 40.4646 5.82455 40.1882 6.20905C39.3165 5.99544 38.4874 5.88863 37.7433 5.84591L37.8708 4.41474C37.9771 4.41474 38.0622 4.4361 38.1685 4.45746C38.4236 5.0342 39.0189 5.46142 39.6992 5.46142ZM42.059 6.84987C41.9527 6.80715 41.8464 6.74306 41.7401 6.70034L41.8252 6.52946C41.9102 6.63626 41.9953 6.74307 42.059 6.84987ZM47.289 16.5477C47.2252 16.5049 47.1189 16.4622 46.9701 16.4836C46.7787 16.5049 46.6512 16.6117 46.6724 16.6972C46.6937 16.804 46.8425 16.8467 47.0338 16.8253C47.1401 16.804 47.2252 16.7613 47.289 16.7185C47.2677 16.9321 47.2464 17.1244 47.2252 17.3166C47.1827 17.3166 47.1401 17.2953 47.0764 17.3166C46.885 17.338 46.7575 17.4234 46.7575 17.5089C46.7575 17.6157 46.9275 17.6798 47.0976 17.6584C47.1189 17.6584 47.1401 17.6584 47.1827 17.6371C47.1614 17.8079 47.1401 17.9575 47.0976 18.1284C46.9275 18.1284 46.7787 18.2138 46.7787 18.2992C46.7787 18.3847 46.885 18.4488 47.0338 18.4701C46.9913 18.6196 46.9701 18.7692 46.9275 18.9401C46.8212 18.9614 46.7362 19.0041 46.7362 19.0682C46.7362 19.1323 46.7787 19.175 46.8425 19.2177C46.8 19.3673 46.7575 19.5168 46.7149 19.645C46.6724 19.6663 46.6512 19.6877 46.6512 19.7304C46.6512 19.7518 46.6512 19.7731 46.6724 19.7945C46.4811 20.3926 46.2472 20.9266 45.9709 21.3538C45.8858 21.3965 45.8008 21.4606 45.737 21.5674C45.6094 21.7383 45.5669 21.9306 45.6307 21.9946C45.7157 22.0587 45.8858 21.9519 46.0134 21.781C46.1197 21.6315 46.1622 21.482 46.1409 21.3965C46.2685 21.1616 46.3961 20.9266 46.5236 20.6489C46.5661 20.713 46.6512 20.7771 46.7787 20.7984C46.9488 20.8412 47.1189 20.7984 47.1401 20.6916C47.1614 20.5848 47.0338 20.478 46.8638 20.4353C46.7575 20.4139 46.6724 20.4139 46.6086 20.4353C46.6724 20.2644 46.7575 20.0722 46.8212 19.8799C46.8638 19.9013 46.9063 19.9227 46.9701 19.9227C47.1614 19.944 47.3102 19.9013 47.3315 19.7945C47.3527 19.6877 47.2039 19.6022 47.0338 19.5595C46.9913 19.5595 46.9701 19.5595 46.9275 19.5595C46.9701 19.4527 46.9913 19.3459 47.0126 19.2391C47.0338 19.2391 47.0338 19.2391 47.0551 19.2391C47.2464 19.2605 47.3953 19.1964 47.3953 19.0896C47.3953 19.0041 47.2677 18.8973 47.0976 18.876C47.1401 18.7265 47.1614 18.5769 47.2039 18.4274C47.3527 18.406 47.4378 18.342 47.4378 18.2565C47.4378 18.1924 47.3527 18.1283 47.2464 18.107C47.289 17.9147 47.3102 17.7225 47.3315 17.5302C47.374 17.4875 47.3953 17.4662 47.3953 17.4234C47.3953 17.4021 47.374 17.3594 47.3527 17.338C47.4378 16.6545 47.459 15.9496 47.4378 15.2446C47.7142 16.2059 47.8842 17.2312 47.8842 18.2779C47.8842 20.6062 47.1401 22.7423 45.9071 24.5152L45.6307 24.2802L44.0362 26.0318L44.2701 26.3522C44.1425 26.4804 43.9937 26.5872 43.8449 26.7154L42.9307 25.4124C44.9716 23.6181 46.2898 20.9907 46.2898 18.0643C46.2898 16.3127 45.822 14.6679 45.0142 13.2367C45.163 12.7027 45.2693 12.2328 45.3331 11.7842C45.4819 12.0619 45.652 12.4464 45.6732 12.7454L46.2472 12.5318C46.311 12.6386 46.3748 12.7454 46.4386 12.8309C45.9921 12.9377 45.7795 13.0018 45.7795 13.0018C45.7795 13.0018 46.1197 13.8989 46.0559 14.4116L47.1189 14.2407C47.1614 14.3475 47.2039 14.4757 47.2464 14.5825C47.3102 15.3087 47.3102 15.9282 47.289 16.5477ZM26.3693 18.3633C26.3693 15.9496 27.1559 13.728 28.4953 11.9337C28.5165 11.9337 28.5378 11.9124 28.559 11.891C28.5803 11.8696 28.5803 11.8483 28.5803 11.8056C28.7079 11.6347 28.8567 11.4638 28.9842 11.2929C29.048 11.3143 29.0905 11.3143 29.1331 11.2715C29.1756 11.2288 29.1756 11.1647 29.1543 11.1007C29.3031 10.9511 29.452 10.8016 29.6008 10.6521C29.6858 10.7162 29.7708 10.7375 29.8134 10.6948C29.8771 10.6521 29.8559 10.5453 29.8134 10.4385C29.9409 10.3317 30.0685 10.2035 30.196 10.0967C30.2811 10.2035 30.4086 10.2462 30.4724 10.2035C30.5362 10.1608 30.5362 10.0326 30.4724 9.8831C30.6 9.77629 30.7275 9.69085 30.8551 9.58405C30.9401 9.73357 31.089 9.79765 31.1527 9.75493C31.2378 9.71221 31.2378 9.54132 31.1315 9.37044C31.259 9.285 31.3866 9.19955 31.5142 9.13547C31.5142 9.15683 31.5142 9.15683 31.5354 9.17819C31.6205 9.34908 31.748 9.43452 31.8331 9.3918C31.9181 9.34908 31.9181 9.17819 31.8543 9.00731C31.8331 8.98595 31.8331 8.96458 31.8118 8.94322C31.9181 8.87914 32.0031 8.83642 32.1094 8.77234C32.1094 8.7937 32.1307 8.83642 32.1307 8.87914C32.1945 9.05003 32.322 9.15683 32.4283 9.11411C32.5134 9.07139 32.5346 8.9005 32.4709 8.72962C32.4496 8.68689 32.4283 8.64417 32.4071 8.62281C32.5772 8.53737 32.7472 8.45193 32.9173 8.38784C32.9173 8.45193 32.9173 8.49465 32.9386 8.55873C33.0023 8.72962 33.1086 8.85778 33.2149 8.81506C33.3 8.7937 33.3425 8.62281 33.2787 8.45193C33.2575 8.38784 33.2149 8.32376 33.1937 8.28104C33.4063 8.1956 33.6189 8.11015 33.8527 8.04607C33.8315 8.11015 33.8315 8.21696 33.8527 8.3024C33.8953 8.47329 34.0016 8.60145 34.1079 8.58009C34.1929 8.55873 34.2567 8.38784 34.2142 8.21696C34.1929 8.11015 34.1291 8.02471 34.0866 7.98199C34.3205 7.91791 34.5543 7.85382 34.8094 7.78974C34.7244 7.83246 34.6819 7.96063 34.7031 8.13152C34.7244 8.32376 34.8307 8.45193 34.937 8.43056C35.0433 8.4092 35.0858 8.25968 35.0646 8.06743C35.0433 7.89655 34.9583 7.76838 34.852 7.76838C35.5961 7.5975 36.3827 7.51205 37.1905 7.51205C37.2756 7.51205 37.3819 7.51205 37.4669 7.51205L37.4244 7.91791C37.4031 7.76838 37.3606 7.66158 37.2756 7.66158C37.1693 7.66158 37.0842 7.78974 37.0842 7.98199C37.063 8.17424 37.148 8.32376 37.2331 8.32376C37.2968 8.32376 37.3819 8.23832 37.4031 8.13152L37.3819 8.4092C37.148 8.38784 36.8929 8.38784 36.659 8.38784C31.3228 8.38784 26.9858 12.7454 26.9858 18.107C26.9858 19.5809 27.326 20.9907 27.9 22.251C27.8575 22.3151 27.8575 22.4005 27.8787 22.4432C27.9 22.4859 27.9638 22.5073 28.0275 22.5073C28.1338 22.7209 28.2401 22.9132 28.3464 23.1054C28.3464 23.1268 28.3464 23.1695 28.3677 23.1908C28.3677 23.2122 28.389 23.2122 28.4102 23.2122C29.2394 24.5366 30.3661 25.6687 31.7055 26.459L31.1953 27.3135C31.174 27.3135 31.174 27.2921 31.1527 27.2921C31.1527 27.2921 31.1527 27.2708 31.1315 27.2708C31.1315 27.2708 31.1315 27.2708 31.1102 27.2708C28.2614 25.3483 26.3693 22.0801 26.3693 18.3633ZM37.6795 6.40129C37.8496 6.40129 37.9984 6.40129 38.1685 6.42265C38.1472 6.46538 38.126 6.52946 38.1047 6.59354C38.0834 6.65762 38.1047 6.7217 38.1047 6.78579C37.9346 6.78579 37.7858 6.78579 37.637 6.78579L37.6795 6.40129ZM40.9323 6.59354C41.1236 6.65762 41.3149 6.7217 41.5063 6.80715L41.485 6.87123C41.2724 6.80715 41.0598 6.74307 40.8472 6.67898C40.8685 6.63626 40.8898 6.6149 40.9323 6.59354ZM41.4 7.02075L41.2299 7.40525C41.0386 7.34117 40.8472 7.27708 40.6772 7.213C40.6772 7.19164 40.6772 7.17028 40.6772 7.14892C40.6772 7.02075 40.6984 6.91395 40.7622 6.82851C40.9748 6.87123 41.1874 6.93531 41.4 7.02075ZM46.5874 12.8736C46.5236 12.7668 46.4598 12.66 46.396 12.5532L46.7575 12.425C46.8 12.5532 46.8425 12.6814 46.885 12.8095C46.7787 12.8309 46.6724 12.8522 46.5874 12.8736ZM45.4819 11.2929C45.4606 11.2502 45.4181 11.2288 45.3968 11.1861C45.3968 11.122 45.3968 11.0579 45.3968 11.0152L45.9071 10.7162C45.9709 10.8016 46.0346 10.9084 46.0984 11.0152C45.8433 11.1434 45.6307 11.2288 45.4819 11.2929ZM45.2055 11.6133C45.163 12.0619 45.0567 12.5746 44.9079 13.1086C44.4189 12.2969 43.8023 11.5492 43.1008 10.9084L43.9087 9.92582C44.2275 10.1821 44.5252 10.4385 44.8016 10.7375C44.9079 10.9084 45.0142 11.0793 45.0567 11.2502L45.2055 11.1647C45.2268 11.1861 45.248 11.2288 45.2693 11.2502C45.2693 11.3143 45.2693 11.357 45.248 11.4211C45.1842 11.4638 45.1417 11.4638 45.1417 11.4638C45.1417 11.4638 45.1417 11.5279 45.2055 11.6133ZM44.3126 14.5825C44.1638 14.5825 44.0362 14.732 44.0362 14.9029C44.0362 15.0738 44.185 15.2019 44.3338 15.2019C44.4827 15.2019 44.6102 15.0524 44.6102 14.8815C44.6102 14.7961 44.5677 14.7106 44.5039 14.6679C44.674 14.2834 44.8228 13.8989 44.9291 13.5358C45.6945 14.9029 46.1197 16.4836 46.1197 18.1497C46.1197 21.0334 44.8441 23.6181 42.8457 25.3696L42.0378 24.2375C43.2071 23.084 44.0362 21.5674 44.3338 19.8586C44.7803 19.7304 45.0992 19.3246 45.0992 18.8333C45.0992 18.2352 44.6315 17.7652 44.0362 17.7652C43.4409 17.7652 42.9732 18.2352 42.9732 18.8333C42.9732 19.2391 43.1858 19.5809 43.5047 19.7518C42.9094 23.1268 39.9756 25.7114 36.4252 25.7114C32.4709 25.7114 29.2394 22.4646 29.2394 18.4915C29.2394 16.5904 29.9622 14.7961 31.2803 13.4503L30.7063 12.8736C29.2394 14.3902 28.4315 16.3768 28.4315 18.4915C28.4315 21.4179 30.0047 24.0026 32.3433 25.391L32.1732 25.6901C32.1732 25.6687 32.152 25.6687 32.152 25.6473C32.0457 25.5833 31.8543 25.6901 31.748 25.8823C31.663 26.0318 31.6205 26.1814 31.663 26.2668C31.4929 26.16 31.3441 26.0532 31.1953 25.9464C31.3016 25.9464 31.4291 25.8609 31.5354 25.7114C31.663 25.5192 31.7055 25.3056 31.5992 25.2415C31.4929 25.1774 31.3016 25.2628 31.174 25.4551C31.0677 25.6046 31.0252 25.7541 31.0677 25.8396C30.8551 25.6901 30.6425 25.5192 30.4512 25.3483C30.5575 25.3483 30.685 25.2628 30.7913 25.1347C30.9401 24.9638 30.9827 24.7502 30.8976 24.6647C30.8126 24.5793 30.6 24.6647 30.4512 24.8356C30.3449 24.9638 30.3023 25.1133 30.3023 25.1988C30.0897 25.0065 29.8984 24.8143 29.7071 24.622C29.8134 24.622 29.9197 24.5579 30.026 24.4511C30.196 24.2802 30.2598 24.088 30.1748 24.0026C30.0897 23.9171 29.8771 23.9812 29.7283 24.1307C29.622 24.2375 29.5795 24.3443 29.5583 24.4511C29.4094 24.2802 29.2606 24.1094 29.1331 23.9385C29.2181 23.9171 29.3244 23.8744 29.4094 23.789C29.5795 23.6394 29.6646 23.4472 29.5795 23.3404C29.4945 23.2549 29.2819 23.2977 29.1118 23.4472C29.0268 23.5113 28.963 23.5967 28.9417 23.6821C28.8354 23.5326 28.7291 23.3617 28.6228 23.2122C28.6866 23.1908 28.7716 23.1695 28.8567 23.1054C29.048 22.9772 29.1331 22.785 29.0693 22.6782C29.0055 22.5714 28.7929 22.6141 28.6016 22.7423C28.5378 22.785 28.4953 22.8491 28.4527 22.8918C28.3677 22.7423 28.3039 22.6141 28.2189 22.4646C28.2614 22.4432 28.3252 22.4219 28.3677 22.4005C28.559 22.2723 28.6653 22.1014 28.6016 21.9946C28.5378 21.8878 28.3252 21.9092 28.1338 22.016C28.0913 22.0374 28.0701 22.0587 28.0275 22.1014C27.4748 20.8839 27.1559 19.5382 27.1559 18.107C27.1559 16.9749 27.3472 15.8641 27.7299 14.8602C27.7512 14.9456 27.8362 15.031 27.9638 15.0738C28.1338 15.1592 28.3039 15.1378 28.3464 15.0524C28.389 14.967 28.2827 14.8174 28.1126 14.7534C27.985 14.6893 27.8575 14.6893 27.7724 14.732C29.1331 11.122 32.5984 8.53737 36.6803 8.53737C36.9142 8.53737 37.148 8.55873 37.3819 8.55873L37.3181 9.34908C37.2968 9.26363 37.2543 9.19955 37.1905 9.19955C37.0842 9.19955 36.9992 9.32772 36.9992 9.51996C36.9779 9.71221 37.063 9.86174 37.148 9.86174C37.2118 9.86174 37.2543 9.81901 37.2968 9.75493L37.2543 10.289C36.2764 10.2035 35.3197 10.3103 34.3842 10.588L34.6181 11.3783C35.4897 11.122 36.3827 11.0366 37.2756 11.122C38.8488 11.2715 40.2945 11.9124 41.4638 12.959L42.0165 12.3609C42.0165 12.3609 41.9953 12.3609 41.9953 12.3396L43.0795 11.0152C43.8023 11.6774 44.4401 12.4464 44.9291 13.3008C44.8016 13.6853 44.6527 14.1125 44.4614 14.5611C44.3551 14.5825 44.3338 14.5825 44.3126 14.5825ZM33.874 28.6592C33.8527 28.6378 33.8527 28.6165 33.8102 28.6165C33.789 28.6165 33.7677 28.6165 33.7464 28.6165C33.4701 28.531 33.1937 28.4242 32.9386 28.3174C32.9173 28.2747 32.896 28.2533 32.8748 28.2533C32.8535 28.232 32.811 28.232 32.7897 28.2533C32.5346 28.1465 32.2795 28.0184 32.0457 27.8902C32.0244 27.8689 32.0031 27.8261 31.9819 27.8261C31.9606 27.8048 31.9394 27.8048 31.8968 27.8261C31.7055 27.7193 31.5142 27.5912 31.3228 27.4844L31.8331 26.6299C32.5559 27.0358 33.3425 27.3776 34.1504 27.5912L34.1716 27.6125C34.1929 27.6125 34.2142 27.6125 34.2354 27.6125C34.5968 27.698 34.9583 27.7621 35.3197 27.8261L35.0646 29.0223C34.6606 28.8942 34.2567 28.7874 33.874 28.6592ZM32.1094 26.1386C32.1307 26.0959 32.152 26.0746 32.152 26.0318L32.4921 25.4764C33.4275 26.0105 34.4693 26.3522 35.5961 26.4804L35.3622 27.6125C35.0433 27.5698 34.7244 27.5057 34.4268 27.4416C34.4693 27.3776 34.5118 27.3348 34.5331 27.2494C34.6181 27.0358 34.5756 26.8222 34.4693 26.7795C34.363 26.7367 34.1929 26.8863 34.1291 27.0999C34.1079 27.1853 34.0866 27.2708 34.0866 27.3562C33.8953 27.2921 33.7039 27.2494 33.5126 27.1853C33.5764 27.1212 33.6401 27.0571 33.6827 26.9503C33.7677 26.7367 33.7677 26.5231 33.6401 26.4804C33.5338 26.4377 33.3638 26.5658 33.2575 26.7795C33.2149 26.8863 33.1937 27.0144 33.1937 27.0999C32.9811 27.0144 32.7897 26.929 32.5984 26.8435C32.6835 26.8008 32.7897 26.7154 32.8535 26.5872C32.9598 26.3736 32.9598 26.16 32.8535 26.1173C32.7472 26.0532 32.5771 26.1814 32.4496 26.3736C32.3858 26.5018 32.3646 26.6513 32.3858 26.7367C32.2157 26.6513 32.0669 26.5658 31.8968 26.4804L32.0457 26.2454C32.0669 26.1814 32.0882 26.16 32.1094 26.1386ZM38.7638 26.1814L39.0189 27.3989C38.2535 27.5912 37.4457 27.7193 36.6165 27.7193C36.2551 27.7193 35.8937 27.698 35.5323 27.6552L35.7661 26.5231C36 26.5445 36.2126 26.5445 36.4464 26.5445C37.2543 26.5231 38.0197 26.395 38.7638 26.1814ZM35.4898 27.8048C35.8512 27.8475 36.2338 27.8689 36.6165 27.8689C37.4669 27.8689 38.2748 27.7621 39.0614 27.5484L39.1464 27.9757C38.8701 27.8475 38.5724 27.7834 38.2535 27.7834C37.3606 27.7834 36.5953 28.3602 36.2976 29.1505C35.9362 29.1291 35.5748 29.0864 35.2346 29.0223L35.4898 27.8048ZM38.2535 28.5951C38.6149 28.5951 38.9338 28.7446 39.1677 28.9796C38.5299 29.1078 37.8709 29.1719 37.1905 29.1719C37.4244 28.8087 37.8071 28.5951 38.2535 28.5951ZM39.3378 28.0611L39.2102 27.5057C40.5496 27.1212 41.7614 26.4804 42.8031 25.6046L43.7173 26.8863C42.6331 27.7407 41.3787 28.3815 40.0394 28.766C39.8693 28.4883 39.6142 28.232 39.3378 28.0611ZM39.189 27.3348L38.9338 26.1173C40.0606 25.7541 41.0811 25.1347 41.9315 24.323L42.7394 25.4551C41.6976 26.3309 40.4858 26.9717 39.189 27.3348ZM44.2488 10.0326C44.2063 9.9899 44.1425 9.94718 44.1 9.90446L44.6315 9.34908C44.7165 9.41316 44.8016 9.4986 44.8866 9.56269C44.5039 9.84038 44.3126 9.9899 44.2488 10.0326ZM43.8661 9.71221C43.2921 9.26363 42.6756 8.87914 42.0165 8.53737C42.2291 8.43056 42.4205 8.3024 42.5693 8.11015C42.8244 8.23832 43.0795 8.36648 43.3346 8.51601C43.0795 8.83642 42.9732 8.98595 42.9732 8.98595C42.9732 8.98595 43.526 9.34908 43.8661 9.71221ZM41.4 7.87518C41.3362 7.87518 41.2724 7.85382 41.2086 7.85382L41.3149 7.5975C41.4638 7.66158 41.6126 7.7043 41.7614 7.76838C41.6551 7.83246 41.5275 7.87518 41.4 7.87518ZM41.0598 7.78974C40.911 7.7043 40.7835 7.55477 40.7197 7.38389C40.8685 7.42661 41.0173 7.49069 41.1661 7.53341L41.0598 7.78974ZM41.4 8.68689C41.5488 8.68689 41.6764 8.66553 41.8252 8.62281C42.5268 8.96458 43.1646 9.37044 43.7811 9.84038L42.9945 10.8016C42.2716 10.1821 41.4638 9.64813 40.5709 9.24227L40.8898 8.55873C41.0173 8.64417 41.2086 8.68689 41.4 8.68689ZM42.8669 10.9511L41.7827 12.2755C41.1661 11.7415 40.5071 11.3143 39.763 10.9939L40.4858 9.43452C41.3575 9.79765 42.1441 10.3317 42.8669 10.9511ZM39.5929 10.9298C38.8701 10.6307 38.1047 10.4385 37.3181 10.353L37.4669 8.64417C38.4661 8.72961 39.4228 8.98594 40.3157 9.37044L39.5929 10.9298ZM45.0142 9.47724C44.9291 9.3918 44.8441 9.32772 44.7378 9.24227L44.9504 9.00731C44.9929 9.05003 45.0142 9.07139 45.0567 9.11411C45.0779 9.19955 45.0992 9.28499 45.1205 9.3918C45.0779 9.41316 45.0567 9.43452 45.0142 9.47724ZM43.7173 8.06743C43.611 8.1956 43.526 8.3024 43.4409 8.4092C43.1858 8.25968 42.9094 8.13151 42.6756 8.00335C42.7606 7.87518 42.8244 7.74702 42.8669 7.5975C43.1433 7.74702 43.4409 7.89655 43.7173 8.06743ZM41.9102 7.66158C41.7401 7.5975 41.5701 7.51205 41.4 7.44797L41.5701 7.06348C41.7614 7.12756 41.9315 7.19164 42.1016 7.25572C42.0803 7.42661 42.0165 7.55477 41.9102 7.66158ZM39.8693 6.99939C39.7417 6.97803 39.6142 6.93531 39.4866 6.91395C39.4866 6.89259 39.5079 6.87123 39.5079 6.84987C39.5291 6.72171 39.5291 6.6149 39.4866 6.52946C39.6354 6.55082 39.8055 6.59354 39.9543 6.6149C39.9118 6.74306 39.8905 6.87123 39.8693 6.99939ZM39.1677 6.78579C39.1677 6.80715 39.1677 6.84987 39.1464 6.87123C38.8913 6.82851 38.6575 6.80715 38.4236 6.80715C38.4449 6.76443 38.4661 6.7217 38.4661 6.65762C38.4874 6.59354 38.4661 6.5081 38.4661 6.46538C38.7425 6.48674 39.0401 6.5081 39.3165 6.55082C39.2315 6.57218 39.189 6.65762 39.1677 6.78579ZM38.2323 6.93531C38.2535 6.93531 38.2535 6.93531 38.2748 6.93531C38.5512 6.95667 38.8488 6.97803 39.1677 7.02075C39.189 7.08484 39.2102 7.12756 39.274 7.14892C39.3165 7.17028 39.3803 7.12756 39.4228 7.06348C39.5716 7.08484 39.7205 7.12756 39.8693 7.14892C39.8693 7.36253 39.9118 7.57613 39.9968 7.76838C39.2315 7.55477 38.4236 7.42661 37.5945 7.40525L37.637 6.93531C37.8283 6.93531 38.0197 6.93531 38.2323 6.93531ZM40.1031 7.98199C40.252 8.21696 40.4646 8.4092 40.7197 8.53737L40.4008 9.22091C39.4866 8.83642 38.5299 8.58009 37.5094 8.49465L37.5945 7.5975C38.4449 7.5975 39.2953 7.74702 40.1031 7.98199ZM31.2165 27.5698C31.3653 27.6766 31.5354 27.7621 31.7055 27.8689C31.6417 27.9116 31.5992 27.9757 31.5567 28.0611C31.4504 28.2747 31.4504 28.4883 31.5567 28.531C31.663 28.5951 31.8331 28.467 31.9606 28.2747C32.0031 28.1893 32.0244 28.1252 32.0244 28.0611C32.2157 28.1679 32.4071 28.2533 32.6197 28.3602C32.5772 28.4029 32.5346 28.467 32.4921 28.5524C32.4071 28.766 32.4071 28.9796 32.5346 29.0223C32.6409 29.0651 32.811 28.9369 32.9173 28.7233C32.9598 28.6378 32.9598 28.5738 32.9811 28.5097C33.1937 28.5951 33.4063 28.6806 33.6189 28.7446C33.5764 28.8087 33.5338 28.8728 33.5126 28.9583C33.4275 29.1719 33.4701 29.3855 33.5764 29.4282C33.6827 29.4709 33.8527 29.3214 33.9165 29.1078C33.9378 29.0223 33.959 28.9369 33.959 28.8728C34.3205 28.9796 34.7031 29.0864 35.0858 29.1505L34.8307 30.3467C33.3425 29.9836 31.9606 29.3427 30.7275 28.467L31.2165 27.5698ZM35.2134 29.1505C35.5535 29.2146 35.8937 29.2573 36.2551 29.2787C36.1913 29.4709 36.1701 29.6632 36.1701 29.8768C36.1701 30.1331 36.2126 30.3681 36.2976 30.5817C35.8512 30.5389 35.4047 30.4535 34.9583 30.3467L35.2134 29.1505ZM36.9779 29.8768C36.9779 29.6845 37.0205 29.4923 37.1055 29.3214H37.1268C37.8708 29.3214 38.5937 29.2359 39.274 29.1078C39.3378 29.1932 39.4016 29.3 39.4441 29.4068L39.5291 29.7913C39.5291 29.8127 39.5291 29.8554 39.5291 29.8768C39.5291 30.1117 39.4653 30.3467 39.3378 30.539C38.785 30.6244 38.211 30.6671 37.637 30.6671C37.5094 30.6671 37.3606 30.6671 37.2331 30.6671C37.0842 30.4321 36.9779 30.1758 36.9779 29.8768ZM37.6583 30.838C38.1897 30.838 38.7212 30.7953 39.2315 30.7312C38.9976 31.0089 38.6575 31.1798 38.2748 31.1798C37.9346 31.1798 37.637 31.0516 37.4031 30.838C37.4882 30.8166 37.5732 30.838 37.6583 30.838ZM40.252 30.539C41.9315 30.1758 43.5047 29.4496 44.8441 28.467L45.6307 29.5777C44.0362 30.8594 42.2079 31.7565 40.2307 32.2478L39.9756 31.1157C40.1031 30.9234 40.1882 30.7312 40.252 30.539ZM40.2945 30.3681C40.337 30.2185 40.3583 30.0477 40.3583 29.8768C40.3583 29.535 40.2732 29.1932 40.1244 28.9155C41.485 28.531 42.7394 27.8689 43.8236 27.0358L44.759 28.3388C43.4409 29.3 41.9315 30.0049 40.2945 30.3681ZM43.9512 26.929C44.1 26.8222 44.2275 26.694 44.3764 26.5658L45.3331 27.8902C45.1842 28.0184 45.0354 28.1252 44.8866 28.2533L43.9512 26.929ZM47.0338 12.7668C46.9913 12.6386 46.9488 12.5105 46.9063 12.3609L47.8205 12.0192C47.9268 12.1687 48.0118 12.3182 48.0968 12.4891C47.6929 12.5959 47.3527 12.6814 47.0338 12.7668ZM46.2472 10.9511C46.1835 10.8443 46.1197 10.7375 46.0559 10.6521L46.5449 10.353C46.6512 10.4598 46.7362 10.5666 46.8425 10.6948C46.6086 10.7802 46.4173 10.8657 46.2472 10.9511ZM45.2693 9.28499C45.248 9.22091 45.248 9.15683 45.2268 9.11411C45.2693 9.15683 45.3118 9.17819 45.3543 9.22091C45.3331 9.24227 45.2905 9.26363 45.2693 9.28499ZM42.1016 7.08484C41.9527 7.02076 41.7827 6.95667 41.6338 6.91395L41.6551 6.84987C41.8039 6.91395 41.9527 6.97803 42.1016 7.04212C42.1016 7.06348 42.1016 7.08484 42.1016 7.08484ZM41.5701 6.65762C41.4212 6.59354 41.2512 6.52946 41.1023 6.48674C41.1874 6.44401 41.2937 6.42265 41.4 6.42265C41.485 6.42265 41.5913 6.44401 41.6551 6.46538L41.5701 6.65762ZM40.0819 6.35857C40.0606 6.40129 40.0394 6.44401 40.0181 6.48674C39.274 6.33721 38.4874 6.25177 37.7008 6.25177L37.722 6.0168C38.4449 6.03816 39.2527 6.14496 40.0819 6.35857ZM37.5094 6.42265L37.4669 6.78579C37.4244 6.78579 37.4031 6.78579 37.3606 6.78579C37.4031 6.7217 37.4457 6.63626 37.4669 6.5081C37.4669 6.46537 37.4669 6.44401 37.4669 6.40129C37.4882 6.42265 37.5094 6.42265 37.5094 6.42265ZM34.6394 6.93531C34.7031 6.93531 34.7457 6.84987 34.7669 6.76443C34.9582 6.7217 35.1709 6.67898 35.3835 6.63626C35.426 6.76443 35.4897 6.84987 35.5748 6.84987C35.6598 6.84987 35.7236 6.7217 35.7236 6.57218C35.9149 6.55082 36.085 6.5081 36.2764 6.48674C36.2764 6.65762 36.3614 6.80715 36.4464 6.80715C36.5527 6.80715 36.6165 6.65762 36.6165 6.46538V6.44401C36.7866 6.42265 36.9779 6.42265 37.148 6.40129C37.148 6.42265 37.1268 6.44401 37.1268 6.46538C37.1268 6.59354 37.148 6.70034 37.2118 6.76443C36.2551 6.82851 35.3622 7.02076 34.4905 7.213C34.2992 7.25572 34.0866 7.29844 33.8953 7.34117C33.8315 7.25572 33.7464 7.17028 33.6827 7.08484C33.7039 7.08484 33.7252 7.1062 33.7252 7.08484C33.7677 7.08484 33.789 7.04212 33.8102 7.02075C34.0441 6.93531 34.2567 6.87123 34.4905 6.80715C34.5331 6.91395 34.5968 6.95667 34.6394 6.93531ZM33.4913 7.14892C33.6189 7.27708 33.7252 7.38389 33.789 7.49069L33.8102 7.53341L33.8527 7.51205C34.0653 7.46933 34.2992 7.42661 34.5118 7.36253C35.4685 7.14892 36.4252 6.95667 37.4457 6.89259L37.4031 7.34117C37.2968 7.34117 37.2118 7.34117 37.1055 7.34117C35.3622 7.34117 33.7039 7.76838 32.237 8.49465C32.1945 8.47329 32.1732 8.47329 32.1307 8.47329C32.0882 8.49465 32.0669 8.51601 32.0669 8.58009C31.9394 8.64417 31.7905 8.72962 31.663 8.7937C31.5992 8.75098 31.5567 8.72961 31.5142 8.75098C31.4716 8.77234 31.4504 8.83642 31.4504 8.92186C31.3016 9.00731 31.1527 9.11411 31.0039 9.19955C30.9189 9.13547 30.8551 9.09275 30.7913 9.13547C30.7275 9.17819 30.7275 9.26363 30.7488 9.3918C30.6212 9.4986 30.4724 9.58405 30.3449 9.69085C30.2598 9.58405 30.1323 9.54132 30.0685 9.58405C30.0047 9.62677 30.0047 9.77629 30.0685 9.90446C29.9409 10.0113 29.8134 10.1181 29.6858 10.2462C29.5795 10.1181 29.4307 10.054 29.3669 10.1181C29.2819 10.1821 29.3244 10.353 29.4307 10.4812C29.3031 10.6094 29.1543 10.7589 29.0268 10.9084C29.0055 10.8871 29.0055 10.8871 28.9842 10.8657C28.8567 10.7375 28.6866 10.6734 28.6228 10.7375C28.559 10.8016 28.6016 10.9725 28.7291 11.1007C28.7504 11.122 28.7716 11.1434 28.7929 11.1647C28.6866 11.2929 28.559 11.4424 28.4527 11.5706C28.4315 11.5279 28.4102 11.5065 28.3677 11.4852C28.2401 11.357 28.0701 11.3143 28.0063 11.3997C27.9425 11.4638 28.0063 11.6347 28.1338 11.7628C28.1764 11.8056 28.2189 11.8269 28.2614 11.8483C28.1976 11.9551 28.1126 12.0405 28.0488 12.1473C28.0275 12.1046 27.985 12.0619 27.9212 12.0192C27.7724 11.9124 27.6023 11.8696 27.5598 11.9551C27.496 12.0405 27.5598 12.1901 27.7086 12.2969C27.7724 12.3396 27.8362 12.3823 27.9 12.3823C27.8149 12.5318 27.7086 12.6814 27.6236 12.8309C27.6023 12.7668 27.5386 12.7027 27.4535 12.6386C27.3047 12.5318 27.1346 12.5105 27.0708 12.5959C27.0071 12.6814 27.0921 12.8309 27.2409 12.9377C27.326 13.0018 27.4323 13.0231 27.496 13.0231C27.3897 13.2154 27.2834 13.4076 27.1984 13.6212C27.1984 13.5358 27.1346 13.429 26.9858 13.3435C26.8795 13.2795 26.752 13.2581 26.6882 13.2795C28.1126 10.4812 30.5149 8.25968 33.4913 7.14892ZM27.6023 25.2415C27.6874 25.2201 27.7937 25.1774 27.9 25.092C28.0701 24.9424 28.1551 24.7502 28.0701 24.6434C27.985 24.5579 27.7724 24.6007 27.6023 24.7502C27.5173 24.8143 27.4535 24.8997 27.4323 24.9852C27.3047 24.7929 27.1984 24.5793 27.0708 24.387C27.1346 24.3657 27.1771 24.3443 27.2409 24.3016C27.4323 24.1734 27.5173 23.9812 27.4535 23.8744C27.3897 23.7676 27.1771 23.8103 26.9858 23.9385C26.9433 23.9598 26.922 24.0026 26.9008 24.0239C26.8157 23.853 26.7307 23.6821 26.6457 23.4899C26.6669 23.4899 26.6669 23.4899 26.6882 23.4685C26.8795 23.3404 26.9858 23.1695 26.922 23.0627C26.8583 22.9559 26.6669 22.9772 26.4756 23.084C25.9016 21.6742 25.6039 20.1576 25.6039 18.5342C25.6039 17.0603 25.8803 15.6291 26.348 14.3261C26.3905 14.3689 26.4543 14.4329 26.5181 14.4543C26.6882 14.5397 26.8583 14.5184 26.9008 14.4329C26.9433 14.3475 26.837 14.198 26.6669 14.1339C26.5819 14.0912 26.4968 14.0698 26.4331 14.0912C26.5181 13.8989 26.6031 13.6853 26.6882 13.4931C26.7094 13.5571 26.7732 13.6426 26.8795 13.7067C27.0283 13.7921 27.1771 13.7921 27.2409 13.728C26.5819 15.1378 26.2205 16.6972 26.2205 18.3633C26.2205 21.4179 27.4748 24.1734 29.4732 26.1814C29.3669 26.2027 29.2606 26.2668 29.1543 26.3736C29.0055 26.5445 28.963 26.7581 29.048 26.8435C29.1331 26.929 29.3457 26.8435 29.4945 26.6727C29.5795 26.5658 29.6433 26.4377 29.6433 26.3522C29.8346 26.5231 30.026 26.7154 30.2386 26.8649C30.1535 26.9076 30.0897 26.9717 30.0047 27.0571C29.8771 27.2494 29.8346 27.463 29.9409 27.5271C30.0472 27.5912 30.2386 27.5057 30.3661 27.3135C30.4299 27.228 30.4724 27.1426 30.4724 27.0571C30.6 27.1639 30.7275 27.2494 30.8764 27.3562C30.8126 27.3989 30.7488 27.463 30.685 27.5484C30.5575 27.7407 30.5362 27.9543 30.6425 28.0184C30.6638 28.0397 30.7063 28.0397 30.7275 28.0397L30.5362 28.3602C29.4094 27.5057 28.4102 26.459 27.6023 25.2415ZM30.6212 28.5738C31.8543 29.4496 33.2575 30.1117 34.7669 30.4749L34.363 32.3973C32.5984 32.0769 30.9401 31.4147 29.452 30.4962L30.6212 28.5738ZM34.5118 32.4401L34.9157 30.5176C35.3834 30.6244 35.8724 30.7098 36.3401 30.7526C36.6803 31.4788 37.4031 31.9915 38.2535 31.9915C38.8913 31.9915 39.4653 31.7138 39.848 31.2652L40.0606 32.2905C39.0189 32.5255 37.9559 32.6537 36.8716 32.6537C36.0638 32.6323 35.2772 32.5682 34.5118 32.4401ZM45.7583 29.4709L44.9716 28.3815C45.1205 28.2747 45.2693 28.1465 45.4181 28.0184L46.2047 29.0864C46.0559 29.2146 45.9071 29.3427 45.7583 29.4709ZM49.7126 18.5342C49.7126 21.247 48.8197 23.7676 47.3102 25.7969L46.0346 24.7075C47.3102 22.9132 48.0543 20.7344 48.0543 18.3633C48.0543 17.0603 47.8205 15.8214 47.4165 14.6465C47.3953 14.5184 47.3953 14.4116 47.374 14.2834L48.8622 14.0484C49.4149 15.4369 49.7126 16.9535 49.7126 18.5342ZM48.2669 12.4464C48.1819 12.2755 48.0756 12.126 47.9693 11.9551L48.7559 11.656C48.8622 11.8483 48.9685 12.0405 49.0535 12.2328C48.7984 12.3182 48.522 12.3823 48.2669 12.4464ZM47.8417 10.2035C47.5228 10.353 47.2464 10.4812 46.9701 10.6094C46.8638 10.4812 46.7787 10.3744 46.6724 10.2676L47.5016 9.77629C47.6079 9.90446 47.7354 10.054 47.8417 10.2035ZM46.3748 8.47329C46.0346 8.70826 45.7583 8.92186 45.5031 9.11411C45.3756 9.00731 45.2693 8.92186 45.1417 8.83642L45.9071 8.02471C46.0559 8.17424 46.226 8.32376 46.3748 8.47329ZM43.8661 7.89655C43.5472 7.68294 43.2496 7.46933 42.9307 7.29845C42.9307 7.25572 42.952 7.213 42.952 7.14892C42.952 6.57218 42.6331 6.08088 42.1653 5.80319L42.2504 5.58958C43.0795 5.97408 43.8661 6.42265 44.6102 6.95667C44.3126 7.31981 44.0575 7.61886 43.8661 7.89655ZM36.4464 4.3293C36.8716 4.3293 37.2968 4.35066 37.7008 4.39338L37.5732 5.84591C35.8937 5.78183 34.6394 6.03816 34.4055 6.08088C34.2992 5.97408 33.874 5.61095 33.0023 5.03421L32.9598 5.01284L32.9173 5.03421C31.9819 5.35462 31.1953 5.69639 30.5149 6.05952L30.3449 5.73911C32.2157 4.8206 34.2992 4.3293 36.4464 4.3293ZM42.8457 16.1204C42.8669 16.1632 42.8882 16.2059 42.8882 16.2486V16.5049C42.8882 16.5477 42.8669 16.5904 42.8457 16.6331C42.8244 16.6545 42.7819 16.6758 42.7181 16.6758H41.3362V20.0295C41.3362 20.0935 41.3149 20.1363 41.2937 20.1576C41.2512 20.2003 41.2086 20.2003 41.1661 20.2003H40.826C40.7835 20.2003 40.7197 20.179 40.6984 20.1576C40.6559 20.1149 40.6559 20.0722 40.6559 20.0295V16.6758H39.274C39.2315 16.6758 39.1677 16.6545 39.1464 16.6331C39.1039 16.6117 39.1039 16.569 39.1039 16.5049V16.2486C39.1039 16.2059 39.1252 16.1418 39.1464 16.1204C39.189 16.0777 39.2315 16.0777 39.274 16.0777H42.7606C42.7819 16.0777 42.8244 16.0991 42.8457 16.1204ZM37.148 15.9923C36.6165 15.9923 36.1701 16.1632 35.8512 16.5049C35.5323 16.8467 35.3409 17.2953 35.3197 17.872V18.1284V18.406C35.3409 18.9828 35.5323 19.4527 35.8512 19.7945C36.1701 20.1363 36.5953 20.3071 37.148 20.3071C37.4882 20.3071 37.7858 20.2431 38.0409 20.1363C38.2961 20.0081 38.5086 19.8799 38.6575 19.709C38.8063 19.5382 38.8701 19.41 38.8701 19.2818C38.8701 19.2391 38.8488 19.1964 38.8275 19.175C38.785 19.1537 38.7425 19.1323 38.7 19.1323H38.3386C38.2748 19.1323 38.2323 19.1323 38.211 19.1537C38.1897 19.175 38.1472 19.1964 38.1047 19.2605C38.0197 19.3673 37.9134 19.4741 37.7433 19.5595C37.5945 19.6663 37.3819 19.709 37.1268 19.709C36.8079 19.709 36.5527 19.5809 36.3401 19.3459C36.1488 19.1109 36.0425 18.8119 36.0212 18.4701V18.406H38.7638C38.8063 18.406 38.8701 18.3847 38.8913 18.3633C38.9338 18.3206 38.9338 18.2779 38.9338 18.2352V18.0856C38.9338 17.4448 38.7638 16.9535 38.4449 16.569C38.1898 16.1845 37.7433 15.9923 37.148 15.9923ZM38.2535 17.8507H36.0425V17.8293C36.0425 17.4662 36.1488 17.1458 36.3401 16.9108C36.5315 16.6758 36.8079 16.569 37.148 16.569C37.4882 16.569 37.7646 16.6758 37.9559 16.9108C38.1472 17.1458 38.2535 17.4448 38.2535 17.8293V17.8507ZM34.6606 16.1204C34.6819 16.1632 34.7031 16.2059 34.7031 16.2486V20.0295C34.7031 20.0935 34.6819 20.1363 34.6606 20.1576C34.6181 20.2003 34.5756 20.2003 34.5331 20.2003H34.1929C34.1504 20.2003 34.0866 20.179 34.0653 20.1576C34.0228 20.1149 34.0228 20.0722 34.0228 20.0295V16.6758H32.5771V17.338C32.5771 18.342 32.4708 19.0682 32.237 19.5168C32.0031 19.9654 31.6417 20.2003 31.1527 20.2003C31.1102 20.2003 31.0464 20.179 31.0252 20.1363C30.9827 20.0935 30.9614 20.0508 30.9614 20.0081V19.7304C30.9614 19.6877 30.9827 19.645 31.0039 19.6022C31.0252 19.5809 31.0677 19.5595 31.1315 19.5382C31.3866 19.5382 31.5779 19.3459 31.7055 18.9828C31.8331 18.6196 31.8968 18.0429 31.8968 17.2312V16.2059C31.8968 16.1632 31.9181 16.0991 31.9394 16.0777C31.9819 16.035 32.0244 16.035 32.0669 16.035H34.5543C34.5968 16.0777 34.6394 16.0991 34.6606 16.1204ZM36.2551 8.02471C36.2551 7.83246 36.3401 7.68294 36.4252 7.68294C36.5315 7.68294 36.5953 7.83246 36.5953 8.02471C36.5953 8.21696 36.5102 8.36648 36.4252 8.36648C36.3401 8.34512 36.2551 8.1956 36.2551 8.02471ZM36.2551 9.56269C36.2551 9.37044 36.3401 9.22091 36.4252 9.22091C36.5315 9.22091 36.5953 9.37044 36.5953 9.56269C36.5953 9.75493 36.5102 9.90446 36.4252 9.90446C36.3401 9.90446 36.2551 9.75493 36.2551 9.56269ZM35.4685 8.06743C35.4472 7.87519 35.5323 7.72566 35.6173 7.72566C35.7236 7.72566 35.8086 7.85382 35.8086 8.04607C35.8299 8.23832 35.7449 8.38784 35.6598 8.38784C35.5748 8.38784 35.4897 8.23832 35.4685 8.06743ZM35.5748 9.60541C35.5535 9.41316 35.6386 9.26363 35.7236 9.26363C35.8299 9.26363 35.9149 9.3918 35.9149 9.58405C35.9362 9.77629 35.8512 9.92582 35.7661 9.92582C35.6811 9.92582 35.596 9.77629 35.5748 9.60541ZM34.8732 9.69085C34.852 9.4986 34.8945 9.34908 35.0008 9.32772C35.1071 9.30636 35.1921 9.45588 35.2346 9.62677C35.2559 9.81901 35.2134 9.96854 35.1071 9.9899C35.0008 10.0113 34.8945 9.8831 34.8732 9.69085ZM34.1716 9.84038C34.1291 9.66949 34.1716 9.4986 34.2779 9.47724C34.363 9.45588 34.4905 9.58405 34.5331 9.75493C34.5756 9.92582 34.5331 10.0967 34.4268 10.1181C34.3205 10.1394 34.2142 10.0113 34.1716 9.84038ZM33.4063 10.0753C33.3425 9.90446 33.385 9.73357 33.4701 9.71221C33.5551 9.69085 33.6827 9.79765 33.7464 9.96854C33.8102 10.1394 33.7677 10.3103 33.6827 10.3317C33.5764 10.353 33.4701 10.2462 33.4063 10.0753ZM31.5354 7.49069C31.4716 7.31981 31.4716 7.14892 31.5779 7.1062C31.663 7.06348 31.7905 7.17028 31.8756 7.34117C31.9394 7.51205 31.9181 7.68294 31.8331 7.72566C31.748 7.76838 31.6205 7.66158 31.5354 7.49069ZM32.7047 10.3317C32.6409 10.1608 32.6622 9.9899 32.7472 9.94718C32.8323 9.90446 32.9598 10.0113 33.0449 10.1821C33.1086 10.353 33.0874 10.5239 33.0023 10.5666C32.9173 10.6094 32.7897 10.5026 32.7047 10.3317ZM30.8551 7.8111C30.7701 7.64022 30.7913 7.46933 30.8764 7.42661C30.9614 7.38389 31.1102 7.49069 31.174 7.64022C31.259 7.8111 31.2378 7.98199 31.1527 8.02471C31.0677 8.06743 30.9189 7.98199 30.8551 7.8111ZM32.1945 10.588C32.1094 10.4171 32.1307 10.2462 32.2157 10.2035C32.3008 10.1608 32.4496 10.2676 32.5134 10.4171C32.5984 10.588 32.5772 10.7589 32.4921 10.8016C32.4071 10.8443 32.2795 10.7589 32.1945 10.588ZM30.0472 8.23832C29.9622 8.08879 29.9409 7.91791 30.026 7.85382C30.111 7.8111 30.2598 7.89655 30.3449 8.04607C30.4299 8.1956 30.4512 8.36648 30.3661 8.43056C30.2811 8.49465 30.1535 8.4092 30.0472 8.23832ZM31.5992 10.9084C31.5142 10.7589 31.4929 10.588 31.5779 10.5239C31.663 10.4812 31.8118 10.5666 31.8968 10.7162C31.9819 10.8657 32.0031 11.0366 31.9181 11.1007C31.8331 11.1647 31.6842 11.0793 31.5992 10.9084ZM29.2606 8.75098C29.1543 8.60145 29.1331 8.43057 29.2181 8.36648C29.3031 8.3024 29.452 8.38784 29.5583 8.53737C29.6645 8.68689 29.6858 8.85778 29.6008 8.92186C29.5157 8.98594 29.3669 8.92186 29.2606 8.75098ZM31.3441 11.4852C31.259 11.5492 31.1102 11.4638 31.0039 11.3143C30.8976 11.1647 30.8764 10.9939 30.9614 10.9298C31.0464 10.8657 31.1953 10.9511 31.3016 11.1007C31.4079 11.2502 31.4079 11.4211 31.3441 11.4852ZM28.4953 9.34908C28.389 9.19955 28.3464 9.02867 28.4315 8.98595C28.5165 8.92186 28.6653 8.98594 28.7716 9.13547C28.8779 9.285 28.9205 9.45588 28.8354 9.4986C28.7716 9.56268 28.6228 9.4986 28.4953 9.34908ZM30.7063 11.5279C30.8126 11.6774 30.8551 11.8483 30.7701 11.891C30.685 11.9551 30.5362 11.891 30.4299 11.7415C30.3236 11.592 30.2811 11.4211 30.3661 11.3783C30.4299 11.3143 30.6 11.3783 30.7063 11.5279ZM25.4126 25.0706C25.6039 24.9424 25.8165 24.8997 25.8803 25.0065C25.9441 25.1133 25.859 25.3056 25.6677 25.4337C25.4764 25.5619 25.2638 25.6046 25.2 25.4978C25.1362 25.4124 25.2425 25.2201 25.4126 25.0706ZM25.9653 26.459C25.8803 26.3736 25.9653 26.16 26.1354 26.0105C26.3055 25.8609 26.5181 25.8182 26.6031 25.9037C26.6882 25.9891 26.6031 26.2027 26.4331 26.3522C26.263 26.5231 26.0504 26.5658 25.9653 26.459ZM26.8157 27.3776C26.7307 27.2921 26.7945 27.0785 26.9645 26.929C27.1346 26.7581 27.326 26.694 27.411 26.8008C27.496 26.8863 27.4323 27.0999 27.2622 27.2494C27.0921 27.4203 26.9008 27.4844 26.8157 27.3776ZM28.7716 25.4124C28.8567 25.4978 28.7929 25.7114 28.6228 25.8609C28.4527 26.0318 28.2614 26.0959 28.1764 25.9891C28.0913 25.9037 28.1551 25.6901 28.3252 25.5405C28.474 25.391 28.6866 25.3269 28.7716 25.4124ZM27.8149 28.3174C27.7299 28.232 27.7724 28.0184 27.9212 27.8475C28.0701 27.6766 28.2614 27.5912 28.3677 27.6766C28.4527 27.7621 28.4102 27.9757 28.2614 28.1465C28.1126 28.3174 27.9 28.4029 27.8149 28.3174ZM28.8142 29.1078C28.7079 29.0437 28.7504 28.8301 28.8779 28.6378C29.0055 28.4456 29.1968 28.3602 29.3031 28.4242C29.4094 28.4883 29.3669 28.7019 29.2394 28.8942C29.1118 29.0864 28.9205 29.1719 28.8142 29.1078ZM31.0464 29.5136C31.1527 29.5777 31.1527 29.7913 31.0464 29.9836C30.9401 30.1972 30.7701 30.304 30.6425 30.2399C30.5362 30.1758 30.5362 29.9622 30.6425 29.77C30.7488 29.5777 30.9401 29.4495 31.0464 29.5136ZM32.1094 30.4962C32.0244 30.7098 31.8543 30.838 31.7268 30.7953C31.6205 30.7526 31.5992 30.539 31.6842 30.3253C31.7693 30.1117 31.9394 29.9836 32.0669 30.0263C32.1945 30.069 32.2157 30.2826 32.1094 30.4962ZM33.2575 30.9234C33.1724 31.137 33.0236 31.2866 32.9173 31.2439C32.811 31.2011 32.7685 30.9875 32.8535 30.7739C32.9386 30.5603 33.0874 30.4108 33.1937 30.4535C33.3 30.4962 33.3212 30.6885 33.2575 30.9234ZM27.7299 10.054C27.6023 9.92582 27.5598 9.75493 27.6236 9.69085C27.6874 9.62677 27.8575 9.66949 27.985 9.81901C28.1126 9.94718 28.1551 10.1181 28.0913 10.1821C28.0063 10.2462 27.8362 10.1821 27.7299 10.054ZM30.0897 12.0405C30.2173 12.1687 30.2598 12.3396 30.196 12.4037C30.1323 12.4677 29.9622 12.425 29.8346 12.2755C29.7071 12.1473 29.6646 11.9765 29.7283 11.9124C29.8134 11.8483 29.9834 11.9124 30.0897 12.0405ZM27.0496 10.7802C26.922 10.6521 26.8583 10.5026 26.922 10.4171C26.9858 10.353 27.1559 10.3744 27.2834 10.5026C27.411 10.6307 27.4748 10.7802 27.411 10.8657C27.3472 10.9511 27.1771 10.9084 27.0496 10.7802ZM29.5795 12.5746C29.7071 12.7027 29.7708 12.8522 29.7071 12.9377C29.6433 13.0018 29.4732 12.9804 29.3457 12.8522C29.2181 12.7241 29.1543 12.5746 29.2181 12.4891C29.2819 12.4037 29.4307 12.4464 29.5795 12.5746ZM26.922 11.4424C26.8583 11.5279 26.6882 11.4852 26.5606 11.3783C26.4118 11.2715 26.348 11.1007 26.4118 11.0366C26.4756 10.9511 26.6457 10.9939 26.7732 11.1007C26.922 11.2288 26.9858 11.3784 26.922 11.4424ZM29.3457 13.3649C29.2819 13.4503 29.1118 13.4076 28.9842 13.3008C28.8354 13.194 28.7716 13.0231 28.8354 12.959C28.8992 12.8736 29.0693 12.9163 29.1968 13.0231C29.3457 13.1299 29.4094 13.2795 29.3457 13.3649ZM26.4118 12.1687C26.348 12.2541 26.1992 12.2328 26.0291 12.126C25.8803 12.0192 25.7953 11.8696 25.859 11.7842C25.9228 11.6988 26.0716 11.7201 26.2417 11.8269C26.3905 11.9337 26.4543 12.0833 26.4118 12.1687ZM28.963 13.8989C28.8992 13.9844 28.7504 13.963 28.5803 13.8562C28.4315 13.7494 28.3464 13.5999 28.4102 13.5144C28.474 13.429 28.6228 13.4503 28.7929 13.5571C28.9417 13.664 29.0055 13.8135 28.963 13.8989ZM25.9228 12.9377C25.8803 13.0231 25.7102 13.0231 25.5401 12.9377C25.3701 12.8522 25.285 12.7027 25.3488 12.6173C25.3913 12.5318 25.5614 12.5318 25.7315 12.6173C25.8803 12.7241 25.9653 12.8522 25.9228 12.9377ZM28.6016 14.4757C28.559 14.5611 28.389 14.5611 28.2189 14.4757C28.0488 14.3902 27.9638 14.2407 28.0275 14.1552C28.0701 14.0698 28.2401 14.0698 28.4102 14.1552C28.559 14.2407 28.6441 14.3902 28.6016 14.4757ZM25.2638 13.4717C25.4338 13.5571 25.5401 13.6853 25.4976 13.7708C25.4551 13.8562 25.285 13.8776 25.1149 13.7921C24.9449 13.7067 24.8386 13.5785 24.8811 13.4931C24.9236 13.4076 25.0937 13.4076 25.2638 13.4717ZM48.6496 21.0975C48.6283 21.1829 48.4583 21.247 48.2882 21.2043C48.1181 21.1616 47.9905 21.0548 48.0118 20.948C48.0331 20.8412 48.2031 20.7984 48.3732 20.8412C48.5433 20.8839 48.6709 20.9907 48.6496 21.0975ZM45.652 20.3926C45.6307 20.478 45.4606 20.5421 45.2905 20.4994C45.1205 20.4567 44.9929 20.3499 45.0142 20.2431C45.0354 20.1363 45.2055 20.0935 45.3756 20.1363C45.5457 20.179 45.6732 20.3071 45.652 20.3926ZM48.1819 19.9867C48.2031 19.8799 48.352 19.8372 48.5433 19.8586C48.7346 19.8799 48.8622 19.9867 48.8409 20.0935C48.8197 20.2003 48.6709 20.2431 48.4795 20.2217C48.2882 20.179 48.1606 20.0935 48.1819 19.9867ZM45.1417 19.5382C45.163 19.4314 45.3118 19.3886 45.5031 19.41C45.6945 19.4314 45.822 19.5382 45.8008 19.645C45.7795 19.7518 45.6307 19.7945 45.4394 19.7731C45.248 19.7304 45.1205 19.645 45.1417 19.5382ZM48.926 19.3032C48.926 19.41 48.7559 19.4741 48.5858 19.4527C48.3945 19.4314 48.2669 19.3459 48.2669 19.2391C48.2669 19.1323 48.437 19.0682 48.6071 19.0896C48.7984 19.1109 48.926 19.1964 48.926 19.3032ZM45.8646 19.0255C45.8646 19.1323 45.6945 19.1964 45.5244 19.175C45.3331 19.1537 45.2055 19.0682 45.2055 18.9614C45.2055 18.8546 45.3756 18.7905 45.5457 18.8119C45.737 18.8546 45.8646 18.9401 45.8646 19.0255ZM48.9685 18.3633C48.9685 18.4701 48.8197 18.5342 48.6283 18.5342C48.437 18.5342 48.2882 18.4488 48.2882 18.342C48.2882 18.2352 48.437 18.1711 48.6283 18.1711C48.8197 18.1924 48.9685 18.2565 48.9685 18.3633ZM45.9071 18.3206C45.9071 18.4274 45.7583 18.4915 45.5669 18.4915C45.3756 18.4915 45.2268 18.406 45.2268 18.2992C45.2268 18.1924 45.3756 18.1284 45.5669 18.1284C45.7583 18.1497 45.9071 18.2352 45.9071 18.3206ZM48.6071 17.2312C48.7984 17.2098 48.9472 17.2953 48.9472 17.3807C48.9472 17.4875 48.8197 17.573 48.6283 17.573C48.437 17.5943 48.2882 17.5089 48.2882 17.4234C48.2882 17.338 48.4157 17.2526 48.6071 17.2312ZM45.5457 17.4234C45.737 17.4021 45.8858 17.4875 45.8858 17.573C45.8858 17.6798 45.7583 17.7652 45.5669 17.7652C45.3756 17.7866 45.2268 17.7011 45.2268 17.6157C45.2055 17.5302 45.3543 17.4448 45.5457 17.4234ZM48.1819 16.5049C48.1606 16.3981 48.3094 16.3127 48.4795 16.2913C48.6709 16.27 48.8197 16.334 48.8409 16.4195C48.8622 16.5263 48.7134 16.6117 48.5433 16.6331C48.352 16.6545 48.2031 16.5904 48.1819 16.5049ZM45.1417 16.9321C45.1205 16.8253 45.2693 16.7399 45.4394 16.7185C45.6307 16.6972 45.7795 16.7613 45.8008 16.8467C45.822 16.9535 45.6732 17.039 45.5031 17.0603C45.3118 17.0817 45.163 17.039 45.1417 16.9321ZM39.6142 8.49465C39.6779 8.32376 39.7842 8.1956 39.8905 8.23832C39.9756 8.25968 40.0181 8.43057 39.9543 8.60145C39.8905 8.77234 39.7842 8.9005 39.6779 8.85778C39.5929 8.83642 39.5504 8.66553 39.6142 8.49465ZM39.1464 9.96854C39.2102 9.79765 39.3165 9.66949 39.4228 9.71221C39.5079 9.73357 39.5504 9.90446 39.4866 10.0753C39.4228 10.2462 39.3165 10.3744 39.2102 10.3317C39.1252 10.3103 39.0827 10.1394 39.1464 9.96854ZM38.8063 8.28104C38.8488 8.11015 38.9551 7.98199 39.0614 8.00335C39.1464 8.02471 39.189 8.1956 39.1464 8.36648C39.1039 8.53737 38.9976 8.66553 38.8913 8.64417C38.8063 8.62281 38.7638 8.45193 38.8063 8.28104ZM38.4449 9.77629C38.4874 9.60541 38.5937 9.47724 38.7 9.4986C38.785 9.51996 38.8275 9.69085 38.785 9.86174C38.7425 10.0326 38.6362 10.1608 38.5299 10.1394C38.4449 10.1181 38.4023 9.96854 38.4449 9.77629ZM37.8921 8.11015C37.9134 7.91791 38.0197 7.78974 38.126 7.8111C38.2323 7.83246 38.2748 7.98199 38.2535 8.17424C38.2323 8.36648 38.126 8.49465 38.0197 8.47329C37.9134 8.45193 37.8709 8.3024 37.8921 8.11015ZM37.6583 9.64813C37.6795 9.45588 37.7858 9.32772 37.8921 9.34908C37.9984 9.37044 38.0409 9.51996 38.0197 9.71221C37.9984 9.90446 37.8921 10.0326 37.7858 10.0113C37.6795 9.9899 37.637 9.81901 37.6583 9.64813Z" fill="#D1D3D4"/>
</svg>
