<svg width="26" height="26" viewBox="0 0 26 26" fill="none" xmlns="http://www.w3.org/2000/svg">
<circle cx="13" cy="13" r="13" fill="#A50034"/>
<path d="M13.4644 18.5074L13.9059 18.9138L13.4644 18.5074ZM12.5355 18.5074L12.0941 18.9138L12.5355 18.5074ZM17.0666 11.6667C17.0666 12.0549 16.9206 12.5667 16.6336 13.1738C16.3514 13.7707 15.9571 14.4104 15.5166 15.0401C14.6358 16.299 13.6056 17.4682 13.023 18.101L13.9059 18.9138C14.5036 18.2646 15.5746 17.0504 16.4998 15.728C16.9623 15.067 17.3971 14.3665 17.7185 13.6866C18.035 13.017 18.2666 12.3155 18.2666 11.6667H17.0666ZM12.9769 18.101C12.3943 17.4682 11.3642 16.299 10.4834 15.0401C10.0429 14.4104 9.64851 13.7707 9.36638 13.1738C9.07941 12.5667 8.93331 12.0549 8.93331 11.6667H7.73331C7.73331 12.3155 7.96495 13.017 8.28147 13.6866C8.60281 14.3665 9.03771 15.067 9.50016 15.728C10.4254 17.0504 11.4964 18.2646 12.0941 18.9138L12.9769 18.101ZM8.93331 11.6667C8.93331 9.42071 10.754 7.6 13 7.6V6.4C10.0913 6.4 7.73331 8.75797 7.73331 11.6667H8.93331ZM13 7.6C15.2459 7.6 17.0666 9.42071 17.0666 11.6667H18.2666C18.2666 8.75797 15.9087 6.4 13 6.4V7.6ZM13.023 18.101C13.017 18.1076 13.0123 18.1102 13.0097 18.1113C13.0066 18.1127 13.0033 18.1133 13 18.1133C12.9966 18.1133 12.9934 18.1127 12.9903 18.1113C12.9876 18.1102 12.983 18.1076 12.9769 18.101L12.0941 18.9138C12.5845 19.4465 13.4155 19.4465 13.9059 18.9138L13.023 18.101ZM14.4 11.6667C14.4 12.4399 13.7732 13.0667 13 13.0667V14.2667C14.4359 14.2667 15.6 13.1026 15.6 11.6667H14.4ZM13 13.0667C12.2268 13.0667 11.6 12.4399 11.6 11.6667H10.4C10.4 13.1026 11.564 14.2667 13 14.2667V13.0667ZM11.6 11.6667C11.6 10.8935 12.2268 10.2667 13 10.2667V9.06667C11.564 9.06667 10.4 10.2307 10.4 11.6667H11.6ZM13 10.2667C13.7732 10.2667 14.4 10.8935 14.4 11.6667H15.6C15.6 10.2307 14.4359 9.06667 13 9.06667V10.2667Z" fill="white"/>
</svg>
