<svg width="54" height="54" viewBox="0 0 54 54" fill="none" xmlns="http://www.w3.org/2000/svg">
<g clip-path="url(#clip0_34_706)">
<path d="M31.0174 28.4694C30.9826 28.4781 30.8434 28.4781 30.7826 28.4781H26.2956V29.5248H30.8608C30.8956 29.5248 31.1652 29.5248 31.2174 29.5161C32.1478 29.4289 32.5739 28.6526 32.5739 27.9722C32.5739 27.2744 32.1304 26.5243 31.2869 26.4458C31.1217 26.4284 30.9826 26.4284 30.9217 26.4284H27.9391C27.8087 26.4284 27.6608 26.4196 27.6087 26.4022C27.3739 26.3411 27.2869 26.1318 27.2869 25.9574C27.2869 25.8004 27.3739 25.591 27.6174 25.5212C27.6869 25.5038 27.7652 25.4951 27.9304 25.4951H32.2347V24.4658H27.8608C27.6782 24.4658 27.5391 24.4745 27.4261 24.492C26.6782 24.5967 26.1565 25.1985 26.1565 25.9661C26.1565 26.5941 26.5478 27.3268 27.4087 27.4489C27.5652 27.4663 27.7826 27.4663 27.8782 27.4663H30.7826C30.8348 27.4663 30.9652 27.4663 30.9913 27.4751C31.3217 27.5187 31.4347 27.7629 31.4347 27.981C31.4347 28.1903 31.3043 28.4171 31.0174 28.4694Z" fill="black"/>
<path d="M22.5132 28.4694C22.4784 28.4781 22.3393 28.4781 22.2871 28.4781H17.7915V29.5248H22.3567C22.3915 29.5248 22.661 29.5248 22.7132 29.5161C23.6436 29.4289 24.0697 28.6526 24.0697 27.9722C24.0697 27.2744 23.6263 26.5243 22.7828 26.4458C22.6176 26.4284 22.4784 26.4284 22.4176 26.4284H19.435C19.3045 26.4284 19.1567 26.4196 19.1045 26.4022C18.8697 26.3411 18.7828 26.1318 18.7828 25.9574C18.7828 25.8004 18.8697 25.591 19.1132 25.5212C19.1828 25.5038 19.261 25.4951 19.4263 25.4951H23.7306V24.4658H19.3567C19.1741 24.4658 19.035 24.4745 18.9219 24.492C18.1741 24.5967 17.6523 25.1985 17.6523 25.9661C17.6523 26.5941 18.0436 27.3268 18.9045 27.4489C19.061 27.4663 19.2784 27.4663 19.3741 27.4663H22.2784C22.3306 27.4663 22.461 27.4663 22.4871 27.4751C22.8176 27.5187 22.9306 27.7629 22.9306 27.981C22.9306 28.1903 22.8089 28.4171 22.5132 28.4694Z" fill="black"/>
<path d="M15.4522 24.4307H14.3218V29.5507H15.4522V24.4307Z" fill="black"/>
<path d="M11.8261 29.5507V24.4307H10.6957V28.2511L6.93045 24.4307H5.47827V29.5507H6.60871V25.7129L10.4 29.5507H11.8261Z" fill="black"/>
<path d="M48.1827 24.4307V28.2511L44.4175 24.4307H42.9653V29.5507H44.0958V25.7129L47.8784 29.5507H49.3045V24.4307H48.1827Z" fill="black"/>
<path d="M37.0781 24.4307L33.8955 29.5507H35.2694L35.8346 28.6349H39.5477L40.1129 29.5507H41.4781L38.2955 24.4307H37.0781ZM38.9651 27.6667H36.4172L37.6955 25.6082L38.9651 27.6667Z" fill="black"/>
<path d="M11.7654 21.5264C14.0436 14.8537 20.3219 10.3703 27.4002 10.3703C34.4784 10.3703 40.7654 14.8537 43.0349 21.5264L43.0523 21.5787H48.0349V20.9768L45.9654 20.7326C44.6871 20.5843 44.4176 20.0174 44.0697 19.3021L43.9828 19.1277C40.9915 12.7428 34.4784 8.6084 27.4002 8.6084C20.3132 8.6084 13.8089 12.7428 10.8176 19.1451L10.7306 19.3196C10.3828 20.0348 10.1132 20.6018 8.83495 20.7501L6.76538 20.9943V21.5961H11.7393L11.7654 21.5264Z" fill="black"/>
<path d="M43.0519 32.412L43.0346 32.4644C40.7563 39.1371 34.478 43.6117 27.3998 43.6117C20.3215 43.6117 14.0346 39.1283 11.765 32.4557L11.7476 32.4033H6.77368V33.0052L8.84325 33.2494C10.1215 33.3977 10.3911 33.9646 10.7389 34.6799L10.8259 34.8543C13.8172 41.2566 20.3302 45.3911 27.4085 45.3911C34.4867 45.3911 40.9998 41.2566 43.9911 34.8631L44.078 34.6886C44.4259 33.9734 44.6954 33.4064 45.9737 33.2581L48.0432 33.0139V32.412H43.0519Z" fill="black"/>
</g>
<defs>
<clipPath id="clip0_34_706">
<rect width="43.8261" height="36.7826" fill="white" transform="translate(5.47827 8.6084)"/>
</clipPath>
</defs>
</svg>
