<svg width="16" height="16" viewBox="0 0 16 16"  xmlns="http://www.w3.org/2000/svg">
<path d="M15.5245 14.2788C15.5245 14.2788 11.8811 19.4788 4.21024 11.8022C-3.50519 4.07077 1.74167 0.476484 1.74167 0.476484C1.906 0.311516 2.10392 0.18387 2.32199 0.102226C2.54005 0.0205817 2.77314 -0.0131463 3.00541 0.00333551C3.23767 0.0198174 3.46366 0.0861226 3.66801 0.197742C3.87236 0.309362 4.05028 0.463679 4.18967 0.650198L5.66624 2.62848C5.90092 2.94173 6.01484 3.32905 5.98713 3.71947C5.95943 4.10988 5.79195 4.47724 5.51538 4.7542L4.21481 6.05706C4.21481 6.05706 4.21481 7.20677 6.51196 9.50734C8.8091 11.8079 9.95767 11.8079 9.95767 11.8079L11.2582 10.5051C11.5346 10.2282 11.9016 10.0605 12.2918 10.0328C12.6819 10.0051 13.069 10.1192 13.3817 10.3542L15.3497 11.8331C15.5349 11.9731 15.6881 12.1511 15.7989 12.3551C15.9098 12.5592 15.9757 12.7846 15.9922 13.0162C16.0088 13.2478 15.9756 13.4803 15.895 13.6981C15.8143 13.9158 15.688 14.1138 15.5245 14.2788V14.2788Z"/>
</svg>
