<svg width="50" height="50" viewBox="0 0 50 50" xmlns="http://www.w3.org/2000/svg">
<path d="M26.4515 42.2108L27.2607 42.9558H27.2607L26.4515 42.2108ZM23.5486 42.2108L22.7393 42.9558L23.5486 42.2108ZM38.4834 20.8333C38.4834 22.2147 37.9716 23.9367 37.0557 25.8743C36.1487 27.7932 34.8902 29.8315 33.4993 31.8195C30.7182 35.7947 27.4727 39.4776 25.6422 41.4657L27.2607 42.9558C29.1189 40.9376 32.4393 37.1723 35.3019 33.0807C36.733 31.0353 38.0658 28.8855 39.0447 26.8145C40.0147 24.7622 40.6834 22.6925 40.6834 20.8333H38.4834ZM24.3578 41.4657C22.5274 39.4776 19.2819 35.7947 16.5007 31.8195C15.1098 29.8315 13.8513 27.7932 12.9443 25.8743C12.0285 23.9367 11.5167 22.2147 11.5167 20.8333H9.31669C9.31669 22.6925 9.98531 24.7622 10.9553 26.8145C11.9342 28.8855 13.2671 31.0353 14.6981 33.0807C17.5607 37.1723 20.8812 40.9376 22.7393 42.9558L24.3578 41.4657ZM11.5167 20.8333C11.5167 13.3867 17.5534 7.35 25 7.35V5.15C16.3384 5.15 9.31669 12.1717 9.31669 20.8333H11.5167ZM25 7.35C32.4467 7.35 38.4834 13.3867 38.4834 20.8333H40.6834C40.6834 12.1717 33.6617 5.15 25 5.15V7.35ZM25.6422 41.4657C25.2882 41.8503 24.7119 41.8503 24.3578 41.4657L22.7393 42.9558C23.9648 44.2869 26.0352 44.2869 27.2607 42.9558L25.6422 41.4657ZM30.15 20.8333C30.15 23.6776 27.8443 25.9833 25 25.9833V28.1833C29.0593 28.1833 32.35 24.8926 32.35 20.8333H30.15ZM25 25.9833C22.1558 25.9833 19.85 23.6776 19.85 20.8333H17.65C17.65 24.8926 20.9407 28.1833 25 28.1833V25.9833ZM19.85 20.8333C19.85 17.9891 22.1558 15.6833 25 15.6833V13.4833C20.9407 13.4833 17.65 16.774 17.65 20.8333H19.85ZM25 15.6833C27.8443 15.6833 30.15 17.9891 30.15 20.8333H32.35C32.35 16.774 29.0593 13.4833 25 13.4833V15.6833Z" />
</svg>
