<svg width="16" height="17" viewBox="0 0 16 17" fill="none" xmlns="http://www.w3.org/2000/svg">
<path d="M7.33335 9.55752V1.83366C7.33335 1.46547 7.63183 1.16699 8.00002 1.16699C8.36821 1.16699 8.66669 1.46547 8.66669 1.83366V9.55752L10.8619 7.36225C11.1223 7.1019 11.5444 7.1019 11.8048 7.36225C12.0651 7.6226 12.0651 8.04471 11.8048 8.30506L8.47142 11.6384C8.21107 11.8987 7.78896 11.8987 7.52862 11.6384L4.19528 8.30506C3.93493 8.04471 3.93493 7.6226 4.19528 7.36225C4.45563 7.1019 4.87774 7.1019 5.13809 7.36225L7.33335 9.55752Z" fill="#A50034"/>
<path d="M1.33335 10.5003C1.70154 10.5003 2.00002 10.7988 2.00002 11.167V13.8337C2.00002 14.2018 2.2985 14.5003 2.66669 14.5003H13.3334C13.7015 14.5003 14 14.2018 14 13.8337V11.167C14 10.7988 14.2985 10.5003 14.6667 10.5003C15.0349 10.5003 15.3334 10.7988 15.3334 11.167V13.8337C15.3334 14.9382 14.4379 15.8337 13.3334 15.8337H2.66669C1.56212 15.8337 0.666687 14.9382 0.666687 13.8337V11.167C0.666687 10.7988 0.965164 10.5003 1.33335 10.5003Z" fill="#A50034"/>
</svg>
