<svg width="60" height="60" viewBox="0 0 60 60" fill="none" xmlns="http://www.w3.org/2000/svg">
<path d="M29.9659 52.6934C22.7367 52.6934 15.4848 52.3909 8.25484 51.7845C7.04005 51.6736 5.91031 51.1136 5.0866 50.2138C4.2629 49.3141 3.80449 48.1394 3.80106 46.9196V38.9493C3.77777 37.5164 4.07877 36.0968 4.68154 34.7966C5.28431 33.4964 6.17325 32.3494 7.28187 31.4412L3.56755 30.5031C3.20489 30.412 2.86647 30.2429 2.5759 30.0076C2.28533 29.7723 2.0496 29.4764 1.88517 29.1406C1.72073 28.8047 1.63155 28.4371 1.62384 28.0632C1.61613 27.6894 1.69007 27.3184 1.84052 26.9761C2.18539 26.2016 2.74717 25.5436 3.45797 25.0816C4.16877 24.6196 4.99816 24.3733 5.84592 24.3726H9.44511C9.94987 24.4293 10.4355 24.5984 10.8663 24.8675C11.297 25.1367 11.662 25.4989 11.9343 25.9277L14.5946 21.572C15.3676 20.3177 16.4473 19.2809 17.732 18.5595C19.0167 17.838 20.4639 17.4555 21.9373 17.4482H38.0635C39.5366 17.4556 40.9837 17.838 42.2682 18.5593C43.5527 19.2806 44.6323 20.3172 45.4054 21.5712L48.0648 25.9261C48.3287 25.5042 48.683 25.1462 49.1022 24.878C49.5213 24.6097 49.9947 24.4379 50.4884 24.375H54.154C55.0005 24.3753 55.8289 24.6204 56.5393 25.0808C57.2496 25.5411 57.8117 26.1971 58.1578 26.9696C58.3006 27.2982 58.3756 27.6523 58.3784 28.0107C58.3799 28.5842 58.1891 29.1417 57.8362 29.5939C57.4834 30.0461 56.9891 30.3668 56.4324 30.5047L52.6913 31.4477L52.7513 31.5004C53.7826 32.4386 54.6032 33.5849 55.1588 34.8636C55.7143 36.1424 55.9923 37.5244 55.9743 38.9185V46.9139C55.9708 48.134 55.5122 49.3089 54.6882 50.2087C53.8641 51.1084 52.734 51.6683 51.5189 51.7788C44.3959 52.3909 37.1919 52.6934 29.9659 52.6934ZM9.36646 25.9901L5.8443 25.9942C5.31119 25.9952 4.78973 26.1503 4.34266 26.4407C3.89559 26.7311 3.54196 27.1445 3.3243 27.6312C3.26937 27.7582 3.2428 27.8957 3.24644 28.0341C3.25008 28.1724 3.28384 28.3083 3.34538 28.4323C3.40469 28.5558 3.49076 28.6646 3.59735 28.7507C3.70394 28.8368 3.82837 28.8981 3.9616 28.9301L9.55619 30.3377C9.72282 30.3792 9.87197 30.4725 9.98216 30.6042C10.0924 30.7358 10.1579 30.8991 10.1694 31.0704C10.1808 31.2418 10.1376 31.4123 10.0459 31.5575C9.9542 31.7026 9.81879 31.815 9.65917 31.8782C9.33932 32.008 9.03565 32.1745 8.7543 32.3745C7.70158 33.1118 6.84699 34.0974 6.26627 35.244C5.68555 36.3906 5.39663 37.6628 5.42511 38.9477V46.918C5.42568 47.7322 5.73014 48.5169 6.27888 49.1184C6.82762 49.7199 7.58112 50.095 8.39187 50.1701C22.6979 51.375 37.0799 51.375 51.3859 50.1701C52.197 50.0954 52.951 49.7205 53.5002 49.119C54.0494 48.5174 54.3543 47.7325 54.3551 46.918V38.9185C54.3733 37.7538 54.1442 36.5985 53.6829 35.5289C53.2217 34.4593 52.5389 33.4997 51.6794 32.7134C51.3157 32.3604 50.8862 32.0822 50.4154 31.8945C50.2472 31.8412 50.101 31.7346 49.9989 31.5908C49.8967 31.4469 49.8443 31.2737 49.8495 31.0974C49.8548 30.9211 49.9174 30.7513 50.0278 30.6137C50.1383 30.4762 50.2906 30.3784 50.4616 30.3353L56.0416 28.9285C56.2451 28.8754 56.4255 28.7567 56.5547 28.5908C56.684 28.4249 56.755 28.221 56.7567 28.0107C56.755 27.8746 56.7257 27.7403 56.6708 27.6158C56.4518 27.1327 56.0983 26.7228 55.6526 26.4352C55.2069 26.1477 54.6877 25.9945 54.1573 25.9942H50.5557C50.4965 26.0055 49.29 26.1904 49.0548 27.8972C49.032 28.0629 48.9585 28.2175 48.8444 28.3398C48.7302 28.4621 48.5811 28.5461 48.4173 28.5803C48.2536 28.6145 48.0832 28.5972 47.9297 28.5308C47.7762 28.4644 47.6469 28.3521 47.5597 28.2093L44.027 22.4177C43.3996 21.3996 42.5233 20.558 41.4807 19.9723C40.438 19.3866 39.2634 19.076 38.0675 19.0699H21.9357C20.7397 19.0759 19.565 19.3866 18.5223 19.9725C17.4796 20.5583 16.6034 21.4002 15.9762 22.4185L12.4394 28.2093C12.3522 28.3521 12.223 28.4644 12.0694 28.5308C11.9159 28.5972 11.7456 28.6145 11.5818 28.5803C11.4181 28.5461 11.2689 28.4621 11.1548 28.3398C11.0406 28.2175 10.9671 28.0629 10.9443 27.8972C10.7092 26.1888 9.50268 26.0055 9.36646 25.9901Z" fill="#4D4D4F"/>
<path d="M43.3662 32.2246H16.6338C16.3677 32.2248 16.1063 32.1553 15.8754 32.023C15.6446 31.8908 15.4524 31.7004 15.318 31.4708C15.1836 31.2412 15.1117 30.9804 15.1094 30.7143C15.1071 30.4483 15.1745 30.1863 15.3049 29.9544L18.6292 24.0314C18.9988 23.374 19.5366 22.8267 20.1875 22.4457C20.8383 22.0647 21.5788 21.8637 22.333 21.8633H37.6646C38.4188 21.8637 39.1593 22.0647 39.8101 22.4457C40.461 22.8267 40.9988 23.374 41.3684 24.0314L44.6927 29.9503C44.8231 30.1822 44.8905 30.4442 44.8882 30.7103C44.8859 30.9763 44.814 31.2371 44.6796 31.4667C44.5452 31.6963 44.353 31.8867 44.1222 32.019C43.8913 32.1513 43.6299 32.2208 43.3638 32.2206L43.3662 32.2246ZM16.8016 30.603H43.1984L39.9552 24.8276C39.7264 24.4214 39.3939 24.0832 38.9916 23.8477C38.5893 23.6122 38.1316 23.4879 37.6654 23.4873H22.3354C21.8692 23.4877 21.4115 23.612 21.0091 23.8475C20.6068 24.083 20.2743 24.4213 20.0457 24.8276L16.8016 30.603Z" fill="#4D4D4F"/>
<path d="M36.2546 44.9909H23.7851C23.2926 44.9931 22.8126 44.8351 22.4177 44.5407C22.0228 44.2463 21.7344 43.8314 21.596 43.3587L21.1427 41.8376C21.0393 41.4909 21.0183 41.1248 21.0813 40.7686C21.1444 40.4123 21.2898 40.0757 21.506 39.7856C21.7222 39.4955 22.0031 39.2599 22.3265 39.0975C22.6498 38.9352 23.0066 38.8506 23.3684 38.8506H36.6714C37.0331 38.8508 37.3898 38.9355 37.713 39.0979C38.0363 39.2603 38.3172 39.4959 38.5333 39.7859C38.7494 40.076 38.8949 40.4125 38.958 40.7687C39.0212 41.1249 39.0003 41.4909 38.897 41.8376L38.4446 43.3546C38.3028 43.8259 38.0135 44.2391 37.6193 44.5337C37.225 44.8282 36.7467 44.9885 36.2546 44.9909ZM23.3684 40.4754C23.2593 40.4758 23.1517 40.5015 23.0543 40.5506C22.9569 40.5997 22.8722 40.6708 22.807 40.7583C22.7417 40.8457 22.6978 40.9472 22.6786 41.0546C22.6593 41.162 22.6654 41.2724 22.6962 41.3771V41.3771L23.1487 42.8917C23.1891 43.029 23.273 43.1495 23.3877 43.235C23.5025 43.3206 23.642 43.3665 23.7851 43.366H36.2546C36.3976 43.3655 36.5367 43.3192 36.6514 43.2338C36.7661 43.1485 36.8504 43.0285 36.8919 42.8917L37.3443 41.3738C37.3752 41.2692 37.3812 41.1588 37.362 41.0514C37.3428 40.944 37.2988 40.8425 37.2336 40.755C37.1684 40.6675 37.0837 40.5964 36.9863 40.5474C36.8888 40.4983 36.7813 40.4725 36.6722 40.4722L23.3684 40.4754Z" fill="#4D4D4F"/>
<path d="M16.9459 44.7901C16.7897 44.7898 16.6341 44.7694 16.483 44.7293L10.7262 43.1523C10.2911 43.0383 9.88306 42.8385 9.52623 42.5646C9.1694 42.2907 8.87094 41.9482 8.64839 41.5573C8.42584 41.1663 8.2837 40.7348 8.23032 40.2882C8.17695 39.8415 8.21341 39.3887 8.33757 38.9563C8.55354 38.2051 9.00717 37.544 9.63048 37.0723C10.2538 36.6006 11.0132 36.3436 11.7949 36.3398C12.0809 36.3433 12.3657 36.3789 12.6438 36.4461L13.1303 36.5863C14.3944 36.9075 15.5511 37.557 16.4833 38.4691C17.4155 39.3813 18.0901 40.5236 18.4387 41.7804L18.6495 42.5377C18.7221 42.8008 18.7333 43.0772 18.682 43.3453C18.6307 43.6135 18.5184 43.8662 18.3538 44.084C18.1892 44.3018 17.9766 44.4787 17.7327 44.6012C17.4887 44.7236 17.2198 44.7883 16.9468 44.7901H16.9459ZM11.7924 37.9615C11.3627 37.9647 10.9456 38.1072 10.6037 38.3676C10.2617 38.6279 10.0134 38.9921 9.89595 39.4055C9.83101 39.6302 9.81175 39.8657 9.8393 40.098C9.86685 40.3303 9.94066 40.5547 10.0564 40.758C10.1721 40.9613 10.3273 41.1394 10.513 41.2817C10.6986 41.424 10.9109 41.5277 11.1373 41.5866H11.1478L16.9046 43.1628C16.9304 43.1686 16.9573 43.1676 16.9826 43.1599C17.0079 43.1523 17.0308 43.1383 17.0491 43.1192C17.0675 43.1002 17.0806 43.0767 17.0872 43.0511C17.0938 43.0255 17.0938 42.9987 17.087 42.9731L16.8762 42.215C16.6021 41.2304 16.0722 40.336 15.3403 39.6226C14.6085 38.9092 13.7007 38.4024 12.7095 38.1536L12.2408 38.0182C12.0942 37.9843 11.9445 37.9652 11.7941 37.9615H11.7924Z" fill="#4D4D4F"/>
<path d="M43.054 44.7893C42.781 44.7877 42.512 44.7233 42.268 44.601C42.0239 44.4787 41.8112 44.3018 41.6466 44.084C41.4819 43.8663 41.3696 43.6135 41.3184 43.3453C41.2672 43.0772 41.2785 42.8008 41.3513 42.5377L41.5621 41.7796C41.9135 40.5186 42.5924 39.3731 43.5299 38.4595C44.4674 37.5459 45.6301 36.8968 46.8997 36.5782L47.31 36.459C47.6035 36.3845 47.9047 36.3445 48.2076 36.3398C48.9895 36.3438 49.7491 36.601 50.3726 37.0731C50.996 37.5451 51.4497 38.2064 51.6657 38.9579C51.7896 39.3903 51.8258 39.843 51.7722 40.2895C51.7187 40.736 51.5764 41.1673 51.3538 41.5581C51.1312 41.9488 50.8327 42.2912 50.476 42.5649C50.1192 42.8387 49.7113 43.0384 49.2762 43.1523L43.5235 44.7277C43.3703 44.7683 43.2125 44.789 43.054 44.7893V44.7893ZM48.2076 37.9615C48.0405 37.966 47.8744 37.9886 47.7121 38.0288L47.3213 38.1439C46.3244 38.3902 45.4107 38.8967 44.6735 39.6117C43.9363 40.3266 43.4021 41.2244 43.1254 42.2134L42.9146 42.9715C42.9061 42.9976 42.9053 43.0256 42.9122 43.0521C42.9191 43.0787 42.9334 43.1027 42.9535 43.1215C42.9718 43.1416 42.9955 43.1561 43.0218 43.1631C43.0482 43.1702 43.0759 43.1695 43.1019 43.1612L48.8538 41.5874H48.8643C49.091 41.5288 49.3036 41.4252 49.4896 41.283C49.6756 41.1407 49.8312 40.9626 49.9471 40.7592C50.0631 40.5558 50.1371 40.3312 50.1647 40.0987C50.1924 39.8662 50.1731 39.6305 50.1081 39.4055C49.9902 38.9913 49.741 38.6265 49.398 38.3661C49.055 38.1056 48.6366 37.9636 48.2059 37.9615H48.2076Z" fill="#4D4D4F"/>
<path d="M51.4865 57.2295H46.5576C45.91 57.2286 45.2892 56.971 44.8314 56.513C44.3735 56.055 44.116 55.4341 44.1154 54.7865V51.4509C44.1154 51.2358 44.2008 51.0296 44.3529 50.8775C44.5049 50.7255 44.7112 50.64 44.9262 50.64C45.1413 50.64 45.3475 50.7255 45.4995 50.8775C45.6516 51.0296 45.737 51.2358 45.737 51.4509V54.7865C45.7372 55.0042 45.8237 55.2128 45.9775 55.3668C46.1314 55.5207 46.3399 55.6074 46.5576 55.6079H51.4865C51.7042 55.6074 51.9129 55.5208 52.0668 55.3668C52.2207 55.2129 52.3074 55.0042 52.3078 54.7865V50.4544C52.3078 50.2393 52.3933 50.0331 52.5453 49.881C52.6974 49.729 52.9036 49.6436 53.1187 49.6436C53.3337 49.6436 53.5399 49.729 53.692 49.881C53.844 50.0331 53.9295 50.2393 53.9295 50.4544V54.7865C53.9286 55.4342 53.6709 56.0551 53.213 56.513C52.755 56.971 52.1341 57.2286 51.4865 57.2295V57.2295Z" fill="#4D4D4F"/>
<path d="M13.4424 57.2295H8.51351C7.8653 57.2295 7.24358 56.9722 6.78492 56.5142C6.32626 56.0561 6.06815 55.4347 6.0673 54.7865V50.4544C6.0673 50.2393 6.15272 50.0331 6.30478 49.881C6.45683 49.729 6.66307 49.6436 6.87811 49.6436C7.09315 49.6436 7.29938 49.729 7.45144 49.881C7.60349 50.0331 7.68892 50.2393 7.68892 50.4544V54.7865C7.68913 54.8946 7.71063 55.0016 7.75218 55.1013C7.79374 55.2011 7.85454 55.2917 7.93111 55.368C8.00768 55.4442 8.09852 55.5047 8.19845 55.5459C8.29838 55.587 8.40544 55.6081 8.51351 55.6079H13.4457C13.6633 55.6074 13.8719 55.5207 14.0257 55.3668C14.1795 55.2128 14.266 55.0042 14.2662 54.7865V51.4509C14.2662 51.2358 14.3516 51.0296 14.5037 50.8775C14.6558 50.7255 14.862 50.64 15.077 50.64C15.2921 50.64 15.4983 50.7255 15.6504 50.8775C15.8024 51.0296 15.8878 51.2358 15.8878 51.4509V54.7865C15.8872 55.4347 15.6293 56.056 15.1707 56.5141C14.7122 56.9722 14.0906 57.2295 13.4424 57.2295V57.2295Z" fill="#4D4D4F"/>
<path d="M41.8127 14.8164C40.7755 14.8217 39.7575 14.5369 38.8737 13.9942C37.9898 13.4515 37.2753 12.6724 36.8108 11.745H23.1892C22.7013 12.706 21.9471 13.5062 21.0166 14.05C20.0862 14.5938 19.0188 14.8582 17.9421 14.8116C16.8653 14.765 15.8248 14.4094 14.9448 13.7872C14.0648 13.1651 13.3825 12.3027 12.9795 11.3031C12.9295 11.18 12.9106 11.0465 12.9243 10.9143C12.9381 10.7822 12.9841 10.6554 13.0583 10.5452C13.1326 10.435 13.2328 10.3448 13.3501 10.2824C13.4674 10.22 13.5982 10.1874 13.7311 10.1875H15.99L16.946 8.79205L15.9925 7.39583H13.7335C13.6007 7.39589 13.4698 7.36328 13.3525 7.30089C13.2352 7.2385 13.135 7.14824 13.0608 7.03805C12.9865 6.92785 12.9405 6.8011 12.9268 6.66894C12.913 6.53679 12.932 6.40328 12.9819 6.28016C13.3863 5.28206 14.0692 4.42133 14.9492 3.80059C15.8292 3.17986 16.8691 2.82532 17.945 2.77925C19.0209 2.73319 20.0874 2.99754 21.0172 3.54079C21.9471 4.08403 22.701 4.88325 23.1892 5.84313H36.8108C37.2984 4.88221 38.0522 4.08198 38.9824 3.53803C39.9125 2.99408 40.9796 2.72942 42.0561 2.77568C43.1326 2.82194 44.1731 3.17716 45.0531 3.79889C45.9332 4.42062 46.6156 5.28258 47.0189 6.28178C47.0686 6.40488 47.0872 6.53829 47.0733 6.67029C47.0593 6.80229 47.0132 6.92884 46.9389 7.03884C46.8646 7.14883 46.7644 7.23891 46.6472 7.30115C46.53 7.3634 46.3992 7.39591 46.2665 7.39583H44.0076L43.0541 8.79205L44.0043 10.1875H46.2633C46.396 10.1874 46.5267 10.2199 46.644 10.2821C46.7612 10.3444 46.8614 10.4345 46.9356 10.5445C47.0099 10.6545 47.0561 10.781 47.07 10.913C47.084 11.045 47.0653 11.1784 47.0157 11.3015C46.6006 12.3414 45.8826 13.2325 44.9548 13.8592C44.0271 14.486 42.9324 14.8194 41.8127 14.8164ZM22.6654 10.1234H37.3411C37.5048 10.1234 37.6648 10.173 37.7998 10.2656C37.9348 10.3582 38.0386 10.4896 38.0976 10.6423C38.3463 11.2845 38.757 11.8513 39.2898 12.2877C39.8225 12.7241 40.4591 13.0151 41.1376 13.1326C41.8162 13.2501 42.5136 13.1899 43.162 12.958C43.8104 12.726 44.3877 12.3302 44.8379 11.8091H43.5787C43.4466 11.809 43.3166 11.7767 43.1999 11.715C43.0832 11.6532 42.9833 11.5639 42.9089 11.4548L41.4057 9.24854C41.314 9.11396 41.265 8.95489 41.265 8.79205C41.265 8.62921 41.314 8.47014 41.4057 8.33556L42.9089 6.12854C42.9833 6.01941 43.0832 5.93008 43.1999 5.86833C43.3166 5.80658 43.4466 5.77427 43.5787 5.77421H44.8379C44.3874 5.25278 43.8096 4.85686 43.1607 4.62499C42.5119 4.39313 41.814 4.33322 41.1351 4.45111C40.4562 4.56899 39.8194 4.86065 39.2867 5.29769C38.7539 5.73473 38.3435 6.30226 38.0952 6.94502C38.0363 7.09794 37.9326 7.22945 37.7975 7.32223C37.6625 7.41501 37.5025 7.4647 37.3387 7.46475H22.663C22.4992 7.46476 22.3393 7.41519 22.2043 7.32257C22.0693 7.22994 21.9655 7.0986 21.9065 6.94583C21.6582 6.30284 21.2477 5.7351 20.7149 5.29787C20.1821 4.86064 19.5451 4.56884 18.866 4.45087C18.1869 4.3329 17.4889 4.39278 16.8398 4.62469C16.1907 4.8566 15.6128 5.25262 15.1622 5.77421H16.4181C16.5502 5.77427 16.6802 5.80658 16.7969 5.86833C16.9136 5.93008 17.0135 6.01941 17.0879 6.12854L18.5911 8.33556C18.6828 8.47014 18.7318 8.62921 18.7318 8.79205C18.7318 8.95489 18.6828 9.11396 18.5911 9.24854L17.0879 11.4548C17.0135 11.5639 16.9136 11.6532 16.7969 11.715C16.6802 11.7767 16.5502 11.809 16.4181 11.8091H15.1622C15.6123 12.3314 16.1901 12.7282 16.8391 12.9607C17.4882 13.1933 18.1865 13.2537 18.8659 13.1362C19.5453 13.0186 20.1826 12.727 20.7158 12.2898C21.2489 11.8526 21.6597 11.2847 21.9081 10.6415C21.9673 10.4888 22.0713 10.3575 22.2064 10.265C22.3416 10.1725 22.5016 10.1232 22.6654 10.1234Z" fill="#4D4D4F"/>
</svg>
