<svg width="60" height="60" viewBox="0 0 60 60" fill="none" xmlns="http://www.w3.org/2000/svg">
<path d="M57.5676 54.7297H45.4054C45.1904 54.7297 44.9841 54.6442 44.8321 54.4922C44.68 54.3401 44.5946 54.1339 44.5946 53.9188V51.2837C44.5957 50.4776 44.9164 49.7049 45.4863 49.1349C46.0563 48.5649 46.8291 48.2442 47.6351 48.2432H55.3379C56.1439 48.2442 56.9167 48.5649 57.4867 49.1349C58.0566 49.7049 58.3773 50.4776 58.3784 51.2837V53.9188C58.3784 54.1339 58.293 54.3401 58.1409 54.4922C57.9889 54.6442 57.7826 54.7297 57.5676 54.7297ZM46.2162 53.108H56.7568V51.2837C56.7563 50.9075 56.6067 50.5469 56.3407 50.2809C56.0747 50.0148 55.714 49.8652 55.3379 49.8648H47.6351C47.259 49.8652 46.8983 50.0148 46.6323 50.2809C46.3663 50.5469 46.2167 50.9075 46.2162 51.2837V53.108Z" fill="#4D4D4F"/>
<path d="M53.919 49.8651H49.0541C48.8391 49.8651 48.6328 49.7797 48.4808 49.6276C48.3287 49.4756 48.2433 49.2693 48.2433 49.0543V8.51375C48.2433 7.65359 48.585 6.82866 49.1932 6.22043C49.8014 5.61221 50.6264 5.27051 51.4865 5.27051C52.3467 5.27051 53.1716 5.61221 53.7799 6.22043C54.3881 6.82866 54.7298 7.65359 54.7298 8.51375V49.0543C54.7298 49.2693 54.6444 49.4756 54.4923 49.6276C54.3402 49.7797 54.134 49.8651 53.919 49.8651ZM49.8649 48.2435H53.1082V8.51375C53.1082 8.08367 52.9373 7.67121 52.6332 7.36709C52.3291 7.06298 51.9166 6.89213 51.4865 6.89213C51.0565 6.89213 50.644 7.06298 50.3399 7.36709C50.0358 7.67121 49.8649 8.08367 49.8649 8.51375V48.2435Z" fill="#4D4D4F"/>
<path d="M14.5946 54.7297H2.43242C2.21738 54.7297 2.01115 54.6442 1.85909 54.4922C1.70704 54.3401 1.62161 54.1339 1.62161 53.9188V51.2837C1.62269 50.4776 1.94337 49.7049 2.51335 49.1349C3.08333 48.5649 3.85608 48.2442 4.66215 48.2432H12.3649C13.1709 48.2442 13.9437 48.5649 14.5137 49.1349C15.0836 49.7049 15.4043 50.4776 15.4054 51.2837V53.9188C15.4054 54.1339 15.32 54.3401 15.1679 54.4922C15.0159 54.6442 14.8096 54.7297 14.5946 54.7297ZM3.24323 53.108H13.7838V51.2837C13.7833 50.9075 13.6337 50.5469 13.3677 50.2809C13.1017 50.0148 12.741 49.8652 12.3649 49.8648H4.66215C4.28596 49.8652 3.92531 50.0148 3.6593 50.2809C3.39329 50.5469 3.24366 50.9075 3.24323 51.2837V53.108Z" fill="#4D4D4F"/>
<path d="M10.9459 49.8651H6.08107C5.86603 49.8651 5.6598 49.7797 5.50774 49.6276C5.35569 49.4756 5.27026 49.2693 5.27026 49.0543V8.51375C5.27026 7.65359 5.61196 6.82866 6.22019 6.22043C6.82841 5.61221 7.65334 5.27051 8.51351 5.27051C9.37367 5.27051 10.1986 5.61221 10.8068 6.22043C11.415 6.82866 11.7567 7.65359 11.7567 8.51375V49.0543C11.7567 49.2693 11.6713 49.4756 11.5193 49.6276C11.3672 49.7797 11.161 49.8651 10.9459 49.8651ZM6.89188 48.2435H10.1351V8.51375C10.1351 8.08367 9.96428 7.67121 9.66016 7.36709C9.35605 7.06298 8.94359 6.89213 8.51351 6.89213C8.08342 6.89213 7.67096 7.06298 7.36685 7.36709C7.06273 7.67121 6.89188 8.08367 6.89188 8.51375V48.2435Z" fill="#4D4D4F"/>
<path d="M49.0541 40.5406H33.2432C33.0282 40.5406 32.822 40.4551 32.6699 40.3031C32.5179 40.151 32.4324 39.9448 32.4324 39.7298C32.4324 39.5147 32.5179 39.3085 32.6699 39.1564C32.822 39.0044 33.0282 38.9189 33.2432 38.9189H49.0541C49.2691 38.9189 49.4753 39.0044 49.6274 39.1564C49.7795 39.3085 49.8649 39.5147 49.8649 39.7298C49.8649 39.9448 49.7795 40.151 49.6274 40.3031C49.4753 40.4551 49.2691 40.5406 49.0541 40.5406Z" fill="#4D4D4F"/>
<path d="M24.8311 40.5406H10.9459C10.7309 40.5406 10.5247 40.4551 10.3726 40.3031C10.2206 40.151 10.1351 39.9448 10.1351 39.7298C10.1351 39.5147 10.2206 39.3085 10.3726 39.1564C10.5247 39.0044 10.7309 38.9189 10.9459 38.9189H24.8311C25.0461 38.9189 25.2523 39.0044 25.4044 39.1564C25.5565 39.3085 25.6419 39.5147 25.6419 39.7298C25.6419 39.9448 25.5565 40.151 25.4044 40.3031C25.2523 40.4551 25.0461 40.5406 24.8311 40.5406Z" fill="#4D4D4F"/>
<path d="M40.4935 40.5402H36.78C36.3837 40.5396 36.0039 40.3818 35.7237 40.1015C35.4436 39.8213 35.2861 39.4413 35.2856 39.0451V36.1878C35.2856 35.9727 35.3711 35.7665 35.5231 35.6144C35.6752 35.4624 35.8814 35.377 36.0965 35.377C36.3115 35.377 36.5177 35.4624 36.6698 35.6144C36.8218 35.7665 36.9073 35.9727 36.9073 36.1878V38.9186H40.367V36.1878C40.367 35.9727 40.4524 35.7665 40.6045 35.6144C40.7565 35.4624 40.9628 35.377 41.1778 35.377C41.3928 35.377 41.5991 35.4624 41.7511 35.6144C41.9032 35.7665 41.9886 35.9727 41.9886 36.1878V39.0451C41.9882 39.4415 41.8305 39.8215 41.5502 40.1018C41.2699 40.3821 40.8899 40.5398 40.4935 40.5402V40.5402Z" fill="#4D4D4F"/>
<path d="M23.1235 40.5402H19.4092C19.0137 40.5385 18.6349 40.3802 18.3556 40.1001C18.0764 39.8199 17.9194 39.4406 17.9189 39.0451V36.1878C17.9189 35.9727 18.0044 35.7665 18.1564 35.6144C18.3085 35.4624 18.5147 35.377 18.7298 35.377C18.9448 35.377 19.151 35.4624 19.3031 35.6144C19.4551 35.7665 19.5406 35.9727 19.5406 36.1878V38.9186H23.0003V36.1878C23.0003 35.9727 23.0857 35.7665 23.2378 35.6144C23.3898 35.4624 23.5961 35.377 23.8111 35.377C24.0262 35.377 24.2324 35.4624 24.3844 35.6144C24.5365 35.7665 24.6219 35.9727 24.6219 36.1878V39.0451C24.6217 39.2416 24.5828 39.4362 24.5074 39.6177C24.432 39.7992 24.3215 39.9641 24.1824 40.1029C24.0432 40.2418 23.8781 40.3519 23.6964 40.4269C23.5148 40.5019 23.3201 40.5404 23.1235 40.5402Z" fill="#4D4D4F"/>
<path d="M42.8018 36.9991H17.0992C16.5338 36.9978 15.992 36.7725 15.5924 36.3725C15.1929 35.9725 14.9682 35.4304 14.9675 34.865V30.8029C14.9692 29.3756 15.537 28.0073 16.5463 26.9982C17.5557 25.989 18.924 25.4214 20.3513 25.4199H39.5529C40.9801 25.4216 42.3482 25.9893 43.3574 26.9985C44.3665 28.0076 44.9342 29.3758 44.9359 30.8029V34.865C44.9353 35.4308 44.7102 35.9733 44.3101 36.3733C43.9101 36.7734 43.3676 36.9985 42.8018 36.9991ZM20.3513 27.0415C19.3539 27.0424 18.3976 27.4389 17.6923 28.1441C16.987 28.8493 16.5902 29.8055 16.5892 30.8029V34.865C16.5892 35.0009 16.6431 35.1313 16.7392 35.2274C16.8353 35.3235 16.9657 35.3775 17.1016 35.3775H42.8043C42.9398 35.3768 43.0695 35.3226 43.165 35.2265C43.2606 35.1305 43.3143 35.0005 43.3143 34.865V30.8029C43.3132 29.8056 42.9166 28.8496 42.2114 28.1444C41.5063 27.4392 40.5502 27.0426 39.5529 27.0415H20.3513Z" fill="#4D4D4F"/>
<path d="M37.9646 33.9495C37.4583 33.9497 36.9633 33.7997 36.5423 33.5185C36.1212 33.2374 35.793 32.8376 35.5991 32.3699C35.4053 31.9022 35.3545 31.3875 35.4531 30.8909C35.5518 30.3943 35.7955 29.9382 36.1535 29.5801C36.5114 29.222 36.9675 28.9782 37.4641 28.8793C37.9607 28.7805 38.4754 28.8311 38.9432 29.0249C39.4109 29.2186 39.8108 29.5467 40.0921 29.9676C40.3734 30.3886 40.5235 30.8835 40.5235 31.3898C40.5229 32.0683 40.2531 32.7189 39.7734 33.1988C39.2936 33.6787 38.6431 33.9487 37.9646 33.9495V33.9495ZM37.9646 30.4517C37.779 30.4515 37.5976 30.5064 37.4432 30.6094C37.2888 30.7124 37.1684 30.8588 37.0973 31.0302C37.0262 31.2016 37.0075 31.3903 37.0436 31.5723C37.0797 31.7544 37.169 31.9216 37.3002 32.0529C37.4313 32.1841 37.5985 32.2736 37.7805 32.3098C37.9625 32.3461 38.1511 32.3276 38.3226 32.2566C38.4941 32.1856 38.6406 32.0654 38.7437 31.9111C38.8468 31.7568 38.9019 31.5754 38.9019 31.3898C38.9015 31.1413 38.8026 30.903 38.6269 30.7272C38.4513 30.5514 38.2131 30.4523 37.9646 30.4517V30.4517Z" fill="#4D4D4F"/>
<path d="M21.9389 33.9495C21.4326 33.9495 20.9377 33.7994 20.5168 33.5181C20.0959 33.2369 19.7678 32.8371 19.574 32.3694C19.3803 31.9016 19.3296 31.387 19.4284 30.8904C19.5271 30.3939 19.7709 29.9378 20.1289 29.5798C20.4869 29.2218 20.943 28.978 21.4395 28.8793C21.9361 28.7805 22.4508 28.8312 22.9185 29.0249C23.3862 29.2187 23.786 29.5468 24.0673 29.9677C24.3485 30.3886 24.4986 30.8835 24.4986 31.3898C24.498 32.0685 24.2281 32.7192 23.7482 33.1991C23.2683 33.679 22.6176 33.9489 21.9389 33.9495V33.9495ZM21.9389 30.4517C21.7534 30.4517 21.572 30.5067 21.4177 30.6098C21.2635 30.7129 21.1432 30.8594 21.0722 31.0308C21.0012 31.2022 20.9826 31.3908 21.0188 31.5728C21.055 31.7548 21.1444 31.9219 21.2756 32.0531C21.4068 32.1843 21.5739 32.2737 21.7559 32.3099C21.9379 32.3461 22.1265 32.3275 22.2979 32.2565C22.4693 32.1855 22.6158 32.0653 22.7189 31.911C22.822 31.7567 22.877 31.5753 22.877 31.3898C22.8768 31.1411 22.7779 30.9026 22.602 30.7267C22.4261 30.5508 22.1877 30.4519 21.9389 30.4517V30.4517Z" fill="#4D4D4F"/>
<path d="M18.8351 27.3136C18.7056 27.3136 18.5781 27.2826 18.463 27.2232C18.348 27.1637 18.2488 27.0777 18.1739 26.9721C18.099 26.8665 18.0504 26.7445 18.0323 26.6163C18.0142 26.4881 18.027 26.3574 18.0697 26.2352L19.9021 20.9714C19.9144 20.9364 19.929 20.9023 19.9459 20.8693C20.2842 20.2004 20.8016 19.6386 21.4403 19.2465C22.0791 18.8544 22.8142 18.6473 23.5638 18.6484H36.3381C37.0875 18.6475 37.8224 18.8546 38.461 19.2467C39.0997 19.6388 39.6169 20.2005 39.9551 20.8693C39.9718 20.9021 39.9865 20.9359 39.9989 20.9706L41.8378 26.2344C41.9088 26.4375 41.8961 26.6605 41.8027 26.8543C41.7093 27.0481 41.5427 27.1968 41.3396 27.2678C41.1365 27.3387 40.9135 27.3261 40.7197 27.2327C40.5259 27.1392 40.3772 26.9726 40.3062 26.7695L38.4851 21.5617C38.2781 21.1719 37.9689 20.8457 37.5907 20.6182C37.2125 20.3906 36.7795 20.2703 36.3381 20.2701H23.5638C23.1219 20.2696 22.6883 20.3896 22.3094 20.617C21.9306 20.8444 21.6209 21.1707 21.4135 21.5609L19.6013 26.7687C19.5461 26.9279 19.4426 27.0659 19.3053 27.1635C19.1679 27.2612 19.0036 27.3136 18.8351 27.3136V27.3136Z" fill="#4D4D4F"/>
<path d="M41.2232 27.3568C41.0082 27.3669 40.7979 27.2911 40.6387 27.1462C40.4795 27.0013 40.3844 26.7991 40.3743 26.5841C40.3642 26.369 40.4399 26.1588 40.5848 25.9996C40.7298 25.8404 40.932 25.7453 41.147 25.7351C41.6833 25.6659 42.191 25.4534 42.6166 25.1199C43.0422 24.7864 43.3701 24.3444 43.5657 23.8403C43.646 23.6407 43.8023 23.4812 44.0002 23.3969C44.1981 23.3126 44.4214 23.3104 44.6209 23.3907C44.8205 23.471 44.98 23.6273 45.0643 23.8252C45.1486 24.0231 45.1508 24.2464 45.0705 24.446C44.762 25.2246 44.2489 25.9054 43.5854 26.4165C42.9219 26.9275 42.1326 27.2499 41.3011 27.3495C41.2743 27.356 41.2484 27.3568 41.2232 27.3568Z" fill="#4D4D4F"/>
<path d="M18.7768 27.3563C18.7516 27.3563 18.7257 27.3563 18.6957 27.3563C17.8641 27.2567 17.0749 26.9344 16.4114 26.4233C15.7479 25.9122 15.2347 25.2314 14.9262 24.4528C14.8459 24.2532 14.8481 24.0299 14.9325 23.832C15.0168 23.6341 15.1762 23.4778 15.3758 23.3975C15.5754 23.3172 15.7987 23.3195 15.9966 23.4038C16.1945 23.4881 16.3508 23.6476 16.4311 23.8471C16.6266 24.3512 16.9545 24.7933 17.3801 25.1267C17.8058 25.4602 18.3135 25.6727 18.8497 25.742C19.0648 25.7521 19.267 25.8472 19.4119 26.0064C19.5568 26.1656 19.6325 26.3759 19.6224 26.5909C19.6123 26.8059 19.5172 27.0082 19.358 27.1531C19.1988 27.298 18.9886 27.3737 18.7735 27.3636L18.7768 27.3563Z" fill="#4D4D4F"/>
</svg>
