<svg width="60" height="60" viewBox="0 0 60 60" fill="none" xmlns="http://www.w3.org/2000/svg">
<path d="M57.5676 48.9482H46.9744C46.8195 48.9482 46.6678 48.9038 46.5374 48.8203C46.4069 48.7369 46.3031 48.6178 46.2382 48.4771L40.6768 36.4285H23.5557C22.9106 36.4285 22.2919 36.1722 21.8357 35.716C21.3796 35.2598 21.1233 34.6412 21.1233 33.996V24.7195C21.1233 24.0744 21.3796 23.4557 21.8357 22.9996C22.2919 22.5434 22.9106 22.2871 23.5557 22.2871H50.1682C50.8133 22.2871 51.432 22.5434 51.8882 22.9996C52.3443 23.4557 52.6006 24.0744 52.6006 24.7195V35.4393L58.3038 47.7977C58.3608 47.9212 58.3858 48.0571 58.3765 48.1928C58.3672 48.3286 58.3239 48.4598 58.2506 48.5744C58.1773 48.689 58.0763 48.7833 57.9569 48.8486C57.8376 48.914 57.7037 48.9482 57.5676 48.9482V48.9482ZM47.4925 47.3266H56.3003L51.0536 35.9574C51.0042 35.8509 50.9788 35.735 50.979 35.6177V24.7195C50.979 24.5045 50.8935 24.2983 50.7415 24.1462C50.5894 23.9942 50.3832 23.9087 50.1682 23.9087H23.5557C23.3407 23.9087 23.1344 23.9942 22.9824 24.1462C22.8303 24.2983 22.7449 24.5045 22.7449 24.7195V33.996C22.7449 34.2111 22.8303 34.4173 22.9824 34.5694C23.1344 34.7214 23.3407 34.8068 23.5557 34.8068H41.1957C41.3505 34.807 41.502 34.8514 41.6323 34.9349C41.7626 35.0184 41.8663 35.1374 41.9311 35.2779L47.4925 47.3266Z" fill="#4D4D4F"/>
<path d="M21.934 33H17.0692C16.8541 33 16.6479 32.9146 16.4958 32.7626C16.3438 32.6105 16.2584 32.4043 16.2584 32.1892C16.2584 31.9742 16.3438 31.768 16.4958 31.6159C16.6479 31.4639 16.8541 31.3784 17.0692 31.3784H21.1232V27.2222H17.0692C16.8541 27.2222 16.6479 27.1368 16.4958 26.9847C16.3438 26.8327 16.2584 26.6264 16.2584 26.4114C16.2584 26.1964 16.3438 25.9901 16.4958 25.8381C16.6479 25.686 16.8541 25.6006 17.0692 25.6006H21.934C22.1491 25.6006 22.3553 25.686 22.5074 25.8381C22.6594 25.9901 22.7449 26.1964 22.7449 26.4114V32.1892C22.7449 32.4043 22.6594 32.6105 22.5074 32.7626C22.3553 32.9146 22.1491 33 21.934 33Z" fill="#4D4D4F"/>
<path d="M13.1651 36.3314H11.4121C11.1971 36.3314 10.9909 36.246 10.8388 36.0939C10.6867 35.9419 10.6013 35.7356 10.6013 35.5206V23.0755C10.6013 22.8604 10.6867 22.6542 10.8388 22.5021C10.9909 22.3501 11.1971 22.2646 11.4121 22.2646H13.1651C14.4283 22.2659 15.6394 22.7683 16.5326 23.6615C17.4258 24.5547 17.9281 25.7658 17.9294 27.029V31.5695C17.9273 32.8322 17.4246 34.0425 16.5315 34.9352C15.6384 35.8278 14.4278 36.3299 13.1651 36.3314V36.3314ZM12.2229 34.7098H13.1651C13.9985 34.7089 14.7975 34.3774 15.3867 33.7881C15.9759 33.1987 16.3072 32.3996 16.3078 31.5663V27.0257C16.3069 26.1925 15.9756 25.3936 15.3864 24.8045C14.7972 24.2153 13.9983 23.8839 13.1651 23.883H12.2229V34.7098Z" fill="#4D4D4F"/>
<path d="M7.48861 30.1089H2.43239C2.21735 30.1089 2.01112 30.0235 1.85906 29.8714C1.70701 29.7194 1.62158 29.5132 1.62158 29.2981C1.62158 29.0831 1.70701 28.8768 1.85906 28.7248C2.01112 28.5727 2.21735 28.4873 2.43239 28.4873H7.48861C7.70365 28.4873 7.90988 28.5727 8.06194 28.7248C8.21399 28.8768 8.29942 29.0831 8.29942 29.2981C8.29942 29.5132 8.21399 29.7194 8.06194 29.8714C7.90988 30.0235 7.70365 30.1089 7.48861 30.1089Z" fill="#4D4D4F"/>
<path d="M7.08975 25.8196C6.98521 25.8195 6.88169 25.7991 6.78488 25.7596L2.52488 24.0261C2.32565 23.945 2.16678 23.7881 2.08322 23.5899C1.99967 23.3917 1.99827 23.1685 2.07934 22.9692C2.16041 22.77 2.31731 22.6111 2.51551 22.5276C2.71372 22.444 2.937 22.4426 3.13623 22.5237L7.39624 24.2572C7.57085 24.3278 7.71542 24.4571 7.80512 24.6227C7.89482 24.7883 7.92405 24.98 7.88779 25.1649C7.85153 25.3497 7.75205 25.5162 7.60642 25.6357C7.46079 25.7551 7.27811 25.8202 7.08975 25.8196V25.8196Z" fill="#4D4D4F"/>
<path d="M2.83134 36.1319C2.64333 36.132 2.46114 36.0667 2.31593 35.9473C2.17072 35.8279 2.07153 35.6617 2.03532 35.4772C1.99911 35.2927 2.02814 35.1014 2.11744 34.936C2.20674 34.7705 2.35076 34.6412 2.52485 34.5703L6.78485 32.8376C6.8839 32.7949 6.99045 32.7725 7.09828 32.7715C7.20611 32.7706 7.31305 32.7911 7.41283 32.832C7.51262 32.8729 7.60324 32.9333 7.67941 33.0096C7.75558 33.0859 7.81575 33.1767 7.85641 33.2766C7.89707 33.3764 7.9174 33.4834 7.91622 33.5912C7.91503 33.6991 7.89234 33.8056 7.84948 33.9045C7.80663 34.0035 7.74447 34.0929 7.66664 34.1675C7.5888 34.2422 7.49687 34.3005 7.3962 34.3392L3.13621 36.0719C3.03952 36.1117 2.93592 36.1321 2.83134 36.1319V36.1319Z" fill="#4D4D4F"/>
<path d="M39.2514 23.9065H35.3433C35.1282 23.9065 34.922 23.8211 34.77 23.669C34.6179 23.517 34.5325 23.3107 34.5325 23.0957V19.6214C34.5325 19.4063 34.6179 19.2001 34.77 19.048C34.922 18.896 35.1282 18.8105 35.3433 18.8105C35.5583 18.8105 35.7646 18.896 35.9166 19.048C36.0687 19.2001 36.1541 19.4063 36.1541 19.6214V22.2849H38.4406V19.6214C38.4406 19.4063 38.526 19.2001 38.6781 19.048C38.8301 18.896 39.0364 18.8105 39.2514 18.8105C39.4664 18.8105 39.6727 18.896 39.8247 19.048C39.9768 19.2001 40.0622 19.4063 40.0622 19.6214V23.0957C40.0622 23.3107 39.9768 23.517 39.8247 23.669C39.6727 23.8211 39.4664 23.9065 39.2514 23.9065Z" fill="#4D4D4F"/>
<path d="M39.2506 20.4328C39.0356 20.4393 38.8268 20.3601 38.6701 20.2126C38.5135 20.0651 38.4219 19.8614 38.4155 19.6464C38.409 19.4313 38.4882 19.2225 38.6357 19.0659C38.7832 18.9093 38.9869 18.8177 39.2019 18.8112C39.6369 18.7834 40.045 18.5911 40.3433 18.2734C40.6416 17.9556 40.8078 17.5362 40.8082 17.1004V12.6734H33.7865V17.1004C33.7869 17.5362 33.9531 17.9556 34.2514 18.2734C34.5497 18.5911 34.9578 18.7834 35.3928 18.8112C35.4991 18.8177 35.6031 18.8451 35.6988 18.8918C35.7946 18.9386 35.8802 19.0037 35.9507 19.0835C36.0213 19.1633 36.0754 19.2563 36.11 19.357C36.1447 19.4578 36.1591 19.5644 36.1525 19.6707C36.1477 19.7776 36.1215 19.8824 36.0753 19.9789C36.0291 20.0755 35.964 20.1617 35.8838 20.2325C35.8036 20.3033 35.71 20.3573 35.6085 20.3912C35.507 20.425 35.3997 20.4381 35.293 20.4296C34.4463 20.3756 33.6519 20.0016 33.071 19.3833C32.49 18.765 32.1661 17.9488 32.1649 17.1004V12.3653C32.1651 12.017 32.3036 11.683 32.5499 11.4367C32.7962 11.1904 33.1301 11.052 33.4784 11.0518H41.1163C41.4646 11.052 41.7985 11.1904 42.0448 11.4367C42.2911 11.683 42.4296 12.017 42.4298 12.3653V17.1004C42.4294 17.9494 42.1059 18.7663 41.5249 19.3853C40.9438 20.0043 40.1489 20.3789 39.3017 20.4328C39.2847 20.4328 39.2676 20.4328 39.2506 20.4328V20.4328Z" fill="#4D4D4F"/>
<path d="M42.973 28.3091H30C29.785 28.3091 29.5787 28.2237 29.4267 28.0716C29.2746 27.9196 29.1892 27.7134 29.1892 27.4983C29.1892 27.2833 29.2746 27.077 29.4267 26.925C29.5787 26.7729 29.785 26.6875 30 26.6875H42.973C43.188 26.6875 43.3943 26.7729 43.5463 26.925C43.6984 27.077 43.7838 27.2833 43.7838 27.4983C43.7838 27.7134 43.6984 27.9196 43.5463 28.0716C43.3943 28.2237 43.188 28.3091 42.973 28.3091Z" fill="#4D4D4F"/>
</svg>
