<svg width="60" height="60" viewBox="0 0 60 60" fill="none" xmlns="http://www.w3.org/2000/svg">
<path fill-rule="evenodd" clip-rule="evenodd" d="M46.4697 3.9004C46.7992 3.57086 47.2462 3.38574 47.7122 3.38574H55.7143C56.2113 3.38574 56.6143 3.78869 56.6143 4.28574V55.7143C56.6143 56.2114 56.2113 56.6143 55.7143 56.6143H4C3.50294 56.6143 3.1 56.2114 3.1 55.7143C3.1 55.2173 3.50294 54.8143 4 54.8143H45.1843L44.1493 53.7793C42.3777 52.0076 42.3777 49.1353 44.1493 47.3636C45.218 46.2949 45.218 44.5623 44.1493 43.4936C42.3777 41.7219 42.3777 38.8495 44.1493 37.0779C45.218 36.0092 45.218 34.2765 44.1493 33.2078C42.3777 31.4362 42.3777 28.5638 44.1493 26.7922C45.218 25.7235 45.218 23.9908 44.1493 22.9221C42.3777 21.1505 42.3777 18.2781 44.1493 16.5065C45.218 15.4378 45.218 13.7051 44.1493 12.6364C42.3777 10.8648 42.3777 7.99241 44.1493 6.22078L46.4697 3.9004ZM47.7299 54.8143H54.8143V5.18574H47.7299L45.4221 7.49357C44.3534 8.56226 44.3534 10.2949 45.4221 11.3636C47.1937 13.1353 47.1937 16.0076 45.4221 17.7793C44.3534 18.848 44.3534 20.5807 45.4221 21.6493C47.1937 23.421 47.1937 26.2934 45.4221 28.065C44.3534 29.1337 44.3534 30.8664 45.4221 31.9351C47.1937 33.7067 47.1937 36.5791 45.4221 38.3507C44.3534 39.4194 44.3534 41.1521 45.4221 42.2208C47.1937 43.9924 47.1937 46.8648 45.4221 48.6364C44.3534 49.7051 44.3534 51.4378 45.4221 52.5065L47.7299 54.8143ZM47.7425 5.17319C47.7425 5.17315 47.7424 5.17322 47.7425 5.17319Z" fill="#4D4D4F"/>
<path fill-rule="evenodd" clip-rule="evenodd" d="M18.5874 7.56804C18.9388 7.21656 19.5087 7.21656 19.8602 7.56804C30.5919 18.2998 30.5919 35.6994 19.8602 46.4311C19.5087 46.7826 18.9388 46.7826 18.5874 46.4311C18.2359 46.0796 18.2359 45.5098 18.5874 45.1583C28.6162 35.1295 28.6162 18.8696 18.5874 8.84083C18.2359 8.48936 18.2359 7.91951 18.5874 7.56804ZM11.2573 14.8981C11.6087 14.5467 12.1786 14.5467 12.53 14.8981C19.2135 21.5816 19.2135 32.4176 12.53 39.101C12.1786 39.4525 11.6087 39.4525 11.2573 39.101C10.9058 38.7495 10.9058 38.1797 11.2573 37.8282C17.2377 31.8477 17.2377 22.1514 11.2573 16.1709C10.9058 15.8195 10.9058 15.2496 11.2573 14.8981ZM4.67895 21.4764C5.03042 21.125 5.60027 21.125 5.95174 21.4764C9.00209 24.5268 9.00209 29.4724 5.95174 32.5227C5.60027 32.8742 5.03042 32.8742 4.67895 32.5227C4.32748 32.1712 4.32748 31.6014 4.67895 31.2499C7.02635 28.9025 7.02635 25.0966 4.67895 22.7492C4.32748 22.3978 4.32748 21.8279 4.67895 21.4764Z" fill="#4D4D4F"/>
</svg>
