<svg width="60" height="60" viewBox="0 0 60 60" fill="none" xmlns="http://www.w3.org/2000/svg">
<path fill-rule="evenodd" clip-rule="evenodd" d="M9.46861 9.46899C3.73627 15.2013 3.73627 24.4953 9.46861 30.2276C13.9494 34.7084 20.6078 35.6875 26.0397 33.1617L22.3916 29.5135C19.9954 31.3869 16.5228 31.2209 14.3173 29.0154L9.39285 24.0909L10.5257 22.9581C8.87083 19.4937 9.47707 15.2184 12.3475 12.3479C15.218 9.47745 19.4933 8.87121 22.9577 10.5261L24.0906 9.39323L29.0151 14.3177C31.2205 16.5232 31.3865 19.9957 29.5132 22.392L33.1613 26.0401C35.6871 20.6082 34.708 13.9498 30.2272 9.46899C24.4949 3.73666 15.201 3.73666 9.46861 9.46899ZM34.2835 27.1623C37.3609 21.0911 36.3635 13.4839 31.2879 8.40833C24.9698 2.09021 14.7261 2.09021 8.40795 8.40833C2.08983 14.7265 2.08983 24.9702 8.40795 31.2883C13.4835 36.3638 21.0908 37.3612 27.1619 34.2839L30.9091 38.0311L32.2728 36.6673L43.9401 48.3346L45.6068 46.6679L49.567 50.6281C50.7038 51.7648 52.2456 52.4035 53.8533 52.4035C54.4169 52.4035 54.8738 52.8604 54.8738 53.424V53.7615C54.8738 54.5115 54.2658 55.1195 53.5158 55.1195L34.3696 55.1195C32.4554 55.1195 30.9036 53.5677 30.9036 51.6535C30.9036 48.9108 28.6802 46.6874 25.9376 46.6874L13.0975 46.6874L13.0975 48.1874L25.9376 48.1874C27.8518 48.1874 29.4036 49.7392 29.4036 51.6535C29.4036 54.3961 31.627 56.6195 34.3696 56.6195L53.5158 56.6195C55.0942 56.6195 56.3738 55.3399 56.3738 53.7615L56.3738 53.424C56.3738 52.032 55.2453 50.9035 53.8533 50.9035C52.6434 50.9035 51.4832 50.4229 50.6277 49.5674L46.6675 45.6072L48.3342 43.9404L36.667 32.2732L38.0307 30.9095L34.2835 27.1623ZM35.6063 33.3338L33.3335 35.6067L43.9401 46.2133L46.2129 43.9404L35.6063 33.3338ZM28.4418 21.3206C29.7355 19.5204 29.573 16.997 27.9544 15.3784L24.0906 11.5146L21.3632 14.242L28.4418 21.3206ZM20.3025 13.1813L21.8189 11.6649C19.0071 10.5533 15.6814 11.1354 13.4082 13.4086C11.135 15.6818 10.5529 19.0075 11.6646 21.8192L13.1809 20.3029L11.9687 19.0907L19.0903 11.9691L20.3025 13.1813ZM14.2416 21.3635L11.5142 24.0909L15.378 27.9548C16.9966 29.5734 19.52 29.7359 21.3202 28.4422L14.2416 21.3635ZM22.4238 27.4245L27.4241 22.4242L19.0903 14.0904L14.0901 19.0907L22.4238 27.4245ZM23.4845 28.4851L28.4847 23.4849L35.9094 30.9095L30.9091 35.9097L23.4845 28.4851Z" fill="#4D4D4F"/>
<path fill-rule="evenodd" clip-rule="evenodd" d="M40.2888 25.3107L40.292 25.3106L40.3091 25.3101C40.3249 25.3096 40.3497 25.3087 40.3822 25.3072C40.4473 25.3043 40.5434 25.2991 40.6625 25.2899C40.9019 25.2715 41.2284 25.2376 41.5802 25.1764C41.9344 25.1147 42.2976 25.0281 42.6165 24.9094C42.9435 24.7876 43.1726 24.6508 43.3061 24.5174C43.4396 24.3839 43.5763 24.1548 43.6981 23.8277C43.8168 23.5089 43.9034 23.1457 43.9651 22.7915C44.0263 22.4397 44.0602 22.1131 44.0786 21.8738C44.0878 21.7547 44.093 21.6586 44.096 21.5935C44.0974 21.5609 44.0983 21.5362 44.0988 21.5203L44.0993 21.5033L44.0994 21.5003C44.1074 21.0919 44.4408 20.7648 44.8492 20.7648C45.2576 20.7648 45.5909 21.0915 45.5991 21.4997C45.5991 21.4998 45.5991 21.4996 45.5991 21.4997L45.5992 21.5033L45.5996 21.5203C45.6001 21.5362 45.601 21.5609 45.6025 21.5935C45.6054 21.6586 45.6107 21.7547 45.6198 21.8738C45.6383 22.1131 45.6721 22.4397 45.7334 22.7915C45.795 23.1457 45.8817 23.5089 46.0004 23.8277C46.1221 24.1548 46.2589 24.3839 46.3924 24.5174C46.5258 24.6508 46.7549 24.7876 47.082 24.9094C47.4008 25.0281 47.764 25.1147 48.1183 25.1764C48.47 25.2376 48.7966 25.2715 49.0359 25.2899C49.155 25.2991 49.2511 25.3043 49.3163 25.3072C49.3488 25.3087 49.3735 25.3096 49.3894 25.3101L49.4064 25.3106L49.4094 25.3107C49.8178 25.3187 50.1449 25.652 50.1449 26.0605C50.1449 26.4689 49.8182 26.8021 49.41 26.8104C49.4099 26.8104 49.4102 26.8104 49.41 26.8104L49.4064 26.8104L49.3894 26.8109C49.3735 26.8114 49.3488 26.8123 49.3163 26.8138C49.2511 26.8167 49.155 26.8219 49.0359 26.8311C48.7966 26.8495 48.47 26.8834 48.1183 26.9447C47.764 27.0063 47.4008 27.093 47.082 27.2117C46.7549 27.3334 46.5258 27.4702 46.3924 27.6037C46.2589 27.7371 46.1221 27.9662 46.0004 28.2933C45.8817 28.6121 45.795 28.9753 45.7334 29.3296C45.6721 29.6813 45.6383 30.0079 45.6198 30.2472C45.6107 30.3663 45.6054 30.4624 45.6025 30.5276C45.601 30.5601 45.6001 30.5848 45.5996 30.6007L45.5992 30.6177L45.5991 30.6207C45.5911 31.0291 45.2577 31.3562 44.8492 31.3562C44.4409 31.3562 44.1076 31.0295 44.0994 30.6213C44.0994 30.6212 44.0994 30.6215 44.0994 30.6213L44.0993 30.6177L44.0988 30.6007C44.0983 30.5848 44.0974 30.5601 44.096 30.5276C44.093 30.4624 44.0878 30.3663 44.0786 30.2472C44.0602 30.0079 44.0263 29.6813 43.9651 29.3296C43.9034 28.9753 43.8168 28.6121 43.6981 28.2933C43.5763 27.9662 43.4396 27.7371 43.3061 27.6037C43.1726 27.4702 42.9435 27.3334 42.6165 27.2117C42.2976 27.093 41.9344 27.0063 41.5802 26.9447C41.2284 26.8834 40.9019 26.8495 40.6625 26.8311C40.5434 26.8219 40.4473 26.8167 40.3822 26.8138C40.3497 26.8123 40.3249 26.8114 40.3091 26.8109L40.292 26.8104L40.289 26.8104C39.8807 26.8023 39.5535 26.469 39.5535 26.0605C39.5535 25.6521 39.8805 25.3188 40.2888 25.3107ZM40.2888 25.3107C40.2888 25.3107 40.2888 25.3107 40.2888 25.3107ZM44.8492 27.2039C44.9785 26.9662 45.1366 26.7381 45.3317 26.543C45.5268 26.3479 45.7549 26.1898 45.9927 26.0605C45.7549 25.9313 45.5268 25.7731 45.3317 25.578C45.1366 25.383 44.9785 25.1549 44.8492 24.9171C44.72 25.1549 44.5618 25.383 44.3667 25.578C44.1717 25.7731 43.9436 25.9313 43.7058 26.0605C43.9436 26.1898 44.1717 26.3479 44.3667 26.543C44.5618 26.7381 44.72 26.9662 44.8492 27.2039ZM40.289 26.8104C40.2889 26.8104 40.2891 26.8104 40.289 26.8104Z" fill="#4D4D4F"/>
<path fill-rule="evenodd" clip-rule="evenodd" d="M46.8043 7.88585L46.8075 7.88578L46.8246 7.88529C46.8404 7.88479 46.8652 7.88391 46.8977 7.88245C46.9628 7.87952 47.0589 7.87427 47.178 7.8651C47.4174 7.84667 47.744 7.81281 48.0957 7.75157C48.4499 7.68989 48.8131 7.60325 49.132 7.48456C49.459 7.36282 49.6881 7.22605 49.8216 7.09257C49.9551 6.95909 50.0918 6.73001 50.2136 6.40295C50.3323 6.08412 50.4189 5.72089 50.4806 5.36666C50.5418 5.01492 50.5757 4.68833 50.5941 4.44902C50.6033 4.32991 50.6086 4.2338 50.6115 4.16867C50.6129 4.13613 50.6138 4.11142 50.6143 4.09554L50.6148 4.07849L50.6149 4.07551C50.6229 3.66714 50.9563 3.34002 51.3647 3.34002C51.7731 3.34002 52.1064 3.66671 52.1146 4.07491C52.1146 4.07502 52.1146 4.0748 52.1146 4.07491L52.1147 4.07849L52.1152 4.09554C52.1157 4.11142 52.1165 4.13613 52.118 4.16867C52.1209 4.2338 52.1262 4.32991 52.1353 4.44902C52.1538 4.68833 52.1876 5.01492 52.2489 5.36666C52.3106 5.72089 52.3972 6.08412 52.5159 6.40295C52.6376 6.73001 52.7744 6.95909 52.9079 7.09257C53.0414 7.22605 53.2704 7.36282 53.5975 7.48456C53.9163 7.60325 54.2796 7.68989 54.6338 7.75157C54.9855 7.81281 55.3121 7.84667 55.5514 7.8651C55.6705 7.87427 55.7667 7.87952 55.8318 7.88245C55.8643 7.88391 55.889 7.88479 55.9049 7.88529L55.922 7.88578L55.9249 7.88585C56.3333 7.89388 56.6604 8.22723 56.6604 8.63571C56.6604 9.04406 56.3338 9.37733 55.9256 9.38556C55.9254 9.38556 55.9257 9.38555 55.9256 9.38556L55.922 9.38564L55.9049 9.38613C55.889 9.38663 55.8643 9.38751 55.8318 9.38897C55.7667 9.3919 55.6705 9.39714 55.5514 9.40631C55.3121 9.42474 54.9855 9.4586 54.6338 9.51985C54.2796 9.58152 53.9163 9.66817 53.5975 9.78685C53.2704 9.9086 53.0414 10.0454 52.9079 10.1788C52.7744 10.3123 52.6376 10.5414 52.5159 10.8685C52.3972 11.1873 52.3106 11.5505 52.2489 11.9048C52.1876 12.2565 52.1538 12.5831 52.1353 12.8224C52.1262 12.9415 52.1209 13.0376 52.118 13.1028C52.1165 13.1353 52.1157 13.16 52.1152 13.1759L52.1147 13.1929L52.1146 13.1959C52.1066 13.6043 51.7732 13.9314 51.3647 13.9314C50.9564 13.9314 50.6231 13.6047 50.6149 13.1965C50.6149 13.1964 50.6149 13.1966 50.6149 13.1965L50.6148 13.1929L50.6143 13.1759C50.6138 13.16 50.6129 13.1353 50.6115 13.1028C50.6086 13.0376 50.6033 12.9415 50.5941 12.8224C50.5757 12.5831 50.5418 12.2565 50.4806 11.9048C50.4189 11.5505 50.3323 11.1873 50.2136 10.8685C50.0918 10.5414 49.9551 10.3123 49.8216 10.1788C49.6881 10.0454 49.459 9.9086 49.132 9.78685C48.8131 9.66817 48.4499 9.58152 48.0957 9.51985C47.744 9.4586 47.4174 9.42474 47.178 9.40631C47.0589 9.39714 46.9628 9.3919 46.8977 9.38897C46.8652 9.38751 46.8404 9.38663 46.8246 9.38613L46.8075 9.38564L46.8045 9.38557C46.3962 9.37754 46.0691 9.04418 46.0691 8.63571C46.0691 8.22728 46.396 7.89396 46.8043 7.88585ZM46.8043 7.88585C46.8043 7.88585 46.8043 7.88585 46.8043 7.88585ZM51.3647 9.77914C51.494 9.54136 51.6522 9.31325 51.8472 9.11819C52.0423 8.92313 52.2704 8.76496 52.5082 8.63571C52.2704 8.50646 52.0423 8.34829 51.8472 8.15323C51.6522 7.95817 51.494 7.73005 51.3647 7.49228C51.2355 7.73005 51.0773 7.95817 50.8823 8.15323C50.6872 8.34829 50.4591 8.50646 50.2213 8.63571C50.4591 8.76496 50.6872 8.92313 50.8823 9.11819C51.0773 9.31325 51.2355 9.54136 51.3647 9.77914ZM46.8045 9.38557C46.8044 9.38556 46.8046 9.38557 46.8045 9.38557Z" fill="#4D4D4F"/>
<path fill-rule="evenodd" clip-rule="evenodd" d="M4.22642 40.7657L4.22964 40.7657L4.24669 40.7652C4.26257 40.7647 4.28728 40.7638 4.31981 40.7623C4.38495 40.7594 4.48106 40.7542 4.60017 40.745C4.83948 40.7266 5.16607 40.6927 5.51781 40.6315C5.87204 40.5698 6.23526 40.4831 6.55409 40.3644C6.88116 40.2427 7.11024 40.1059 7.24372 39.9725C7.37719 39.839 7.51396 39.6099 7.63571 39.2828C7.75439 38.964 7.84104 38.6008 7.90272 38.2465C7.96396 37.8948 7.99782 37.5682 8.01625 37.3289C8.02542 37.2098 8.03067 37.1137 8.03359 37.0486C8.03505 37.016 8.03593 36.9913 8.03643 36.9754L8.03692 36.9584L8.037 36.9554C8.04503 36.547 8.37838 36.2199 8.78686 36.2199C9.19522 36.2199 9.5285 36.5466 9.5367 36.9548C9.53671 36.9549 9.5367 36.9547 9.5367 36.9548L9.53679 36.9584L9.53728 36.9754C9.53778 36.9913 9.53866 37.016 9.54012 37.0486C9.54305 37.1137 9.54829 37.2098 9.55746 37.3289C9.57589 37.5682 9.60975 37.8948 9.67099 38.2465C9.73267 38.6008 9.81932 38.964 9.938 39.2828C10.0597 39.6099 10.1965 39.839 10.33 39.9725C10.4635 40.1059 10.6926 40.2427 11.0196 40.3644C11.3384 40.4831 11.7017 40.5698 12.0559 40.6315C12.4076 40.6927 12.7342 40.7266 12.9735 40.745C13.0927 40.7542 13.1888 40.7594 13.2539 40.7623C13.2864 40.7638 13.3111 40.7647 13.327 40.7652L13.3441 40.7657L13.3471 40.7657C13.7554 40.7738 14.0825 41.1071 14.0825 41.5156C14.0825 41.9239 13.7559 42.2572 13.3477 42.2654C13.3475 42.2654 13.3478 42.2654 13.3477 42.2654L13.3441 42.2655L13.327 42.266C13.3111 42.2665 13.2864 42.2674 13.2539 42.2689C13.1888 42.2718 13.0927 42.277 12.9735 42.2862C12.7342 42.3046 12.4076 42.3385 12.0559 42.3997C11.7017 42.4614 11.3384 42.5481 11.0196 42.6667C10.6926 42.7885 10.4635 42.9253 10.33 43.0587C10.1965 43.1922 10.0597 43.4213 9.938 43.7484C9.81932 44.0672 9.73267 44.4304 9.67099 44.7846C9.60975 45.1364 9.57589 45.463 9.55746 45.7023C9.54829 45.8214 9.54305 45.9175 9.54012 45.9826C9.53866 46.0152 9.53778 46.0399 9.53728 46.0558L9.53679 46.0728L9.53672 46.0758C9.52868 46.4842 9.19533 46.8113 8.78686 46.8113C8.3785 46.8113 8.04524 46.4846 8.03701 46.0764C8.03701 46.0763 8.03701 46.0765 8.03701 46.0764L8.03692 46.0728L8.03643 46.0558C8.03593 46.0399 8.03505 46.0152 8.03359 45.9826C8.03067 45.9175 8.02542 45.8214 8.01625 45.7023C7.99782 45.463 7.96396 45.1364 7.90272 44.7846C7.84104 44.4304 7.75439 44.0672 7.63571 43.7484C7.51396 43.4213 7.37719 43.1922 7.24372 43.0587C7.11024 42.9253 6.88115 42.7885 6.55409 42.6667C6.23526 42.5481 5.87204 42.4614 5.51781 42.3997C5.16607 42.3385 4.83948 42.3046 4.60017 42.2862C4.48106 42.277 4.38495 42.2718 4.31981 42.2689C4.28728 42.2674 4.26257 42.2665 4.24669 42.266L4.22964 42.2655L4.22666 42.2655C3.81829 42.2574 3.49117 41.9241 3.49117 41.5156C3.49117 41.1072 3.81811 40.7738 4.22642 40.7657ZM4.22642 40.7657C4.22642 40.7657 4.22642 40.7657 4.22642 40.7657ZM8.78686 42.659C8.91611 42.4212 9.07428 42.1931 9.26934 41.9981C9.4644 41.803 9.69251 41.6448 9.93028 41.5156C9.69251 41.3863 9.4644 41.2282 9.26934 41.0331C9.07428 40.8381 8.91611 40.6099 8.78686 40.3722C8.6576 40.6099 8.49944 40.8381 8.30438 41.0331C8.10932 41.2282 7.8812 41.3863 7.64343 41.5156C7.8812 41.6448 8.10932 41.803 8.30438 41.9981C8.49944 42.1931 8.6576 42.4212 8.78686 42.659ZM4.22666 42.2655C4.22651 42.2654 4.2267 42.2655 4.22666 42.2655Z" fill="#4D4D4F"/>
</svg>
