<svg width="60" height="60" viewBox="0 0 60 60" fill="none" xmlns="http://www.w3.org/2000/svg">
<path d="M54.2263 51.8397H5.77384C5.15206 51.8401 4.53815 51.7007 3.97745 51.432C3.41675 51.1633 2.9236 50.772 2.53442 50.2871C2.14524 49.8021 1.86999 49.236 1.72898 48.6304C1.58798 48.0248 1.58484 47.3953 1.71978 46.7884L6.91789 23.4078C7.1185 22.4833 7.63076 21.6558 8.36883 21.0641C9.1069 20.4723 10.0259 20.1521 10.9719 20.1573H49.0306C49.9766 20.1521 50.8957 20.4723 51.6337 21.0641C52.3718 21.6558 52.884 22.4833 53.0847 23.4078L58.2803 46.7884C58.4153 47.3953 58.4121 48.0248 58.2711 48.6304C58.1301 49.236 57.8549 49.8021 57.4657 50.2871C57.0765 50.772 56.5834 51.1633 56.0227 51.432C55.462 51.7007 54.848 51.8401 54.2263 51.8397V51.8397ZM10.9695 21.7789C10.3937 21.7759 9.83436 21.9706 9.38495 22.3306C8.93555 22.6906 8.62336 23.1939 8.50059 23.7565L3.30492 47.1394C3.22231 47.5094 3.22388 47.8931 3.30952 48.2624C3.39517 48.6316 3.56269 48.9769 3.79971 49.2727C4.03674 49.5685 4.3372 49.8072 4.6789 49.9713C5.0206 50.1354 5.39479 50.2205 5.77384 50.2205H54.2263C54.6053 50.2205 54.9795 50.1354 55.3212 49.9713C55.6629 49.8072 55.9634 49.5685 56.2004 49.2727C56.4374 48.9769 56.6049 48.6316 56.6906 48.2624C56.7762 47.8931 56.7778 47.5094 56.6952 47.1394L51.4995 23.7565C51.3774 23.1933 51.0655 22.6892 50.616 22.3286C50.1666 21.968 49.6068 21.7728 49.0306 21.7757L10.9695 21.7789Z" fill="#4D4D4F"/>
<path d="M44 9.5459L43.9855 8.79604C43.577 8.80395 43.25 9.13734 43.25 9.5459C43.25 9.95445 43.577 10.2879 43.9855 10.2958L44 9.5459ZM48.5457 5.00021L49.2956 4.9857C49.2876 4.57722 48.9542 4.25021 48.5457 4.25021C48.1371 4.25021 47.8037 4.57722 47.7958 4.9857L48.5457 5.00021ZM53.0914 9.5459L53.1059 10.2958C53.5144 10.2879 53.8414 9.95445 53.8414 9.5459C53.8414 9.13734 53.5144 8.80395 53.1059 8.79604L53.0914 9.5459ZM48.5457 14.0916L47.7958 14.1061C47.8037 14.5146 48.1371 14.8416 48.5457 14.8416C48.9542 14.8416 49.2876 14.5146 49.2956 14.1061L48.5457 14.0916ZM53.0914 9.5459C53.0769 8.79604 53.0767 8.79604 53.0766 8.79604C53.0765 8.79605 53.0763 8.79605 53.0762 8.79605C53.076 8.79606 53.0757 8.79606 53.0753 8.79607C53.0746 8.79608 53.0738 8.7961 53.0728 8.79612C53.0708 8.79617 53.0683 8.79623 53.0651 8.79631C53.0586 8.79647 53.0498 8.79671 53.0387 8.79706C53.0165 8.79776 52.985 8.79889 52.9454 8.80067C52.8663 8.80423 52.7541 8.81039 52.6172 8.82093C52.3446 8.84193 51.9685 8.88069 51.5574 8.95227C51.1488 9.02341 50.689 9.12977 50.2552 9.29128C49.8295 9.44972 49.3762 9.68032 49.0282 10.0284L50.0888 11.089C50.2223 10.9556 50.4514 10.8188 50.7785 10.697C51.0973 10.5784 51.4605 10.4917 51.8147 10.43C52.1665 10.3688 52.4931 10.3349 52.7324 10.3165C52.8515 10.3073 52.9476 10.3021 53.0127 10.2992C53.0453 10.2977 53.07 10.2968 53.0859 10.2963C53.0938 10.2961 53.0995 10.2959 53.1029 10.2958C53.1046 10.2958 53.1057 10.2958 53.1062 10.2958C53.1065 10.2957 53.1066 10.2957 53.1065 10.2957C53.1065 10.2957 53.1064 10.2957 53.1063 10.2957C53.1063 10.2958 53.1062 10.2958 53.1061 10.2958C53.106 10.2958 53.1059 10.2958 53.0914 9.5459ZM49.0282 10.0284C48.6801 10.3764 48.4495 10.8297 48.2911 11.2554C48.1296 11.6892 48.0232 12.1491 47.9521 12.5577C47.8805 12.9687 47.8417 13.3448 47.8207 13.6174C47.8102 13.7543 47.804 13.8665 47.8005 13.9456C47.7987 13.9852 47.7976 14.0167 47.7969 14.0389C47.7965 14.05 47.7963 14.0589 47.7961 14.0653C47.796 14.0685 47.796 14.0711 47.7959 14.073C47.7959 14.074 47.7959 14.0748 47.7959 14.0755C47.7959 14.0759 47.7958 14.0762 47.7958 14.0764C47.7958 14.0765 47.7958 14.0767 47.7958 14.0768C47.7958 14.0769 47.7958 14.0771 48.5457 14.0916C49.2956 14.1061 49.2955 14.1062 49.2955 14.1063C49.2955 14.1064 49.2955 14.1065 49.2955 14.1065C49.2955 14.1066 49.2955 14.1067 49.2955 14.1067C49.2955 14.1068 49.2955 14.1067 49.2955 14.1064C49.2956 14.1059 49.2956 14.1048 49.2956 14.1031C49.2957 14.0997 49.2959 14.094 49.2961 14.0861C49.2966 14.0702 49.2975 14.0455 49.299 14.0129C49.3019 13.9478 49.3071 13.8517 49.3163 13.7326C49.3347 13.4933 49.3686 13.1667 49.4298 12.8149C49.4915 12.4607 49.5782 12.0975 49.6968 11.7787C49.8186 11.4516 49.9554 11.2225 50.0888 11.089L49.0282 10.0284ZM44 9.5459C44.0145 10.2958 44.0147 10.2958 44.0148 10.2958C44.0149 10.2958 44.015 10.2957 44.0152 10.2957C44.0154 10.2957 44.0157 10.2957 44.0161 10.2957C44.0167 10.2957 44.0176 10.2957 44.0186 10.2957C44.0205 10.2956 44.0231 10.2956 44.0263 10.2955C44.0327 10.2953 44.0416 10.2951 44.0527 10.2947C44.0749 10.294 44.1063 10.2929 44.146 10.2911C44.2251 10.2876 44.3373 10.2814 44.4742 10.2709C44.7468 10.2499 45.1228 10.2111 45.5339 10.1395C45.9425 10.0684 46.4023 9.96202 46.8362 9.80052C47.2619 9.64207 47.7152 9.41147 48.0632 9.06342L47.0025 8.00276C46.8691 8.13624 46.64 8.27301 46.3129 8.39475C45.9941 8.51344 45.6309 8.60008 45.2766 8.66176C44.9249 8.723 44.5983 8.75686 44.359 8.77529C44.2399 8.78446 44.1438 8.78971 44.0786 8.79264C44.0461 8.7941 44.0214 8.79498 44.0055 8.79548C43.9976 8.79573 43.9919 8.79588 43.9885 8.79597C43.9868 8.79601 43.9857 8.79603 43.9852 8.79604C43.9849 8.79605 43.9848 8.79605 43.9849 8.79605C43.9849 8.79605 43.985 8.79605 43.9851 8.79605C43.9851 8.79605 43.9852 8.79604 43.9852 8.79604C43.9854 8.79604 43.9855 8.79604 44 9.5459ZM48.0632 9.06342C48.4113 8.71536 48.6419 8.26206 48.8003 7.83642C48.9618 7.40255 49.0682 6.94275 49.1393 6.53415C49.2109 6.12305 49.2497 5.747 49.2707 5.47438C49.2812 5.33751 49.2874 5.22533 49.2909 5.14617C49.2927 5.10656 49.2938 5.07512 49.2945 5.05289C49.2949 5.04177 49.2951 5.03294 49.2953 5.02654C49.2954 5.02334 49.2954 5.02075 49.2955 5.01877C49.2955 5.01778 49.2955 5.01695 49.2955 5.01628C49.2955 5.01594 49.2955 5.01564 49.2955 5.01538C49.2955 5.01525 49.2955 5.01509 49.2955 5.01502C49.2955 5.01487 49.2956 5.01472 48.5457 5.00021C47.7958 4.9857 47.7958 4.98557 47.7958 4.98546C47.7958 4.98543 47.7958 4.98533 47.7958 4.98527C47.7958 4.98517 47.7958 4.98511 47.7958 4.98508C47.7958 4.98503 47.7958 4.98513 47.7958 4.98538C47.7958 4.98589 47.7958 4.98699 47.7958 4.98868C47.7957 4.99207 47.7955 4.99779 47.7953 5.00573C47.7948 5.02161 47.7939 5.04632 47.7924 5.07886C47.7895 5.14399 47.7843 5.2401 47.7751 5.35921C47.7567 5.59852 47.7228 5.92511 47.6616 6.27685C47.5999 6.63108 47.5132 6.99431 47.3945 7.31314C47.2728 7.6402 47.136 7.86928 47.0025 8.00276L48.0632 9.06342ZM48.5457 14.0916C49.2956 14.0771 49.2955 14.0769 49.2955 14.0768C49.2955 14.0767 49.2955 14.0765 49.2955 14.0764C49.2955 14.0762 49.2955 14.0759 49.2955 14.0755C49.2955 14.0748 49.2955 14.074 49.2955 14.073C49.2954 14.0711 49.2954 14.0685 49.2953 14.0653C49.2951 14.0589 49.2949 14.05 49.2945 14.0389C49.2938 14.0167 49.2927 13.9852 49.2909 13.9456C49.2874 13.8665 49.2812 13.7543 49.2707 13.6174C49.2497 13.3448 49.2109 12.9687 49.1393 12.5577C49.0682 12.1491 48.9618 11.6892 48.8003 11.2554C48.6419 10.8297 48.4113 10.3764 48.0632 10.0284L47.0025 11.089C47.136 11.2225 47.2728 11.4516 47.3945 11.7787C47.5132 12.0975 47.5999 12.4607 47.6616 12.8149C47.7228 13.1667 47.7567 13.4933 47.7751 13.7326C47.7843 13.8517 47.7895 13.9478 47.7924 14.0129C47.7939 14.0455 47.7948 14.0702 47.7953 14.0861C47.7955 14.094 47.7957 14.0997 47.7958 14.1031C47.7958 14.1048 47.7958 14.1059 47.7958 14.1064C47.7958 14.1067 47.7958 14.1068 47.7958 14.1067C47.7958 14.1067 47.7958 14.1066 47.7958 14.1065C47.7958 14.1065 47.7958 14.1064 47.7958 14.1063C47.7958 14.1062 47.7958 14.1061 48.5457 14.0916ZM48.0632 10.0284C47.7152 9.68032 47.2619 9.44972 46.8362 9.29128C46.4023 9.12977 45.9425 9.02341 45.5339 8.95227C45.1228 8.88069 44.7468 8.84193 44.4742 8.82093C44.3373 8.81039 44.2251 8.80423 44.146 8.80067C44.1063 8.79889 44.0749 8.79776 44.0527 8.79706C44.0416 8.79671 44.0327 8.79647 44.0263 8.79631C44.0231 8.79623 44.0205 8.79617 44.0186 8.79612C44.0176 8.7961 44.0167 8.79608 44.0161 8.79607C44.0157 8.79606 44.0154 8.79606 44.0152 8.79605C44.015 8.79605 44.0149 8.79605 44.0148 8.79604C44.0147 8.79604 44.0145 8.79604 44 9.5459C43.9855 10.2958 43.9854 10.2958 43.9852 10.2958C43.9852 10.2958 43.9851 10.2958 43.9851 10.2957C43.985 10.2957 43.9849 10.2957 43.9849 10.2957C43.9848 10.2957 43.9849 10.2957 43.9852 10.2958C43.9857 10.2958 43.9868 10.2958 43.9885 10.2958C43.9919 10.2959 43.9976 10.2961 44.0055 10.2963C44.0214 10.2968 44.0461 10.2977 44.0786 10.2992C44.1438 10.3021 44.2399 10.3073 44.359 10.3165C44.5983 10.3349 44.9249 10.3688 45.2766 10.43C45.6309 10.4917 45.9941 10.5784 46.3129 10.697C46.64 10.8188 46.8691 10.9556 47.0025 11.089L48.0632 10.0284ZM48.5457 5.00021C47.7958 5.01472 47.7958 5.01487 47.7958 5.01502C47.7958 5.01509 47.7958 5.01525 47.7958 5.01538C47.7958 5.01564 47.7959 5.01594 47.7959 5.01628C47.7959 5.01695 47.7959 5.01778 47.7959 5.01877C47.796 5.02075 47.796 5.02334 47.7961 5.02654C47.7963 5.03294 47.7965 5.04177 47.7969 5.05289C47.7976 5.07512 47.7987 5.10656 47.8005 5.14617C47.804 5.22533 47.8102 5.33751 47.8207 5.47438C47.8417 5.747 47.8805 6.12305 47.9521 6.53415C48.0232 6.94275 48.1296 7.40255 48.2911 7.83642C48.4495 8.26206 48.6801 8.71536 49.0282 9.06342L50.0888 8.00276C49.9554 7.86928 49.8186 7.6402 49.6968 7.31314C49.5782 6.99431 49.4915 6.63108 49.4298 6.27685C49.3686 5.92511 49.3347 5.59852 49.3163 5.35921C49.3071 5.2401 49.3019 5.14399 49.299 5.07886C49.2975 5.04632 49.2966 5.02161 49.2961 5.00573C49.2959 4.99779 49.2957 4.99207 49.2956 4.98868C49.2956 4.98699 49.2956 4.98589 49.2955 4.98538C49.2955 4.98513 49.2955 4.98503 49.2955 4.98508C49.2955 4.98511 49.2955 4.98517 49.2955 4.98527C49.2955 4.98533 49.2955 4.98543 49.2955 4.98546C49.2955 4.98557 49.2956 4.9857 48.5457 5.00021ZM49.0282 9.06342C49.3762 9.41147 49.8295 9.64207 50.2552 9.80052C50.689 9.96202 51.1488 10.0684 51.5574 10.1395C51.9685 10.2111 52.3446 10.2499 52.6172 10.2709C52.7541 10.2814 52.8663 10.2876 52.9454 10.2911C52.985 10.2929 53.0165 10.294 53.0387 10.2947C53.0498 10.2951 53.0586 10.2953 53.0651 10.2955C53.0683 10.2956 53.0708 10.2956 53.0728 10.2957C53.0738 10.2957 53.0746 10.2957 53.0753 10.2957C53.0757 10.2957 53.076 10.2957 53.0762 10.2957C53.0763 10.2957 53.0765 10.2958 53.0766 10.2958C53.0767 10.2958 53.0769 10.2958 53.0914 9.5459C53.1059 8.79604 53.106 8.79604 53.1061 8.79604C53.1062 8.79604 53.1063 8.79605 53.1063 8.79605C53.1064 8.79605 53.1065 8.79605 53.1065 8.79605C53.1066 8.79605 53.1065 8.79605 53.1062 8.79604C53.1057 8.79603 53.1046 8.79601 53.1029 8.79597C53.0995 8.79588 53.0938 8.79573 53.0859 8.79548C53.07 8.79498 53.0453 8.7941 53.0127 8.79264C52.9476 8.78971 52.8515 8.78446 52.7324 8.77529C52.4931 8.75686 52.1665 8.723 51.8147 8.66176C51.4605 8.60008 51.0973 8.51344 50.7785 8.39475C50.4514 8.27301 50.2223 8.13624 50.0888 8.00276L49.0282 9.06342Z" fill="#4D4D4F"/>
<path d="M11 30.5459L10.9855 29.796C10.577 29.8039 10.25 30.1373 10.25 30.5459C10.25 30.9545 10.577 31.2879 10.9855 31.2958L11 30.5459ZM15.5457 26.0002L16.2956 25.9857C16.2876 25.5772 15.9542 25.2502 15.5457 25.2502C15.1371 25.2502 14.8037 25.5772 14.7958 25.9857L15.5457 26.0002ZM20.0914 30.5459L20.1059 31.2958C20.5144 31.2879 20.8414 30.9545 20.8414 30.5459C20.8414 30.1373 20.5144 29.8039 20.1059 29.796L20.0914 30.5459ZM15.5457 35.0916L14.7958 35.1061C14.8037 35.5146 15.1371 35.8416 15.5457 35.8416C15.9542 35.8416 16.2876 35.5146 16.2956 35.1061L15.5457 35.0916ZM20.0914 30.5459C20.0769 29.796 20.0767 29.796 20.0766 29.796C20.0765 29.796 20.0763 29.796 20.0762 29.7961C20.076 29.7961 20.0757 29.7961 20.0753 29.7961C20.0746 29.7961 20.0738 29.7961 20.0728 29.7961C20.0708 29.7962 20.0683 29.7962 20.0651 29.7963C20.0586 29.7965 20.0498 29.7967 20.0387 29.7971C20.0165 29.7978 19.985 29.7989 19.9454 29.8007C19.8663 29.8042 19.7541 29.8104 19.6172 29.8209C19.3446 29.8419 18.9685 29.8807 18.5574 29.9523C18.1488 30.0234 17.689 30.1298 17.2552 30.2913C16.8295 30.4497 16.3762 30.6803 16.0282 31.0284L17.0888 32.089C17.2223 31.9556 17.4514 31.8188 17.7785 31.697C18.0973 31.5784 18.4605 31.4917 18.8147 31.43C19.1665 31.3688 19.4931 31.3349 19.7324 31.3165C19.8515 31.3073 19.9476 31.3021 20.0127 31.2992C20.0453 31.2977 20.07 31.2968 20.0859 31.2963C20.0938 31.2961 20.0995 31.2959 20.1029 31.2958C20.1046 31.2958 20.1057 31.2958 20.1062 31.2958C20.1065 31.2957 20.1066 31.2957 20.1065 31.2957C20.1065 31.2957 20.1064 31.2957 20.1063 31.2957C20.1063 31.2958 20.1062 31.2958 20.1061 31.2958C20.106 31.2958 20.1059 31.2958 20.0914 30.5459ZM16.0282 31.0284C15.6801 31.3764 15.4495 31.8297 15.2911 32.2554C15.1296 32.6892 15.0232 33.1491 14.9521 33.5577C14.8805 33.9687 14.8417 34.3448 14.8207 34.6174C14.8102 34.7543 14.804 34.8665 14.8005 34.9456C14.7987 34.9852 14.7976 35.0167 14.7969 35.0389C14.7965 35.05 14.7963 35.0589 14.7961 35.0653C14.796 35.0685 14.796 35.0711 14.7959 35.073C14.7959 35.074 14.7959 35.0748 14.7959 35.0755C14.7959 35.0759 14.7958 35.0762 14.7958 35.0764C14.7958 35.0765 14.7958 35.0767 14.7958 35.0768C14.7958 35.0769 14.7958 35.0771 15.5457 35.0916C16.2956 35.1061 16.2955 35.1062 16.2955 35.1063C16.2955 35.1064 16.2955 35.1065 16.2955 35.1065C16.2955 35.1066 16.2955 35.1067 16.2955 35.1067C16.2955 35.1068 16.2955 35.1067 16.2955 35.1064C16.2956 35.1059 16.2956 35.1048 16.2956 35.1031C16.2957 35.0997 16.2959 35.094 16.2961 35.0861C16.2966 35.0702 16.2975 35.0455 16.299 35.0129C16.3019 34.9478 16.3071 34.8517 16.3163 34.7326C16.3347 34.4933 16.3686 34.1667 16.4298 33.8149C16.4915 33.4607 16.5782 33.0975 16.6968 32.7787C16.8186 32.4516 16.9554 32.2225 17.0888 32.089L16.0282 31.0284ZM11 30.5459C11.0145 31.2958 11.0147 31.2958 11.0148 31.2958C11.0149 31.2958 11.015 31.2957 11.0152 31.2957C11.0154 31.2957 11.0157 31.2957 11.0161 31.2957C11.0167 31.2957 11.0176 31.2957 11.0186 31.2957C11.0205 31.2956 11.0231 31.2956 11.0263 31.2955C11.0327 31.2953 11.0416 31.2951 11.0527 31.2947C11.0749 31.294 11.1063 31.2929 11.146 31.2911C11.2251 31.2876 11.3373 31.2814 11.4742 31.2709C11.7468 31.2499 12.1228 31.2111 12.5339 31.1395C12.9425 31.0684 13.4023 30.962 13.8362 30.8005C14.2619 30.6421 14.7152 30.4115 15.0632 30.0634L14.0025 29.0028C13.8691 29.1362 13.64 29.273 13.3129 29.3948C12.9941 29.5134 12.6309 29.6001 12.2766 29.6618C11.9249 29.723 11.5983 29.7569 11.359 29.7753C11.2399 29.7845 11.1438 29.7897 11.0786 29.7926C11.0461 29.7941 11.0214 29.795 11.0055 29.7955C10.9976 29.7957 10.9919 29.7959 10.9885 29.796C10.9868 29.796 10.9857 29.796 10.9852 29.796C10.9849 29.7961 10.9848 29.7961 10.9849 29.7961C10.9849 29.7961 10.985 29.796 10.9851 29.796C10.9851 29.796 10.9852 29.796 10.9852 29.796C10.9854 29.796 10.9855 29.796 11 30.5459ZM15.0632 30.0634C15.4113 29.7154 15.6419 29.2621 15.8003 28.8364C15.9618 28.4026 16.0682 27.9427 16.1393 27.5341C16.2109 27.123 16.2497 26.747 16.2707 26.4744C16.2812 26.3375 16.2874 26.2253 16.2909 26.1462C16.2927 26.1066 16.2938 26.0751 16.2945 26.0529C16.2949 26.0418 16.2951 26.0329 16.2953 26.0265C16.2954 26.0233 16.2954 26.0207 16.2955 26.0188C16.2955 26.0178 16.2955 26.017 16.2955 26.0163C16.2955 26.0159 16.2955 26.0156 16.2955 26.0154C16.2955 26.0153 16.2955 26.0151 16.2955 26.015C16.2955 26.0149 16.2956 26.0147 15.5457 26.0002C14.7958 25.9857 14.7958 25.9856 14.7958 25.9855C14.7958 25.9854 14.7958 25.9853 14.7958 25.9853C14.7958 25.9852 14.7958 25.9851 14.7958 25.9851C14.7958 25.985 14.7958 25.9851 14.7958 25.9854C14.7958 25.9859 14.7958 25.987 14.7958 25.9887C14.7957 25.9921 14.7955 25.9978 14.7953 26.0057C14.7948 26.0216 14.7939 26.0463 14.7924 26.0789C14.7895 26.144 14.7843 26.2401 14.7751 26.3592C14.7567 26.5985 14.7228 26.9251 14.6616 27.2768C14.5999 27.6311 14.5132 27.9943 14.3945 28.3131C14.2728 28.6402 14.136 28.8693 14.0025 29.0028L15.0632 30.0634ZM15.5457 35.0916C16.2956 35.0771 16.2955 35.0769 16.2955 35.0768C16.2955 35.0767 16.2955 35.0765 16.2955 35.0764C16.2955 35.0762 16.2955 35.0759 16.2955 35.0755C16.2955 35.0748 16.2955 35.074 16.2955 35.073C16.2954 35.0711 16.2954 35.0685 16.2953 35.0653C16.2951 35.0589 16.2949 35.05 16.2945 35.0389C16.2938 35.0167 16.2927 34.9852 16.2909 34.9456C16.2874 34.8665 16.2812 34.7543 16.2707 34.6174C16.2497 34.3448 16.2109 33.9687 16.1393 33.5577C16.0682 33.1491 15.9618 32.6892 15.8003 32.2554C15.6419 31.8297 15.4113 31.3764 15.0632 31.0284L14.0025 32.089C14.136 32.2225 14.2728 32.4516 14.3945 32.7787C14.5132 33.0975 14.5999 33.4607 14.6616 33.8149C14.7228 34.1667 14.7567 34.4933 14.7751 34.7326C14.7843 34.8517 14.7895 34.9478 14.7924 35.0129C14.7939 35.0455 14.7948 35.0702 14.7953 35.0861C14.7955 35.094 14.7957 35.0997 14.7958 35.1031C14.7958 35.1048 14.7958 35.1059 14.7958 35.1064C14.7958 35.1067 14.7958 35.1068 14.7958 35.1067C14.7958 35.1067 14.7958 35.1066 14.7958 35.1065C14.7958 35.1065 14.7958 35.1064 14.7958 35.1063C14.7958 35.1062 14.7958 35.1061 15.5457 35.0916ZM15.0632 31.0284C14.7152 30.6803 14.2619 30.4497 13.8362 30.2913C13.4023 30.1298 12.9425 30.0234 12.5339 29.9523C12.1228 29.8807 11.7468 29.8419 11.4742 29.8209C11.3373 29.8104 11.2251 29.8042 11.146 29.8007C11.1063 29.7989 11.0749 29.7978 11.0527 29.7971C11.0416 29.7967 11.0327 29.7965 11.0263 29.7963C11.0231 29.7962 11.0205 29.7962 11.0186 29.7961C11.0176 29.7961 11.0167 29.7961 11.0161 29.7961C11.0157 29.7961 11.0154 29.7961 11.0152 29.7961C11.015 29.796 11.0149 29.796 11.0148 29.796C11.0147 29.796 11.0145 29.796 11 30.5459C10.9855 31.2958 10.9854 31.2958 10.9852 31.2958C10.9852 31.2958 10.9851 31.2958 10.9851 31.2957C10.985 31.2957 10.9849 31.2957 10.9849 31.2957C10.9848 31.2957 10.9849 31.2957 10.9852 31.2958C10.9857 31.2958 10.9868 31.2958 10.9885 31.2958C10.9919 31.2959 10.9976 31.2961 11.0055 31.2963C11.0214 31.2968 11.0461 31.2977 11.0786 31.2992C11.1438 31.3021 11.2399 31.3073 11.359 31.3165C11.5983 31.3349 11.9249 31.3688 12.2766 31.43C12.6309 31.4917 12.9941 31.5784 13.3129 31.697C13.64 31.8188 13.8691 31.9556 14.0025 32.089L15.0632 31.0284ZM15.5457 26.0002C14.7958 26.0147 14.7958 26.0149 14.7958 26.015C14.7958 26.0151 14.7958 26.0153 14.7958 26.0154C14.7958 26.0156 14.7959 26.0159 14.7959 26.0163C14.7959 26.017 14.7959 26.0178 14.7959 26.0188C14.796 26.0207 14.796 26.0233 14.7961 26.0265C14.7963 26.0329 14.7965 26.0418 14.7969 26.0529C14.7976 26.0751 14.7987 26.1066 14.8005 26.1462C14.804 26.2253 14.8102 26.3375 14.8207 26.4744C14.8417 26.747 14.8805 27.123 14.9521 27.5341C15.0232 27.9427 15.1296 28.4026 15.2911 28.8364C15.4495 29.2621 15.6801 29.7154 16.0282 30.0634L17.0888 29.0028C16.9554 28.8693 16.8186 28.6402 16.6968 28.3131C16.5782 27.9943 16.4915 27.6311 16.4298 27.2768C16.3686 26.9251 16.3347 26.5985 16.3163 26.3592C16.3071 26.2401 16.3019 26.144 16.299 26.0789C16.2975 26.0463 16.2966 26.0216 16.2961 26.0057C16.2959 25.9978 16.2957 25.9921 16.2956 25.9887C16.2956 25.987 16.2956 25.9859 16.2955 25.9854C16.2955 25.9851 16.2955 25.985 16.2955 25.9851C16.2955 25.9851 16.2955 25.9852 16.2955 25.9853C16.2955 25.9853 16.2955 25.9854 16.2955 25.9855C16.2955 25.9856 16.2956 25.9857 15.5457 26.0002ZM16.0282 30.0634C16.3762 30.4115 16.8295 30.6421 17.2552 30.8005C17.689 30.962 18.1488 31.0684 18.5574 31.1395C18.9685 31.2111 19.3446 31.2499 19.6172 31.2709C19.7541 31.2814 19.8663 31.2876 19.9454 31.2911C19.985 31.2929 20.0165 31.294 20.0387 31.2947C20.0498 31.2951 20.0586 31.2953 20.0651 31.2955C20.0683 31.2956 20.0708 31.2956 20.0728 31.2957C20.0738 31.2957 20.0746 31.2957 20.0753 31.2957C20.0757 31.2957 20.076 31.2957 20.0762 31.2957C20.0763 31.2957 20.0765 31.2958 20.0766 31.2958C20.0767 31.2958 20.0769 31.2958 20.0914 30.5459C20.1059 29.796 20.106 29.796 20.1061 29.796C20.1062 29.796 20.1063 29.796 20.1063 29.796C20.1064 29.796 20.1065 29.7961 20.1065 29.7961C20.1066 29.7961 20.1065 29.7961 20.1062 29.796C20.1057 29.796 20.1046 29.796 20.1029 29.796C20.0995 29.7959 20.0938 29.7957 20.0859 29.7955C20.07 29.795 20.0453 29.7941 20.0127 29.7926C19.9476 29.7897 19.8515 29.7845 19.7324 29.7753C19.4931 29.7569 19.1665 29.723 18.8147 29.6618C18.4605 29.6001 18.0973 29.5134 17.7785 29.3948C17.4514 29.273 17.2223 29.1362 17.0888 29.0028L16.0282 30.0634Z" fill="#4D4D4F"/>
<path d="M41.85 51.8427C41.7277 51.8428 41.6069 51.8153 41.4968 51.7622C41.3866 51.7091 41.2899 51.6318 41.2139 51.536C41.1378 51.4403 41.0844 51.3285 41.0577 51.2092C41.0309 51.0899 41.0315 50.9661 41.0594 50.847L42.4864 44.757L37.6605 40.6219C37.5751 40.5541 37.5042 40.4698 37.4521 40.374C37.4 40.2782 37.3677 40.1729 37.3573 40.0643C37.3468 39.9558 37.3583 39.8463 37.3912 39.7423C37.4241 39.6383 37.4776 39.542 37.5485 39.4592C37.6194 39.3764 37.7063 39.3087 37.804 39.2602C37.9017 39.2118 38.0082 39.1835 38.117 39.1772C38.2259 39.1708 38.3349 39.1865 38.4376 39.2232C38.5403 39.26 38.6345 39.3171 38.7146 39.3911L43.9151 43.8448C44.028 43.9415 44.1121 44.0674 44.1583 44.2087C44.2045 44.35 44.2109 44.5012 44.177 44.6459L42.6364 51.2135C42.5955 51.3917 42.4955 51.5508 42.3527 51.665C42.21 51.7792 42.0328 51.8418 41.85 51.8427V51.8427Z" fill="#4D4D4F"/>
<path d="M34.7781 44.8261C34.6233 44.826 34.4718 44.7816 34.3414 44.6982C34.2111 44.6147 34.1074 44.4957 34.0425 44.3552C33.9776 44.2147 33.9543 44.0585 33.9753 43.9052C33.9963 43.7519 34.0607 43.6078 34.161 43.4899L40.9719 35.4742C41.1116 35.3105 41.3107 35.2089 41.5254 35.192C41.74 35.175 41.9526 35.244 42.1163 35.3838C42.2801 35.5236 42.3816 35.7227 42.3985 35.9373C42.4155 36.1519 42.3465 36.3645 42.2067 36.5283L35.3959 44.5439C35.3194 44.6328 35.2246 44.7041 35.118 44.7528C35.0113 44.8015 34.8953 44.8265 34.7781 44.8261V44.8261Z" fill="#4D4D4F"/>
<path d="M23.683 51.8427C23.5607 51.8427 23.4401 51.8151 23.3301 51.762C23.22 51.7088 23.1234 51.6315 23.0474 51.5357C22.9715 51.44 22.9182 51.3283 22.8915 51.209C22.8648 51.0898 22.8654 50.966 22.8932 50.847L24.3195 44.757L19.4935 40.6219C19.4081 40.5541 19.3372 40.4698 19.2851 40.374C19.233 40.2782 19.2007 40.1729 19.1903 40.0643C19.1798 39.9558 19.1913 39.8463 19.2242 39.7423C19.2571 39.6383 19.3106 39.542 19.3815 39.4592C19.4524 39.3764 19.5393 39.3087 19.637 39.2602C19.7347 39.2118 19.8412 39.1835 19.95 39.1772C20.0589 39.1708 20.1679 39.1865 20.2706 39.2232C20.3733 39.26 20.4675 39.3171 20.5476 39.3911L25.7481 43.8448C25.861 43.9415 25.9451 44.0674 25.9913 44.2087C26.0375 44.35 26.044 44.5012 26.01 44.6459L24.4695 51.2135C24.4285 51.3917 24.3285 51.5508 24.1858 51.665C24.043 51.7792 23.8658 51.8418 23.683 51.8427V51.8427Z" fill="#4D4D4F"/>
<path d="M16.6119 44.8254C16.4572 44.8253 16.3057 44.7809 16.1753 44.6975C16.045 44.6141 15.9412 44.495 15.8763 44.3545C15.8114 44.214 15.7881 44.0579 15.8091 43.9045C15.8302 43.7512 15.8946 43.6071 15.9949 43.4892L22.8057 35.4735C22.9455 35.3097 23.1446 35.2081 23.3593 35.191C23.574 35.174 23.7867 35.2429 23.9506 35.3827C24.1144 35.5225 24.2161 35.7216 24.2331 35.9364C24.2501 36.1511 24.1812 36.3637 24.0414 36.5276L17.2306 44.5433C17.154 44.6323 17.0591 44.7036 16.9523 44.7523C16.8454 44.801 16.7293 44.826 16.6119 44.8254V44.8254Z" fill="#4D4D4F"/>
</svg>
