<svg width="22" height="14" viewBox="0 0 22 14" xmlns="http://www.w3.org/2000/svg">
<path d="M12.0357 13.1083C12.0357 13.1083 12.4169 13.065 12.6121 12.8506C12.7908 12.6542 12.7846 12.2834 12.7846 12.2834C12.7846 12.2834 12.7609 10.5523 13.5469 10.2967C14.3217 10.0453 15.3164 11.9708 16.3721 12.7112C17.1696 13.271 17.7749 13.1485 17.7749 13.1485L20.596 13.1083C20.596 13.1083 22.0711 13.0154 21.3718 11.8293C21.3139 11.7321 20.9637 10.9516 19.2748 9.34821C17.5053 7.66988 17.7429 7.94133 19.8729 5.03779C21.1703 3.26968 21.6889 2.19022 21.5267 1.72865C21.3728 1.28715 20.4183 1.40439 20.4183 1.40439L17.243 1.42446C17.243 1.42446 17.0074 1.39172 16.8329 1.4984C16.6624 1.60296 16.5519 1.84695 16.5519 1.84695C16.5519 1.84695 16.0499 3.21475 15.3795 4.37871C13.9653 6.83336 13.4003 6.96327 13.1689 6.81118C12.6307 6.45523 12.765 5.38317 12.765 4.62164C12.765 2.24198 13.1183 1.25019 12.0781 0.993526C11.733 0.907972 11.4789 0.851992 10.5957 0.842486C9.46255 0.830868 8.50394 0.846711 7.96059 1.11816C7.59905 1.29877 7.32014 1.70225 7.49059 1.72548C7.70028 1.754 8.17545 1.85646 8.4275 2.20712C8.75289 2.66024 8.74152 3.67632 8.74152 3.67632C8.74152 3.67632 8.92849 6.47741 8.30457 6.82491C7.87692 7.06361 7.29019 6.5767 6.02892 4.34913C5.38331 3.20842 4.89574 1.94729 4.89574 1.94729C4.89574 1.94729 4.80174 1.71175 4.63336 1.58501C4.42987 1.43186 4.1458 1.38433 4.1458 1.38433L1.12846 1.40439C1.12846 1.40439 0.674984 1.41707 0.508674 1.61881C0.360958 1.79731 0.497311 2.16804 0.497311 2.16804C0.497311 2.16804 2.85974 7.81986 5.53516 10.6685C7.98848 13.2795 10.7734 13.1083 10.7734 13.1083H12.0357Z" />
</svg>
