<svg width="863" height="222" viewBox="0 0 863 222" fill="none">
    <path class="painting-cost__details js-paintin-detail" data-detail="roof" d="M399.5 21.0241L381 16.0241C415 5.52379 442 2.02372 472.5 0.523716C503 -0.976284 560.5 1.02372 581.5 3.02372C598.3 4.62372 644.833 13.0237 666 17.0237L669.5 22.5237C649.667 19.0238 604.3 11.2241 581.5 8.0241C553 4.0241 490 5.5241 463 8.0241C441.4 10.0241 411.667 17.5241 399.5 21.0241Z" fill="#A50034" fill-opacity="0.4"/>
    <path class="painting-cost__details js-paintin-detail" data-detail="baggage" d="M850.5 138.5C850.9 139.7 855 143.667 857 145.5C855.5 129.667 852.1 97.1 850.5 93.5C848.9 89.9 847.5 84.6667 847 82.5C847 78.1667 846.8 69.4 846 69C845.2 68.6 820.333 67.5 808 67L842.5 78.5L848.5 93.5C849.833 99.5 852.3 111.9 851.5 113.5C850.7 115.1 847.5 114.833 846 114.5C847.333 122 850.1 137.3 850.5 138.5Z" fill="#A50034" fill-opacity="0.4"/>
    <path class="painting-cost__details js-paintin-detail" data-detail="door-1" d="M276.831 222L274.331 218.5C273.164 203.5 270.531 168.3 269.331 147.5C267.831 121.5 271.831 109.5 273.331 103.5C274.531 98.7 277.498 95.1667 278.831 94C300.498 93.8333 344.631 93.4 347.831 93C351.031 92.6 351.164 88.8333 350.831 87L478.831 81C479.331 83.5 477.331 93 475.831 101C474.631 107.4 474.331 121 474.331 127L475.831 218.5L276.831 222Z" fill="#A50034" fill-opacity="0.4"/>
    <path class="painting-cost__details js-paintin-detail" data-detail="bumper-1" d="M44.7037 221.045C21.1037 221.445 8.87037 218.545 5.7037 217.045C2.50378 213.845 9.37034 210.378 13.2036 209.045V201.545C12.3703 200.878 10.1036 198.845 7.7037 196.045C5.30378 193.245 5.3704 190.878 5.7037 190.045C5.2037 188.712 3.7037 184.945 1.7037 180.545C-0.296296 176.145 -0.12963 166.378 0.203704 162.045H7.7037C10.1037 162.045 22.7037 159.711 28.7037 158.545C61.5037 152.945 84.7037 155.211 92.2037 157.045C75.4037 179.445 75.537 209.045 77.7037 221.045C76.537 220.878 68.3037 220.645 44.7037 221.045Z" fill="#A50034" fill-opacity="0.4"/>
    <path class="painting-cost__details js-paintin-detail" data-detail="wing-2" d="M670.5 96.0097C675.3 88.8097 675.833 81.6764 675.5 79.0097C754.7 66.6097 787.833 95.5097 794.5 111.51L772 145.01H749C726.5 125.51 683 117.51 652 145.01C627.2 167.01 623.333 199.843 624.5 213.51H579C587.5 203.01 605.7 180.21 610.5 173.01C616.5 164.01 638 135.51 641.5 132.01C645 128.51 664.5 105.01 670.5 96.0097Z" fill="#A50034" fill-opacity="0.4"/>
    <path class="painting-cost__details js-paintin-detail" data-detail="door-2" d="M475 127L476.5 218.5L571 217.5L578 213.5C586.5 203 604.7 180.2 609.5 173C615.5 164 637 135.5 640.5 132C644 128.5 663.5 105 669.5 96C674.3 88.8 674.833 81.6667 674.5 79C674 78 671.7 75.5 666.5 73.5C661.3 71.5 655.333 66.3333 653 64C642.5 65.6667 617.2 69.6 600 72C582.8 74.4 512.5 79 479.5 81C480 83.5 478 93 476.5 101C475.3 107.4 475 121 475 127Z" fill="#A50034" fill-opacity="0.4"/>
    <path class="painting-cost__details js-paintin-detail" data-detail="wing-1" d="M274 219.427C272.833 204.427 270.2 169.227 269 148.427C267.545 123.201 271.266 111.154 272.859 104.979C240.073 103.944 172.8 102.185 166 103.427C157.5 104.979 125.5 103.927 90 122.927L71 136.927L96.5 152.427C102.333 144.76 119.9 129.227 143.5 128.427C173 127.427 194.5 140.927 206 157.427C217.5 173.927 221.5 185.427 224.5 201.427C226.9 214.227 226.5 219.76 226 220.927L274 219.427Z" fill="#A50034" fill-opacity="0.4"/>
    <path class="painting-cost__details js-paintin-detail" data-detail="hood" d="M228.5 94C222.5 95.6 185.667 100.334 168 102.5C159.73 104.01 129.34 102.555 95 120C61.3768 119.5 47.5 125 39 128.5C30.5 132 19 139 10 144C11 141 13.7778 138 16 136C21 131.5 35.6667 124.667 44 120.5C97.5 96.0003 136.5 91 149 89C159 87.4 204.833 81.6667 226.5 79C225.5 79.3333 224.1 80.3 226.5 81.5C228.9 82.7 243.5 83 250.5 83C245.667 86 234.5 92.4 228.5 94Z" fill="#A50034" fill-opacity="0.4"/>
    <path class="painting-cost__details js-paintin-detail" data-detail="bumper-2" d="M771 145.5H748C755.5 152.167 770.9 173.7 772.5 206.5C795.333 204.5 843.4 199.4 853 195C855.167 192.5 859.8 186.4 861 182C861 182 863.067 159 862 156.5C860.448 152.864 858.5 151 856.5 148C854.5 145 853 143.5 850 139C843.5 140 833.5 143.5 771 145.5Z" fill="#A50034" fill-opacity="0.4"/>
</svg> 