<?xml version="1.0" encoding="utf-8"?><svg width="50" height="50" fill="none" xmlns="http://www.w3.org/2000/svg" viewBox="0 0 50 50"><path d="M15.625 25a8.334 8.334 0 100-16.668 8.334 8.334 0 000 16.668zm0-14.584a6.25 6.25 0 110 12.5 6.25 6.25 0 010-12.5zM19.792 27.083h-8.334a9.396 9.396 0 00-9.375 9.396v4.166a1.042 1.042 0 002.084 0V36.48a7.292 7.292 0 017.291-7.313h8.334a7.292 7.292 0 017.291 7.292v4.167a1.042 1.042 0 002.084 0v-4.167a9.395 9.395 0 00-9.375-9.375zM37.5 8.333a10.417 10.417 0 100 20.834 10.417 10.417 0 000-20.834zm0 18.75a8.333 8.333 0 110-16.666 8.333 8.333 0 010 16.666z" fill="#A50034"/><path d="M39.73 15.792l-2.96 3.646-1.54-1.646a1.048 1.048 0 00-1.48-.042 1.048 1.048 0 00-.042 1.48l2.355 2.5c.196.205.465.324.75.333a1.064 1.064 0 00.77-.375l3.709-4.583a1.042 1.042 0 10-1.605-1.313h.042z" fill="#A50034"/></svg>