<?xml version="1.0" encoding="utf-8"?><svg width="50" height="50" fill="none" xmlns="http://www.w3.org/2000/svg" viewBox="0 0 50 50"><path d="M39.583 7.02h-7.562l-.334-1.333a1.02 1.02 0 00-1-.791h-1.812V3.125a1.041 1.041 0 00-1.042-1.042h-5.666a1.042 1.042 0 00-1.042 1.042v1.77h-1.813a1.02 1.02 0 00-1 .792l-.333 1.334h-7.562a2.083 2.083 0 00-2.084 2.083v36.729a2.083 2.083 0 002.084 2.083h26.041a1.041 1.041 0 100-2.083H10.417V9.103h7.02l-.562 2.23a1.126 1.126 0 00.188.896 1.063 1.063 0 00.833.396h14.208a1.062 1.062 0 00.834-.396 1.124 1.124 0 00.187-.896l-.563-2.23h7.021v33.605a1.042 1.042 0 102.084 0V9.104a2.083 2.083 0 00-2.084-2.083zM19.23 10.542l.896-3.562h2.083a1.042 1.042 0 001.042-1.042v-1.77h3.583v1.77a1.041 1.041 0 001.042 1.042h2.083l.896 3.562H19.23z" fill="#A50034"/><path d="M22.354 19.813a1.062 1.062 0 00-1.479.166l-2.958 3.646-1.542-1.646a1.022 1.022 0 00-1.458 0 1.04 1.04 0 000 1.48l2.354 2.5a1 1 0 00.75.333 1.04 1.04 0 00.729-.438l3.708-4.562a1.083 1.083 0 00-.104-1.48zM34.375 22.917h-8.333a1.041 1.041 0 100 2.083h8.333a1.042 1.042 0 100-2.083zM20.833 32.48l-2.916 3.645-1.542-1.646a1.022 1.022 0 00-1.458 0 1.04 1.04 0 000 1.48l2.354 2.5a1 1 0 00.75.333 1.04 1.04 0 00.729-.438l3.708-4.562a1.083 1.083 0 00-.145-1.48 1.062 1.062 0 00-1.48.167zM34.375 35.417h-8.333a1.041 1.041 0 100 2.083h8.333a1.042 1.042 0 100-2.083z" fill="#A50034"/></svg>