<?xml version="1.0" encoding="utf-8"?><svg width="50" height="50" fill="none" xmlns="http://www.w3.org/2000/svg" viewBox="0 0 50 50"><path d="M45.833 19.791H30.5l-3.917-5.02a5.23 5.23 0 00-4.02-1.917H8.188a2.083 2.083 0 00-1.938-1.396H3.125a1.042 1.042 0 000 2.083H6.25v14.584H3.125a1.041 1.041 0 100 2.083H6.25a2.083 2.083 0 002.083-1.938h1.834a6.958 6.958 0 005.416 2.813h1.084v5.375a2.083 2.083 0 002.083 2.083h27.083a2.083 2.083 0 002.084-2.083V21.875a2.083 2.083 0 00-2.084-2.084zm0 4.167H27.208l-2.083-2.083h20.708v2.083zM15.563 29a4.981 4.981 0 01-3.98-2.313 1.042 1.042 0 00-.896-.5H8.334v-11.25h14.23A3.124 3.124 0 0125 16.125l2.854 3.666h-4.687l-3-3.125-1.417 1.5 3.292 3.375 3.937 4.021.23.23.354.353c-.226.271-.533.461-.875.542a2.896 2.896 0 01-2.438-.208c-.75-.542-3.146-2.688-4.02-3.459a1.063 1.063 0 00-1.168-.104 5.103 5.103 0 01-5.208-.646 1.083 1.083 0 00-1.479.146 1.023 1.023 0 00.146 1.459 7.562 7.562 0 005.146 1.5V29h-1.105zm3.187 7.458v-11c1.02.896 2.583 2.27 3.25 2.75a4.938 4.938 0 006.083-.625 2.082 2.082 0 00.5-1.542h17.25v10.417H18.75z" fill="#A50034"/><path d="M40.625 32.292h-4.167a1.042 1.042 0 100 2.083h4.167a1.041 1.041 0 100-2.083zM19.396 18.458a1.042 1.042 0 100-2.083 1.042 1.042 0 000 2.083z" fill="#A50034"/></svg>