<?xml version="1.0" encoding="utf-8"?><svg width="50" height="50" fill="none" xmlns="http://www.w3.org/2000/svg" viewBox="0 0 50 50"><path d="M43.082 19.545a6.497 6.497 0 00-4.59-1.818h-7.786v-6.363a6.332 6.332 0 00-1.882-4.5A6.459 6.459 0 0024.28 5h-.918c-.487 0-.954.192-1.299.533a1.809 1.809 0 00-.537 1.285v7.636a6.82 6.82 0 01-.829 3.263 6.898 6.898 0 01-2.293 2.483 6.915 6.915 0 01-3.856 1.164h-.57a2.73 2.73 0 00-.987-1.306 2.774 2.774 0 00-1.564-.513H7.754c-.73 0-1.43.288-1.947.8A2.714 2.714 0 005 22.272v18.182c0 .723.29 1.416.807 1.928a2.768 2.768 0 001.947.799H9.59a.923.923 0 00.65-.267.904.904 0 000-1.285.923.923 0 00-.65-.266H7.754a.923.923 0 01-.649-.267.905.905 0 01-.269-.642V22.273c0-.241.097-.473.27-.643a.923.923 0 01.648-.266h3.673c.243 0 .477.095.649.266.172.17.269.402.269.643v13.8a6.257 6.257 0 00.601 2.703c.4.845.985 1.593 1.712 2.188l3.103 2.563A6.503 6.503 0 0021.874 45h14.267a6.447 6.447 0 004.153-1.502 6.33 6.33 0 002.182-3.807L44.9 25.236a6.376 6.376 0 00-.203-3.066 6.426 6.426 0 00-1.615-2.625zm0 5.31L40.64 39.4a4.517 4.517 0 01-1.55 2.706 4.6 4.6 0 01-2.949 1.076H21.874a4.637 4.637 0 01-2.938-1.055l-3.121-2.582a4.516 4.516 0 01-1.222-1.561 4.473 4.473 0 01-.43-1.93V23.182h.367a8.876 8.876 0 006.226-2.562 8.702 8.702 0 002.587-6.166V6.818h.918a4.63 4.63 0 013.246 1.332 4.506 4.506 0 011.345 3.214v7.272c0 .242.096.473.269.643.172.17.405.266.649.266h8.703a4.613 4.613 0 011.793.349c.568.234 1.082.58 1.512 1.015a4.628 4.628 0 011.169 1.885c.23.712.283 1.47.153 2.206l-.018-.145z" fill="#A50034"/></svg>