<?xml version="1.0" encoding="utf-8"?><svg width="17" height="17" xmlns="http://www.w3.org/2000/svg" viewBox="0 0 17 17"><path fill-rule="evenodd" clip-rule="evenodd" d="M16.746 4.99c.036.638.054 1.788.054 3.45 0 1.662-.018 2.812-.054 3.45-.073 1.51-.523 2.679-1.35 3.506-.827.827-1.996 1.277-3.505 1.35-.639.036-1.79.054-3.45.054-1.663 0-2.813-.018-3.452-.054-1.509-.073-2.677-.523-3.505-1.35C.657 14.569.207 13.4.134 11.89.099 11.252.08 10.1.08 8.44c0-1.663.018-2.813.055-3.452.072-1.509.522-2.677 1.35-3.505C2.311.657 3.48.207 4.988.134 5.628.099 6.78.08 8.44.08c1.662 0 2.812.018 3.45.055 1.51.072 2.679.522 3.506 1.35.827.827 1.277 1.995 1.35 3.504zm-1.923-1.034c0-.356-.126-.66-.379-.913a1.245 1.245 0 00-.913-.379c-.355 0-.66.126-.912.38-.253.252-.38.556-.38.912s.127.66.38.913c.252.253.557.379.912.379.356 0 .66-.126.913-.38.253-.252.38-.556.38-.912zM11.641 8.44a3.201 3.201 0 11-6.403 0 3.201 3.201 0 016.403 0zm1.358 0a4.56 4.56 0 11-9.12 0 4.56 4.56 0 019.12 0z"/></svg>