<?xml version="1.0" encoding="utf-8"?><svg width="54" height="54" fill="none" xmlns="http://www.w3.org/2000/svg" viewBox="0 0 54 54"><g clip-path="url(#anclip0_34_722)"><path d="M30.32 30.96c0 .075.02.115.065.115a.201.201 0 00.1-.035l12.39-7.725c.22-.14.415-.215.715-.215h2.725c.42 0 .7.27.7.675v4.985c0 .6-.135.95-.7 1.275l-3.305 1.9c-.04.03-.08.04-.11.04-.04 0-.075-.025-.075-.135v-5.825c0-.065-.02-.115-.07-.115-.035 0-.06.015-.095.035L33.6 31.58c-.255.16-.46.205-.695.205h-6.01c-.415 0-.7-.27-.7-.67V23.93c0-.05-.025-.095-.065-.095a.193.193 0 00-.1.03l-5.975 3.445c-.06.035-.075.07-.075.095 0 .025.01.045.055.085l4.265 4.09c.055.055.095.1.095.14 0 .045-.06.07-.135.07H20.4c-.3 0-.535-.045-.7-.2l-2.59-2.485c-.03-.03-.05-.04-.075-.04a.224.224 0 00-.085.025l-4.325 2.5c-.26.15-.44.195-.7.195H7.94c-.42 0-.7-.27-.7-.67V26.22c0-.61.135-.95.7-1.275l3.325-1.915a.165.165 0 01.09-.025c.045 0 .075.05.075.155v6.55c0 .065.02.1.07.1.025 0 .06-.02.095-.04l11.23-6.475c.265-.155.43-.2.74-.2h6.045c.42 0 .7.27.7.67l.01 7.195z" fill="#000"/></g><defs><clipPath id="anclip0_34_722"><path fill="#fff" transform="translate(7 23)" d="M0 0h40v9H0z"/></clipPath></defs></svg>