<?xml version="1.0" encoding="utf-8"?><svg width="26" height="26" fill="none" xmlns="http://www.w3.org/2000/svg" viewBox="0 0 26 26"><circle cx="13" cy="13" r="13" fill="#A50034"/><path d="M13.464 18.507l.442.407-.442-.407zm-.928 0l-.442.407.442-.407zm4.53-6.84c0 .388-.145.9-.432 1.507-.283.597-.677 1.236-1.117 1.866-.881 1.259-1.911 2.428-2.494 3.061l.883.813c.598-.65 1.669-1.864 2.594-3.186.462-.661.897-1.361 1.218-2.041.317-.67.549-1.371.549-2.02h-1.2zm-4.09 6.434c-.582-.633-1.612-1.802-2.493-3.06-.44-.63-.834-1.27-1.117-1.867-.287-.607-.433-1.12-.433-1.507h-1.2c0 .649.232 1.35.548 2.02.322.68.757 1.38 1.22 2.041.924 1.322 1.995 2.537 2.593 3.186l.883-.813zm-4.043-6.434A4.067 4.067 0 0113 7.6V6.4a5.267 5.267 0 00-5.267 5.267h1.2zM13 7.6a4.067 4.067 0 014.067 4.067h1.2A5.267 5.267 0 0013 6.4v1.2zm.023 10.501a.04.04 0 01-.013.01.023.023 0 01-.01.002c-.003 0-.007 0-.01-.002a.04.04 0 01-.013-.01l-.883.813c.49.532 1.322.532 1.812 0l-.883-.813zm1.377-6.434a1.4 1.4 0 01-1.4 1.4v1.2a2.6 2.6 0 002.6-2.6h-1.2zm-1.4 1.4a1.4 1.4 0 01-1.4-1.4h-1.2a2.6 2.6 0 002.6 2.6v-1.2zm-1.4-1.4a1.4 1.4 0 011.4-1.4v-1.2a2.6 2.6 0 00-2.6 2.6h1.2zm1.4-1.4a1.4 1.4 0 011.4 1.4h1.2a2.6 2.6 0 00-2.6-2.6v1.2z" fill="#fff"/></svg>