<?xml version="1.0" encoding="utf-8"?><svg width="54" height="54" fill="none" xmlns="http://www.w3.org/2000/svg" viewBox="0 0 54 54"><g clip-path="url(#asclip0_34_706)" fill="#000"><path d="M31.017 28.47c-.034.008-.174.008-.234.008h-4.487v1.047h4.565c.035 0 .304 0 .356-.009.93-.087 1.357-.863 1.357-1.544 0-.698-.444-1.448-1.287-1.526-.165-.018-.304-.018-.365-.018h-2.983c-.13 0-.278-.008-.33-.026-.235-.06-.322-.27-.322-.445 0-.157.087-.366.33-.436a1.24 1.24 0 01.313-.026h4.305v-1.03H27.86c-.183 0-.322.01-.435.027-.748.105-1.27.706-1.27 1.474 0 .628.392 1.36 1.253 1.483.156.017.374.017.47.017h2.904c.052 0 .182 0 .208.01.33.043.444.287.444.505 0 .21-.13.436-.418.488zM22.513 28.47c-.035.008-.174.008-.226.008h-4.495v1.047h4.565c.035 0 .304 0 .356-.009.93-.087 1.357-.863 1.357-1.544 0-.698-.444-1.448-1.287-1.526-.165-.018-.305-.018-.365-.018h-2.983c-.13 0-.278-.008-.33-.026-.235-.06-.322-.27-.322-.445 0-.157.087-.366.33-.436a1.24 1.24 0 01.313-.026h4.305v-1.03h-4.374c-.183 0-.322.01-.435.027-.748.105-1.27.706-1.27 1.474 0 .628.392 1.36 1.252 1.483.157.017.374.017.47.017h2.904c.053 0 .183 0 .21.01.33.043.443.287.443.505a.48.48 0 01-.418.488zM15.452 24.43h-1.13v5.12h1.13v-5.12zM11.826 29.55v-5.12h-1.13v3.821l-3.766-3.82H5.478v5.12h1.13v-3.838L10.4 29.55h1.426zM48.183 24.43v3.821l-3.766-3.82h-1.452v5.12h1.13v-3.838l3.783 3.838h1.426v-5.12h-1.121zM37.078 24.43l-3.183 5.12h1.374l.566-.915h3.713l.565.916h1.365l-3.183-5.12h-1.217zm1.887 3.237h-2.548l1.279-2.059 1.27 2.059zM11.765 21.526C14.044 14.854 20.322 10.37 27.4 10.37c7.078 0 13.365 4.484 15.635 11.156l.017.053h4.983v-.602l-2.07-.244c-1.278-.149-1.547-.716-1.895-1.43l-.087-.175c-2.991-6.385-9.505-10.52-16.583-10.52-7.087 0-13.591 4.135-16.582 10.537l-.087.175c-.348.715-.618 1.282-1.896 1.43l-2.07.244v.602h4.974l.026-.07zM43.052 32.412l-.017.052c-2.279 6.673-8.557 11.148-15.635 11.148-7.078 0-13.365-4.484-15.635-11.156l-.017-.053H6.774v.602l2.07.244c1.277.149 1.547.716 1.895 1.43l.087.175c2.991 6.403 9.504 10.537 16.582 10.537 7.079 0 13.592-4.134 16.583-10.528l.087-.174c.348-.716.617-1.283 1.896-1.43l2.07-.245v-.602h-4.992z"/></g><defs><clipPath id="asclip0_34_706"><path fill="#fff" transform="translate(5.478 8.608)" d="M0 0h43.826v36.783H0z"/></clipPath></defs></svg>