<?xml version="1.0" encoding="utf-8"?><svg width="50" height="50" xmlns="http://www.w3.org/2000/svg" viewBox="0 0 50 50"><path d="M26.451 42.21l.81.746-.81-.745zm-2.902 0l-.81.746.81-.745zm14.934-21.377c0 1.382-.511 3.104-1.427 5.041-.907 1.92-2.166 3.957-3.557 5.946-2.78 3.975-6.026 7.658-7.857 9.646l1.619 1.49c1.858-2.018 5.178-5.784 8.04-9.875 1.432-2.046 2.765-4.196 3.744-6.267.97-2.052 1.638-4.122 1.638-5.98h-2.2zM24.358 41.466c-1.83-1.988-5.076-5.671-7.857-9.646-1.391-1.989-2.65-4.027-3.557-5.946-.916-1.937-1.427-3.66-1.427-5.04h-2.2c0 1.858.668 3.928 1.638 5.98.98 2.072 2.312 4.221 3.743 6.267 2.863 4.091 6.183 7.857 8.041 9.875l1.619-1.49zM11.517 20.833C11.517 13.387 17.553 7.35 25 7.35v-2.2c-8.662 0-15.683 7.022-15.683 15.683h2.2zM25 7.35c7.447 0 13.483 6.037 13.483 13.483h2.2C40.683 12.172 33.662 5.15 25 5.15v2.2zm.642 34.116a.86.86 0 01-1.284 0l-1.619 1.49a3.059 3.059 0 004.522 0l-1.619-1.49zm4.508-20.633a5.15 5.15 0 01-5.15 5.15v2.2a7.35 7.35 0 007.35-7.35h-2.2zM25 25.983a5.15 5.15 0 01-5.15-5.15h-2.2a7.35 7.35 0 007.35 7.35v-2.2zm-5.15-5.15a5.15 5.15 0 015.15-5.15v-2.2a7.35 7.35 0 00-7.35 7.35h2.2zm5.15-5.15a5.15 5.15 0 015.15 5.15h2.2a7.35 7.35 0 00-7.35-7.35v2.2z"/></svg>