<?xml version="1.0" encoding="utf-8"?><svg width="16" height="17" fill="none" xmlns="http://www.w3.org/2000/svg" viewBox="0 0 16 17"><path d="M7.333 9.558V1.834a.667.667 0 011.334 0v7.724l2.195-2.196a.667.667 0 01.943.943L8.47 11.638a.667.667 0 01-.942 0L4.195 8.305a.667.667 0 11.943-.943l2.195 2.196z" fill="#A50034"/><path d="M1.333 10.5c.369 0 .667.299.667.667v2.667c0 .368.299.666.667.666h10.666a.667.667 0 00.667-.666v-2.667a.667.667 0 011.333 0v2.667a2 2 0 01-2 2H2.667a2 2 0 01-2-2v-2.667c0-.368.298-.667.666-.667z" fill="#A50034"/></svg>