<?xml version="1.0" encoding="utf-8"?><svg width="60" height="60" fill="none" xmlns="http://www.w3.org/2000/svg" viewBox="0 0 60 60"><path d="M29.966 52.693c-7.23 0-14.481-.302-21.711-.908A4.899 4.899 0 013.8 46.92v-7.97a9.506 9.506 0 013.48-7.509l-3.713-.938a2.571 2.571 0 01-1.727-3.527 4.389 4.389 0 014.005-2.603h3.6a3.399 3.399 0 012.488 1.555l2.66-4.356a8.674 8.674 0 017.343-4.124h16.126a8.677 8.677 0 017.342 4.123l2.66 4.355a3.359 3.359 0 012.423-1.551h3.666a4.389 4.389 0 014.004 2.595c.143.328.218.682.22 1.04a2.562 2.562 0 01-1.946 2.495l-3.74.943.06.052a9.857 9.857 0 013.222 7.419v7.995a4.9 4.9 0 01-4.455 4.865 251.97 251.97 0 01-21.553.914zM9.366 25.99l-3.522.004a2.766 2.766 0 00-2.52 1.637.952.952 0 00.021.801.923.923 0 00.617.498l5.594 1.408a.81.81 0 01.103 1.54 4.45 4.45 0 00-.905.496 7.813 7.813 0 00-3.329 6.574v7.97a3.268 3.268 0 002.967 3.252 256.142 256.142 0 0042.994 0 3.27 3.27 0 002.97-3.252v-8a8.234 8.234 0 00-2.677-6.205 3.876 3.876 0 00-1.264-.819.811.811 0 01.047-1.559l5.58-1.407a.956.956 0 00.715-.917 1.01 1.01 0 00-.086-.395 2.763 2.763 0 00-2.514-1.622h-3.601c-.06.012-1.266.196-1.501 1.903a.81.81 0 01-1.495.312l-3.533-5.791a7.043 7.043 0 00-5.96-3.348H21.937a7.04 7.04 0 00-5.96 3.349l-3.537 5.79a.81.81 0 01-1.495-.312c-.235-1.708-1.441-1.891-1.578-1.907z" fill="#4D4D4F"/><path d="M43.366 32.225H16.634a1.523 1.523 0 01-1.33-2.27l3.325-5.924a4.252 4.252 0 013.704-2.168h15.332a4.251 4.251 0 013.703 2.168l3.325 5.92a1.524 1.524 0 01-1.33 2.27l.003.004zm-26.564-1.622h26.396l-3.243-5.775a2.632 2.632 0 00-2.29-1.34h-15.33a2.63 2.63 0 00-2.29 1.34l-3.243 5.775zM36.255 44.99h-12.47a2.271 2.271 0 01-2.189-1.631l-.453-1.521a2.324 2.324 0 012.225-2.987h13.303a2.323 2.323 0 012.226 2.987l-.452 1.517a2.299 2.299 0 01-2.19 1.636zm-12.887-4.515a.704.704 0 00-.672.902l.453 1.515a.66.66 0 00.636.474h12.47a.668.668 0 00.637-.474l.452-1.518a.702.702 0 00-.672-.902l-13.304.003zM16.946 44.79c-.156 0-.312-.02-.463-.06l-5.757-1.578a3.376 3.376 0 01-2.388-4.196 3.616 3.616 0 013.457-2.616c.286.003.57.039.849.106l.486.14a7.4 7.4 0 015.309 5.194l.21.758a1.78 1.78 0 01-1.702 2.252h-.001zm-5.154-6.828a1.986 1.986 0 00-1.896 1.444 1.751 1.751 0 001.241 2.18h.01l5.758 1.577a.153.153 0 00.144-.044.153.153 0 00.038-.146l-.21-.758a5.788 5.788 0 00-4.167-4.061l-.47-.136a2.226 2.226 0 00-.446-.056h-.002zM43.054 44.79a1.777 1.777 0 01-1.703-2.252l.211-.758a7.415 7.415 0 015.338-5.202l.41-.119c.293-.075.595-.115.898-.12a3.617 3.617 0 013.458 2.619 3.374 3.374 0 01-2.39 4.194l-5.753 1.576c-.153.04-.31.061-.469.061zm5.154-6.828a2.32 2.32 0 00-.496.067l-.39.115a5.802 5.802 0 00-4.197 4.07l-.21.758a.144.144 0 00.038.15.142.142 0 00.149.04l5.752-1.575h.01a1.751 1.751 0 001.244-2.181 1.989 1.989 0 00-1.902-1.444h.002zM51.486 57.23h-4.928a2.445 2.445 0 01-2.443-2.444v-3.335a.81.81 0 111.622 0v3.335a.822.822 0 00.82.822h4.93a.823.823 0 00.82-.822v-4.332a.811.811 0 011.622 0v4.332a2.446 2.446 0 01-2.443 2.444zM13.442 57.23H8.514a2.446 2.446 0 01-2.447-2.444v-4.332a.81.81 0 111.622 0v4.332a.823.823 0 00.825.822h4.932a.823.823 0 00.82-.822v-3.335a.81.81 0 111.622 0v3.335a2.445 2.445 0 01-2.446 2.444zM41.813 14.816a5.562 5.562 0 01-5.002-3.071H23.189a5.613 5.613 0 01-10.21-.442.81.81 0 01.752-1.116h2.259l.956-1.395-.954-1.396h-2.259a.81.81 0 01-.751-1.116 5.614 5.614 0 0110.207-.437h13.622a5.612 5.612 0 0110.208.439.81.81 0 01-.752 1.114h-2.26l-.953 1.396.95 1.396h2.26a.811.811 0 01.752 1.114 5.585 5.585 0 01-5.203 3.514zm-19.148-4.693h14.676a.811.811 0 01.757.52 3.989 3.989 0 006.74 1.166h-1.26a.812.812 0 01-.67-.354l-1.502-2.206a.81.81 0 010-.913l1.503-2.207a.812.812 0 01.67-.355h1.259a3.991 3.991 0 00-6.743 1.171.811.811 0 01-.756.52H22.663a.81.81 0 01-.756-.52 3.992 3.992 0 00-6.745-1.17h1.256a.81.81 0 01.67.354l1.503 2.207a.81.81 0 010 .913l-1.503 2.206a.812.812 0 01-.67.354h-1.256a3.99 3.99 0 006.746-1.167.812.812 0 01.757-.519z" fill="#4D4D4F"/></svg>