<?xml version="1.0" encoding="utf-8"?><svg width="60" height="60" fill="none" xmlns="http://www.w3.org/2000/svg" viewBox="0 0 60 60"><path d="M57.568 54.73H45.405a.811.811 0 01-.81-.811v-2.635a3.045 3.045 0 013.04-3.04h7.703a3.044 3.044 0 013.04 3.04v2.635a.81.81 0 01-.81.81zm-11.352-1.622h10.54v-1.824a1.42 1.42 0 00-1.418-1.42h-7.703a1.42 1.42 0 00-1.419 1.42v1.824z" fill="#4D4D4F"/><path d="M53.919 49.865h-4.865a.81.81 0 01-.81-.81V8.513a3.243 3.243 0 016.486 0v40.54a.81.81 0 01-.811.811zm-4.054-1.622h3.243V8.514a1.622 1.622 0 00-3.243 0v39.73zM14.595 54.73H2.432a.811.811 0 01-.81-.811v-2.635a3.045 3.045 0 013.04-3.04h7.703a3.044 3.044 0 013.04 3.04v2.635a.81.81 0 01-.81.81zM3.243 53.108h10.54v-1.824a1.42 1.42 0 00-1.418-1.42H4.662a1.42 1.42 0 00-1.419 1.42v1.824z" fill="#4D4D4F"/><path d="M10.946 49.865H6.08a.81.81 0 01-.81-.81V8.513a3.243 3.243 0 016.486 0v40.54a.81.81 0 01-.811.811zm-4.054-1.622h3.243V8.514a1.622 1.622 0 10-3.243 0v39.73zM49.054 40.54h-15.81a.811.811 0 010-1.621h15.81a.811.811 0 010 1.622z" fill="#4D4D4F"/><path d="M24.831 40.54H10.946a.811.811 0 010-1.621H24.83a.811.811 0 010 1.622zM40.493 40.54H36.78a1.497 1.497 0 01-1.494-1.495v-2.857a.811.811 0 011.621 0v2.73h3.46v-2.73a.81.81 0 111.622 0v2.857a1.497 1.497 0 01-1.495 1.495z" fill="#4D4D4F"/><path d="M23.123 40.54H19.41a1.497 1.497 0 01-1.49-1.495v-2.857a.811.811 0 011.622 0v2.73H23v-2.73a.81.81 0 111.62 0v2.857a1.497 1.497 0 01-1.497 1.495z" fill="#4D4D4F"/><path d="M42.802 37H17.099a2.137 2.137 0 01-2.132-2.135v-4.062a5.39 5.39 0 015.384-5.383h19.202a5.39 5.39 0 015.383 5.383v4.062a2.136 2.136 0 01-2.134 2.134zm-22.45-9.959a3.765 3.765 0 00-3.763 3.762v4.062a.512.512 0 00.513.512h25.702a.512.512 0 00.51-.512v-4.062a3.765 3.765 0 00-3.761-3.762H20.35z" fill="#4D4D4F"/><path d="M37.965 33.95a2.559 2.559 0 11-.002-5.118 2.559 2.559 0 01.002 5.117zm0-3.498a.938.938 0 10-.002 1.875.938.938 0 00.002-1.875zM21.939 33.95a2.56 2.56 0 110-5.119 2.56 2.56 0 010 5.119zm0-3.498a.938.938 0 100 1.876.938.938 0 000-1.876zM18.835 27.314a.811.811 0 01-.765-1.079l1.832-5.264a.821.821 0 01.044-.102 4.048 4.048 0 013.618-2.22h12.774a4.048 4.048 0 013.617 2.22.865.865 0 01.044.102l1.839 5.263a.811.811 0 11-1.532.535l-1.82-5.207a2.432 2.432 0 00-2.148-1.292H23.564a2.432 2.432 0 00-2.15 1.29L19.6 26.77a.81.81 0 01-.766.545z" fill="#4D4D4F"/><path d="M41.223 27.357a.812.812 0 01-.076-1.622 3.006 3.006 0 002.419-1.895.81.81 0 111.505.606 4.65 4.65 0 01-3.848 2.91zM18.777 27.356h-.081a4.65 4.65 0 01-3.77-2.903.81.81 0 111.505-.606 3.007 3.007 0 002.419 1.895.812.812 0 11-.077 1.622l.004-.008z" fill="#4D4D4F"/></svg>