<?xml version="1.0" encoding="utf-8"?><svg width="60" height="60" fill="none" xmlns="http://www.w3.org/2000/svg" viewBox="0 0 60 60"><path d="M57.568 48.948H46.974a.81.81 0 01-.736-.47l-5.561-12.05H23.556a2.432 2.432 0 01-2.433-2.432v-9.277a2.432 2.432 0 012.433-2.432h26.612a2.432 2.432 0 012.433 2.433v10.72l5.703 12.358a.81.81 0 01-.736 1.15zm-10.075-1.621H56.3l-5.246-11.37a.804.804 0 01-.075-.34V24.72a.811.811 0 00-.81-.811H23.555a.811.811 0 00-.811.81v9.277a.81.81 0 00.81.81h17.64a.811.811 0 01.736.472l5.562 12.049z" fill="#4D4D4F"/><path d="M21.934 33h-4.865a.811.811 0 110-1.622h4.054v-4.156H17.07a.81.81 0 110-1.621h4.865a.81.81 0 01.81.81v5.778a.811.811 0 01-.81.811z" fill="#4D4D4F"/><path d="M13.165 36.331h-1.753a.81.81 0 01-.81-.81V23.076a.81.81 0 01.81-.811h1.753a4.77 4.77 0 014.764 4.764v4.54a4.77 4.77 0 01-4.764 4.762zm-.942-1.621h.942a3.146 3.146 0 003.143-3.144v-4.54a3.146 3.146 0 00-3.143-3.143h-.942V34.71zM7.489 30.109H2.432a.81.81 0 110-1.622H7.49a.81.81 0 110 1.622zM7.09 25.82a.809.809 0 01-.305-.06l-4.26-1.734a.811.811 0 01.611-1.502l4.26 1.733a.81.81 0 01-.306 1.563zM2.831 36.132a.81.81 0 01-.306-1.562l4.26-1.732a.81.81 0 11.611 1.501l-4.26 1.733c-.096.04-.2.06-.305.06zM39.251 23.907h-3.908a.81.81 0 01-.81-.811V19.62a.81.81 0 111.621 0v2.664h2.287V19.62a.81.81 0 111.621 0v3.475a.81.81 0 01-.81.81z" fill="#4D4D4F"/><path d="M39.25 20.433a.811.811 0 11-.048-1.622 1.716 1.716 0 001.606-1.71v-4.428h-7.022V17.1a1.716 1.716 0 001.607 1.711.81.81 0 01.76.86.796.796 0 01-.86.759 3.34 3.34 0 01-3.128-3.33v-4.735a1.314 1.314 0 011.313-1.313h7.638a1.314 1.314 0 011.314 1.313V17.1a3.34 3.34 0 01-3.128 3.333h-.051zM42.973 28.31H30a.81.81 0 110-1.622h12.973a.81.81 0 110 1.621z" fill="#4D4D4F"/></svg>