<?xml version="1.0" encoding="utf-8"?><svg width="60" height="60" fill="none" xmlns="http://www.w3.org/2000/svg" viewBox="0 0 60 60"><path fill-rule="evenodd" clip-rule="evenodd" d="M46.47 3.9c.33-.33.776-.514 1.242-.514h8.002a.9.9 0 01.9.9v51.428a.9.9 0 01-.9.9H4a.9.9 0 110-1.8h41.184L44.15 53.78a4.537 4.537 0 010-6.415 2.736 2.736 0 000-3.87 4.537 4.537 0 010-6.416 2.737 2.737 0 000-3.87 4.537 4.537 0 010-6.416 2.737 2.737 0 000-3.87 4.537 4.537 0 010-6.416 2.737 2.737 0 000-3.87 4.537 4.537 0 010-6.415l2.32-2.32zm1.26 50.914h7.084V5.186H47.73l-2.308 2.308a2.736 2.736 0 000 3.87 4.537 4.537 0 010 6.415 2.736 2.736 0 000 3.87 4.537 4.537 0 010 6.416 2.737 2.737 0 000 3.87 4.537 4.537 0 010 6.416 2.737 2.737 0 000 3.87 4.537 4.537 0 010 6.415 2.737 2.737 0 000 3.87l2.308 2.308zm.013-49.64z" fill="#4D4D4F"/><path fill-rule="evenodd" clip-rule="evenodd" d="M18.587 7.568a.9.9 0 011.273 0c10.732 10.732 10.732 28.131 0 38.863a.9.9 0 11-1.273-1.273c10.03-10.029 10.03-26.288 0-36.317a.9.9 0 010-1.273zm-7.33 7.33a.9.9 0 011.273 0c6.684 6.684 6.684 17.52 0 24.203a.9.9 0 11-1.273-1.273c5.98-5.98 5.98-15.677 0-21.657a.9.9 0 010-1.273zM4.68 21.476a.9.9 0 011.273 0 7.81 7.81 0 010 11.047.9.9 0 11-1.273-1.273 6.01 6.01 0 000-8.5.9.9 0 010-1.274z" fill="#4D4D4F"/></svg>