<?xml version="1.0" encoding="utf-8"?><svg width="60" height="60" fill="none" xmlns="http://www.w3.org/2000/svg" viewBox="0 0 60 60"><path fill-rule="evenodd" clip-rule="evenodd" d="M9.469 9.469c-5.733 5.732-5.733 15.026 0 20.759 4.48 4.48 11.139 5.46 16.57 2.934l-3.647-3.648a6.108 6.108 0 01-8.075-.499l-4.924-4.924 1.133-1.133a9.325 9.325 0 0112.432-12.432l1.133-1.133 4.924 4.925a6.108 6.108 0 01.498 8.074l3.648 3.648c2.526-5.432 1.547-12.09-2.934-16.571-5.732-5.732-15.026-5.732-20.758 0zm24.814 17.693c3.078-6.07 2.08-13.678-2.995-18.754-6.318-6.318-16.562-6.318-22.88 0-6.318 6.319-6.318 16.562 0 22.88 5.075 5.076 12.683 6.073 18.754 2.996l3.747 3.747 1.364-1.364L43.94 48.335l1.667-1.667 3.96 3.96a6.062 6.062 0 004.286 1.776c.564 0 1.02.456 1.02 1.02v.337c0 .75-.607 1.358-1.357 1.358H34.37a3.466 3.466 0 01-3.466-3.465 4.966 4.966 0 00-4.966-4.967h-12.84v1.5h12.84a3.466 3.466 0 013.466 3.467 4.966 4.966 0 004.966 4.965h19.146a2.858 2.858 0 002.858-2.858v-.337a2.52 2.52 0 00-2.52-2.52c-1.21 0-2.37-.481-3.226-1.337l-3.96-3.96 1.666-1.667-11.667-11.667 1.364-1.364-3.748-3.747zm1.323 6.172l-2.273 2.273L43.94 46.213l2.273-2.273-10.607-10.606zM28.442 21.32a4.608 4.608 0 00-.488-5.943l-3.863-3.863-2.728 2.727 7.079 7.079zm-8.14-8.14l1.517-1.516a7.824 7.824 0 00-10.154 10.154l1.516-1.516-1.212-1.212 7.121-7.122 1.212 1.212zm-6.06 8.182l-2.728 2.728 3.864 3.864a4.608 4.608 0 005.942.487l-7.078-7.079zm8.182 6.061l5-5-8.334-8.334-5 5 8.334 8.334zm1.06 1.061l5-5 7.425 7.425-5 5-7.424-7.425z" fill="#4D4D4F"/><path fill-rule="evenodd" clip-rule="evenodd" d="M40.289 25.31h.02l.073-.003a9.854 9.854 0 001.198-.13 5.975 5.975 0 001.037-.268c.327-.121.556-.258.69-.392.133-.133.27-.362.391-.69.119-.318.205-.681.267-1.036a9.858 9.858 0 00.134-1.27V21.5a.75.75 0 011.5 0v.02l.004.073a9.863 9.863 0 00.13 1.198c.062.355.149.718.267 1.037.122.327.259.556.392.69.134.133.363.27.69.391a5.97 5.97 0 001.036.267 9.853 9.853 0 001.271.134h.02a.75.75 0 01.001 1.5h-.021l-.073.004a9.823 9.823 0 00-1.198.13 5.961 5.961 0 00-1.036.268c-.327.121-.556.258-.69.392-.133.133-.27.362-.392.69a5.961 5.961 0 00-.267 1.036 9.857 9.857 0 00-.133 1.27V30.622a.75.75 0 01-1.5 0v-.003l-.001-.017a6.562 6.562 0 00-.02-.354 9.853 9.853 0 00-.114-.917 5.97 5.97 0 00-.267-1.037c-.122-.327-.258-.556-.392-.69-.133-.133-.362-.27-.69-.391a5.966 5.966 0 00-1.036-.267 9.825 9.825 0 00-1.27-.134H40.288a.75.75 0 010-1.5zm0 0zm4.56 1.894c.13-.238.288-.466.483-.661s.423-.353.66-.482a2.862 2.862 0 01-.66-.483 2.862 2.862 0 01-.483-.66 2.86 2.86 0 01-.482.66 2.86 2.86 0 01-.661.483c.238.129.466.287.66.482.196.195.354.423.483.66zm-4.56-.394zM46.804 7.886H46.825a5.568 5.568 0 00.353-.02c.24-.02.566-.053.918-.114a5.974 5.974 0 001.036-.267c.327-.122.556-.259.69-.392.133-.134.27-.363.392-.69.118-.319.205-.682.267-1.036a9.854 9.854 0 00.133-1.271V4.076a.75.75 0 011.5-.001v.003l.001.018.003.073a9.859 9.859 0 00.13 1.198c.063.354.15.717.268 1.036.122.327.258.556.392.69.133.133.362.27.69.392.318.118.682.205 1.036.267a9.85 9.85 0 001.27.133H55.926a.75.75 0 010 1.5h-.003l-.017.001-.073.003a9.848 9.848 0 00-1.198.13 5.972 5.972 0 00-1.037.268c-.327.122-.556.258-.69.392-.133.133-.27.362-.391.69a5.97 5.97 0 00-.267 1.036 9.857 9.857 0 00-.134 1.27V13.197a.75.75 0 01-1.5 0v-.02a6.562 6.562 0 00-.02-.354 9.853 9.853 0 00-.114-.917 5.97 5.97 0 00-.267-1.037c-.122-.327-.259-.556-.392-.69-.134-.133-.363-.27-.69-.391a5.974 5.974 0 00-1.036-.267 9.845 9.845 0 00-1.271-.134H46.804a.75.75 0 010-1.5zm0 0zm4.56 1.893c.13-.238.288-.466.483-.66.195-.196.423-.354.661-.483a2.865 2.865 0 01-.66-.483 2.867 2.867 0 01-.483-.66c-.13.237-.288.465-.483.66a2.865 2.865 0 01-.66.483c.237.129.465.287.66.482s.354.423.483.661zm-4.56-.393zM4.226 40.766h.021l.073-.004a9.854 9.854 0 001.198-.13 5.973 5.973 0 001.036-.268c.327-.121.556-.258.69-.392.133-.133.27-.362.392-.69a5.97 5.97 0 00.267-1.035 9.85 9.85 0 00.133-1.272v-.017l.001-.003a.75.75 0 011.5 0v.02a5.568 5.568 0 00.02.354c.019.24.053.566.114.917.062.355.148.718.267 1.037.122.327.258.556.392.69.133.133.363.27.69.391.318.12.682.206 1.036.268a9.853 9.853 0 001.271.133h.02a.75.75 0 010 1.5h-.003l-.017.001-.073.003a9.853 9.853 0 00-1.198.13 5.982 5.982 0 00-1.036.268c-.327.121-.556.258-.69.392-.133.133-.27.362-.392.69a5.972 5.972 0 00-.267 1.036 9.856 9.856 0 00-.134 1.27V46.077a.75.75 0 01-1.5 0v-.02a5.568 5.568 0 00-.02-.354 9.856 9.856 0 00-.114-.917 5.972 5.972 0 00-.267-1.037c-.122-.327-.259-.556-.392-.69-.134-.133-.363-.27-.69-.391a5.981 5.981 0 00-1.036-.267 9.854 9.854 0 00-1.271-.134h-.02a.75.75 0 010-1.5zm0 0zm4.56 1.893c.13-.238.288-.466.483-.66.195-.196.424-.354.661-.483a2.864 2.864 0 01-.66-.483 2.864 2.864 0 01-.483-.66c-.13.237-.288.465-.483.66a2.864 2.864 0 01-.66.483c.237.129.465.287.66.482s.354.423.483.661zm-4.56-.393z" fill="#4D4D4F"/></svg>