<?xml version="1.0" encoding="utf-8"?><svg width="60" height="60" fill="none" xmlns="http://www.w3.org/2000/svg" viewBox="0 0 60 60"><path d="M54.226 51.84H5.774a4.15 4.15 0 01-4.054-5.052l5.198-23.38a4.125 4.125 0 014.054-3.25H49.03a4.125 4.125 0 014.054 3.25l5.195 23.38a4.15 4.15 0 01-4.054 5.052zM10.97 21.779a2.513 2.513 0 00-2.47 1.977L3.306 47.14a2.53 2.53 0 002.469 3.081h48.452a2.53 2.53 0 002.47-3.08l-5.197-23.384a2.513 2.513 0 00-2.468-1.98l-38.061.003zM44 9.546l-.014-.75a.75.75 0 000 1.5l.014-.75zM48.546 5l.75-.014a.75.75 0 00-1.5 0l.75.014zm4.545 4.546l.015.75a.75.75 0 000-1.5l-.015.75zm-4.545 4.546l-.75.014a.75.75 0 001.5 0l-.75-.014zm4.545-4.546l-.014-.75h-.002-.01a3.854 3.854 0 00-.12.005 11.353 11.353 0 00-1.388.152 7.452 7.452 0 00-1.302.338c-.425.159-.879.39-1.227.737l1.06 1.061c.134-.133.363-.27.69-.392a5.98 5.98 0 011.037-.267 9.858 9.858 0 011.27-.134H53.107l-.015-.75zm-4.063.482c-.348.348-.578.802-.737 1.227a7.45 7.45 0 00-.339 1.303 11.343 11.343 0 00-.155 1.48v.027l-.001.008v.003l.75.016.75.014v-.003-.017l.003-.073a9.858 9.858 0 01.13-1.198 5.98 5.98 0 01.268-1.036c.122-.327.258-.556.392-.69l-1.06-1.06zM44 9.546l.015.75h.011l.027-.001.093-.004a11.347 11.347 0 001.388-.152 7.452 7.452 0 001.302-.338c.426-.159.88-.39 1.227-.738l-1.06-1.06c-.134.133-.363.27-.69.392a5.97 5.97 0 01-1.036.267 9.85 9.85 0 01-1.272.133l-.017.001h-.003l.015.75zm4.063-.483c.348-.348.579-.8.737-1.227.162-.433.268-.893.34-1.302a11.348 11.348 0 00.154-1.481l.001-.026v-.008-.003-.001L48.545 5l-.75-.015v.021l-.003.073a9.854 9.854 0 01-.13 1.198 5.973 5.973 0 01-.267 1.036c-.122.327-.259.556-.393.69l1.061 1.06zm.483 5.029l.75-.015v-.002-.002-.008l-.002-.026-.003-.093a11.343 11.343 0 00-.152-1.388 7.45 7.45 0 00-.339-1.303c-.158-.425-.389-.879-.737-1.227l-1.06 1.061c.133.133.27.363.392.69.118.319.205.682.267 1.036a9.858 9.858 0 01.133 1.271v.02l.75-.014zm-.483-4.064c-.348-.348-.801-.578-1.227-.737a7.455 7.455 0 00-1.302-.339 11.351 11.351 0 00-1.508-.156h-.011l-.015.75-.015.75h.021l.073.003a9.853 9.853 0 011.198.13 5.98 5.98 0 011.036.268c.327.122.556.259.69.392l1.06-1.06zM48.546 5l-.75.015v.038l.005.093a11.348 11.348 0 00.152 1.388c.07.409.177.869.338 1.302.159.426.39.88.737 1.227l1.06-1.06c-.133-.134-.27-.363-.391-.69a5.982 5.982 0 01-.267-1.036 9.854 9.854 0 01-.134-1.271v-.017-.004l-.75.015zm.482 4.063c.348.348.802.58 1.227.738.434.161.894.267 1.302.338a11.349 11.349 0 001.482.156H53.076l.015-.75.015-.749h-.02a5.568 5.568 0 01-.354-.02 9.856 9.856 0 01-.917-.114 5.97 5.97 0 01-1.036-.267c-.328-.122-.557-.259-.69-.392l-1.06 1.06z" fill="#4D4D4F"/><path d="M11 30.546l-.014-.75a.75.75 0 000 1.5l.014-.75zM15.546 26l.75-.014a.75.75 0 00-1.5 0l.75.014zm4.545 4.546l.015.75a.75.75 0 000-1.5l-.015.75zm-4.545 4.546l-.75.014a.75.75 0 001.5 0l-.75-.014zm4.545-4.546l-.014-.75h-.002-.01l-.026.001-.094.004a11.349 11.349 0 00-1.388.152 7.449 7.449 0 00-1.302.338c-.425.159-.879.39-1.227.737l1.06 1.061c.134-.133.363-.27.69-.392a5.98 5.98 0 011.037-.267 9.858 9.858 0 011.27-.134H20.107l-.015-.75zm-4.063.482c-.348.348-.578.802-.737 1.227a7.45 7.45 0 00-.339 1.303 11.343 11.343 0 00-.155 1.48v.027l-.001.008v.003l.75.016.75.014v-.003-.017l.003-.073a9.858 9.858 0 01.13-1.198 5.98 5.98 0 01.268-1.036c.122-.327.258-.557.392-.69l-1.06-1.06zM11 30.546l.015.75h.011l.027-.001.093-.004a11.347 11.347 0 001.388-.152 7.452 7.452 0 001.302-.338c.426-.159.88-.39 1.227-.738l-1.06-1.06c-.134.133-.363.27-.69.392a5.98 5.98 0 01-1.036.267 9.853 9.853 0 01-1.271.134H10.984l.015.75zm4.063-.483c.348-.348.579-.8.737-1.227a7.45 7.45 0 00.34-1.302 11.347 11.347 0 00.154-1.481l.001-.027v-.007-.003-.001l-.75-.015-.75-.015v.021l-.003.073a9.853 9.853 0 01-.13 1.198 5.97 5.97 0 01-.268 1.036c-.121.327-.258.556-.392.69l1.061 1.06zm.483 5.029l.75-.015v-.002-.002-.008l-.002-.026-.003-.093a11.343 11.343 0 00-.152-1.388 7.45 7.45 0 00-.339-1.303c-.158-.425-.389-.879-.737-1.227l-1.06 1.061c.133.133.27.363.392.69.118.318.205.682.267 1.036a9.858 9.858 0 01.133 1.271v.02l.75-.014zm-.483-4.064c-.348-.348-.801-.578-1.227-.737a7.452 7.452 0 00-1.302-.339 11.347 11.347 0 00-1.481-.155H11.016l-.001-.001-.015.75-.015.75h.02l.074.003a9.853 9.853 0 011.198.13 5.98 5.98 0 011.036.268c.327.122.556.259.69.392l1.06-1.06zM15.546 26l-.75.015v.038l.005.093a11.347 11.347 0 00.152 1.388c.07.409.177.869.338 1.302.159.426.39.88.737 1.227l1.06-1.06c-.133-.134-.27-.363-.391-.69a5.98 5.98 0 01-.267-1.036 9.853 9.853 0 01-.134-1.271v-.017-.004l-.75.015zm.482 4.063c.348.349.802.58 1.227.738.434.161.894.267 1.302.339a11.349 11.349 0 001.482.155H20.076l.015-.75.015-.749h-.02l-.073-.003a9.858 9.858 0 01-1.198-.13 5.98 5.98 0 01-1.037-.268c-.327-.122-.556-.259-.69-.392l-1.06 1.06zM41.85 51.843a.812.812 0 01-.79-.996l1.426-6.09-4.825-4.135a.812.812 0 111.054-1.23l5.2 4.453a.81.81 0 01.262.8l-1.54 6.569a.81.81 0 01-.787.629z" fill="#4D4D4F"/><path d="M34.778 44.826a.811.811 0 01-.617-1.336l6.81-8.016a.811.811 0 111.236 1.054l-6.811 8.016a.812.812 0 01-.618.282zM23.683 51.843a.812.812 0 01-.79-.996l1.427-6.09-4.826-4.135a.812.812 0 111.054-1.23l5.2 4.453a.81.81 0 01.262.8l-1.54 6.569a.811.811 0 01-.787.629z" fill="#4D4D4F"/><path d="M16.612 44.825a.811.811 0 01-.617-1.336l6.81-8.015a.813.813 0 011.236 1.054l-6.81 8.015a.811.811 0 01-.62.282z" fill="#4D4D4F"/></svg>