<?xml version="1.0" encoding="utf-8"?><svg width="22" height="14" xmlns="http://www.w3.org/2000/svg" viewBox="0 0 22 14"><path d="M12.036 13.108s.38-.043.576-.257c.179-.197.173-.568.173-.568s-.024-1.73.762-1.986c.775-.252 1.77 1.674 2.825 2.414.798.56 1.403.438 1.403.438l2.821-.04s1.475-.094.776-1.28c-.058-.097-.408-.877-2.097-2.48-1.77-1.68-1.532-1.408.598-4.311 1.297-1.768 1.816-2.848 1.654-3.31-.154-.44-1.109-.324-1.109-.324l-3.175.02s-.236-.032-.41.074c-.17.105-.281.349-.281.349s-.502 1.368-1.172 2.532c-1.415 2.454-1.98 2.584-2.211 2.432-.538-.356-.404-1.428-.404-2.19 0-2.379.353-3.37-.687-3.627-.345-.086-.6-.142-1.482-.152-1.133-.011-2.092.005-2.635.276-.362.18-.64.584-.47.607.21.029.684.131.937.482.325.453.314 1.47.314 1.47s.186 2.8-.437 3.148c-.428.239-1.015-.248-2.276-2.476-.646-1.14-1.133-2.402-1.133-2.402s-.094-.235-.263-.362c-.203-.153-.487-.2-.487-.2l-3.018.02s-.453.012-.62.214c-.147.178-.01.549-.01.549s2.362 5.652 5.037 8.5c2.453 2.612 5.238 2.44 5.238 2.44h1.263z"/></svg>