<?xml version="1.0" encoding="utf-8"?><svg viewBox="0 0 180 60" xmlns="http://www.w3.org/2000/svg" xmlns:xlink="http://www.w3.org/1999/xlink"><style>:root>svg{display:none}:root>svg:target{display:block}</style><svg fill="none" viewBox="0 0 16 16" id="arrow-left" xmlns="http://www.w3.org/2000/svg"><g clip-path="url(#aaclip0_2_161)"><path d="M5.138 5.138a.667.667 0 10-.943-.943L.862 7.53a.667.667 0 000 .942l3.333 3.334a.667.667 0 10.943-.943L2.943 8.667h11.724a.667.667 0 000-1.334H2.943l2.195-2.195z" fill="#6D6E71"/></g><defs><clipPath id="aaclip0_2_161"><path fill="#fff" transform="rotate(180 8 8)" d="M0 0h16v16H0z"/></clipPath></defs></svg><svg fill="none" viewBox="0 0 16 16" id="arrow-right" xmlns="http://www.w3.org/2000/svg"><path d="M10.862 10.862a.667.667 0 00.943.943l3.333-3.334a.667.667 0 000-.942l-3.333-3.334a.667.667 0 10-.943.943l2.195 2.195H1.333a.667.667 0 000 1.334h11.724l-2.195 2.195z" fill="#6D6E71"/></svg><svg fill="none" viewBox="0 0 16 16" id="arrow1" xmlns="http://www.w3.org/2000/svg"><path d="M10.862 10.862a.667.667 0 10.943.943l3.333-3.334a.667.667 0 000-.942l-3.333-3.334a.667.667 0 10-.943.943l2.195 2.195H1.333a.667.667 0 000 1.334h11.724l-2.195 2.195z" fill="#fff"/></svg><svg fill="none" viewBox="0 0 17 12" id="checkmark" xmlns="http://www.w3.org/2000/svg"><path fill-rule="evenodd" clip-rule="evenodd" d="M16.707.293a1 1 0 010 1.414l-8.586 8.586a3 3 0 01-4.242 0L.293 6.707a1 1 0 011.414-1.414l3.586 3.586a1 1 0 001.414 0L15.293.293a1 1 0 011.414 0z" fill="#fff"/></svg><svg fill="none" viewBox="0 0 20 20" id="close" xmlns="http://www.w3.org/2000/svg"><path d="M5.59 4.411A.833.833 0 004.41 5.59L8.822 10l-4.41 4.411a.833.833 0 101.178 1.179L10 11.179l4.41 4.41a.833.833 0 001.18-1.178l-4.412-4.41L15.59 5.59a.833.833 0 10-1.178-1.179L10 8.821l-4.41-4.41z" fill="#A7A9AC"/></svg><svg fill="none" viewBox="0 0 30 30" id="close1" xmlns="http://www.w3.org/2000/svg"><path d="M8.384 6.616a1.25 1.25 0 10-1.768 1.768L13.232 15l-6.616 6.616a1.25 1.25 0 001.768 1.768L15 16.768l6.616 6.616a1.25 1.25 0 001.768-1.768L16.768 15l6.616-6.616a1.25 1.25 0 10-1.768-1.768L15 13.232 8.384 6.616z" fill="#D1D3D4"/></svg><svg fill="none" viewBox="0 0 26 26" id="down" xmlns="http://www.w3.org/2000/svg"><path d="M6.5 9.75l6.5 6.5 6.5-6.5" stroke="#6D6E71" stroke-width="1.5" stroke-linecap="round" stroke-linejoin="round"/></svg><svg fill="none" viewBox="0 0 50 50" id="ex1" xmlns="http://www.w3.org/2000/svg"><path d="M15.625 25a8.334 8.334 0 100-16.668 8.334 8.334 0 000 16.668zm0-14.584a6.25 6.25 0 110 12.5 6.25 6.25 0 010-12.5zM19.792 27.083h-8.334a9.396 9.396 0 00-9.375 9.396v4.166a1.042 1.042 0 002.084 0V36.48a7.292 7.292 0 017.291-7.313h8.334a7.292 7.292 0 017.291 7.292v4.167a1.042 1.042 0 002.084 0v-4.167a9.395 9.395 0 00-9.375-9.375zM37.5 8.333a10.417 10.417 0 100 20.834 10.417 10.417 0 000-20.834zm0 18.75a8.333 8.333 0 110-16.666 8.333 8.333 0 010 16.666z" fill="#A50034"/><path d="M39.73 15.792l-2.96 3.646-1.54-1.646a1.048 1.048 0 00-1.48-.042 1.048 1.048 0 00-.042 1.48l2.355 2.5c.196.205.465.324.75.333a1.064 1.064 0 00.77-.375l3.709-4.583a1.042 1.042 0 10-1.605-1.313h.042z" fill="#A50034"/></svg><svg fill="none" viewBox="0 0 50 50" id="ex2" xmlns="http://www.w3.org/2000/svg"><path d="M39.583 7.02h-7.562l-.334-1.333a1.02 1.02 0 00-1-.791h-1.812V3.125a1.041 1.041 0 00-1.042-1.042h-5.666a1.042 1.042 0 00-1.042 1.042v1.77h-1.813a1.02 1.02 0 00-1 .792l-.333 1.334h-7.562a2.083 2.083 0 00-2.084 2.083v36.729a2.083 2.083 0 002.084 2.083h26.041a1.041 1.041 0 100-2.083H10.417V9.103h7.02l-.562 2.23a1.126 1.126 0 00.188.896 1.063 1.063 0 00.833.396h14.208a1.062 1.062 0 00.834-.396 1.124 1.124 0 00.187-.896l-.563-2.23h7.021v33.605a1.042 1.042 0 102.084 0V9.104a2.083 2.083 0 00-2.084-2.083zM19.23 10.542l.896-3.562h2.083a1.042 1.042 0 001.042-1.042v-1.77h3.583v1.77a1.041 1.041 0 001.042 1.042h2.083l.896 3.562H19.23z" fill="#A50034"/><path d="M22.354 19.813a1.062 1.062 0 00-1.479.166l-2.958 3.646-1.542-1.646a1.022 1.022 0 00-1.458 0 1.04 1.04 0 000 1.48l2.354 2.5a1 1 0 00.75.333 1.04 1.04 0 00.729-.438l3.708-4.562a1.083 1.083 0 00-.104-1.48zM34.375 22.917h-8.333a1.041 1.041 0 100 2.083h8.333a1.042 1.042 0 100-2.083zM20.833 32.48l-2.916 3.645-1.542-1.646a1.022 1.022 0 00-1.458 0 1.04 1.04 0 000 1.48l2.354 2.5a1 1 0 00.75.333 1.04 1.04 0 00.729-.438l3.708-4.562a1.083 1.083 0 00-.145-1.48 1.062 1.062 0 00-1.48.167zM34.375 35.417h-8.333a1.041 1.041 0 100 2.083h8.333a1.042 1.042 0 100-2.083z" fill="#A50034"/></svg><svg fill="none" viewBox="0 0 50 50" id="ex3" xmlns="http://www.w3.org/2000/svg"><path d="M45.833 19.791H30.5l-3.917-5.02a5.23 5.23 0 00-4.02-1.917H8.188a2.083 2.083 0 00-1.938-1.396H3.125a1.042 1.042 0 000 2.083H6.25v14.584H3.125a1.041 1.041 0 100 2.083H6.25a2.083 2.083 0 002.083-1.938h1.834a6.958 6.958 0 005.416 2.813h1.084v5.375a2.083 2.083 0 002.083 2.083h27.083a2.083 2.083 0 002.084-2.083V21.875a2.083 2.083 0 00-2.084-2.084zm0 4.167H27.208l-2.083-2.083h20.708v2.083zM15.563 29a4.981 4.981 0 01-3.98-2.313 1.042 1.042 0 00-.896-.5H8.334v-11.25h14.23A3.124 3.124 0 0125 16.125l2.854 3.666h-4.687l-3-3.125-1.417 1.5 3.292 3.375 3.937 4.021.23.23.354.353c-.226.271-.533.461-.875.542a2.896 2.896 0 01-2.438-.208c-.75-.542-3.146-2.688-4.02-3.459a1.063 1.063 0 00-1.168-.104 5.103 5.103 0 01-5.208-.646 1.083 1.083 0 00-1.479.146 1.023 1.023 0 00.146 1.459 7.562 7.562 0 005.146 1.5V29h-1.105zm3.187 7.458v-11c1.02.896 2.583 2.27 3.25 2.75a4.938 4.938 0 006.083-.625 2.082 2.082 0 00.5-1.542h17.25v10.417H18.75z" fill="#A50034"/><path d="M40.625 32.292h-4.167a1.042 1.042 0 100 2.083h4.167a1.041 1.041 0 100-2.083zM19.396 18.458a1.042 1.042 0 100-2.083 1.042 1.042 0 000 2.083z" fill="#A50034"/></svg><svg fill="none" viewBox="0 0 50 50" id="ex4" xmlns="http://www.w3.org/2000/svg"><path d="M43.082 19.545a6.497 6.497 0 00-4.59-1.818h-7.786v-6.363a6.332 6.332 0 00-1.882-4.5A6.459 6.459 0 0024.28 5h-.918c-.487 0-.954.192-1.299.533a1.809 1.809 0 00-.537 1.285v7.636a6.82 6.82 0 01-.829 3.263 6.898 6.898 0 01-2.293 2.483 6.915 6.915 0 01-3.856 1.164h-.57a2.73 2.73 0 00-.987-1.306 2.774 2.774 0 00-1.564-.513H7.754c-.73 0-1.43.288-1.947.8A2.714 2.714 0 005 22.272v18.182c0 .723.29 1.416.807 1.928a2.768 2.768 0 001.947.799H9.59a.923.923 0 00.65-.267.904.904 0 000-1.285.923.923 0 00-.65-.266H7.754a.923.923 0 01-.649-.267.905.905 0 01-.269-.642V22.273c0-.241.097-.473.27-.643a.923.923 0 01.648-.266h3.673c.243 0 .477.095.649.266.172.17.269.402.269.643v13.8a6.257 6.257 0 00.601 2.703c.4.845.985 1.593 1.712 2.188l3.103 2.563A6.503 6.503 0 0021.874 45h14.267a6.447 6.447 0 004.153-1.502 6.33 6.33 0 002.182-3.807L44.9 25.236a6.376 6.376 0 00-.203-3.066 6.426 6.426 0 00-1.615-2.625zm0 5.31L40.64 39.4a4.517 4.517 0 01-1.55 2.706 4.6 4.6 0 01-2.949 1.076H21.874a4.637 4.637 0 01-2.938-1.055l-3.121-2.582a4.516 4.516 0 01-1.222-1.561 4.473 4.473 0 01-.43-1.93V23.182h.367a8.876 8.876 0 006.226-2.562 8.702 8.702 0 002.587-6.166V6.818h.918a4.63 4.63 0 013.246 1.332 4.506 4.506 0 011.345 3.214v7.272c0 .242.096.473.269.643.172.17.405.266.649.266h8.703a4.613 4.613 0 011.793.349c.568.234 1.082.58 1.512 1.015a4.628 4.628 0 011.169 1.885c.23.712.283 1.47.153 2.206l-.018-.145z" fill="#A50034"/></svg><svg viewBox="0 0 10 20" id="fb" xmlns="http://www.w3.org/2000/svg"><path d="M5.955 7.13V4.833c0-.634.514-1.148 1.148-1.148h1.149V.815H5.955A3.445 3.445 0 002.51 4.258v2.87H.214v2.872H2.51v9.185h3.445v-9.185h2.297L9.4 7.13H5.955z"/></svg><svg viewBox="0 0 17 17" id="inst" xmlns="http://www.w3.org/2000/svg"><path fill-rule="evenodd" clip-rule="evenodd" d="M16.746 4.99c.036.638.054 1.788.054 3.45 0 1.662-.018 2.812-.054 3.45-.073 1.51-.523 2.679-1.35 3.506-.827.827-1.996 1.277-3.505 1.35-.639.036-1.79.054-3.45.054-1.663 0-2.813-.018-3.452-.054-1.509-.073-2.677-.523-3.505-1.35C.657 14.569.207 13.4.134 11.89.099 11.252.08 10.1.08 8.44c0-1.663.018-2.813.055-3.452.072-1.509.522-2.677 1.35-3.505C2.311.657 3.48.207 4.988.134 5.628.099 6.78.08 8.44.08c1.662 0 2.812.018 3.45.055 1.51.072 2.679.522 3.506 1.35.827.827 1.277 1.995 1.35 3.504zm-1.923-1.034c0-.356-.126-.66-.379-.913a1.245 1.245 0 00-.913-.379c-.355 0-.66.126-.912.38-.253.252-.38.556-.38.912s.127.66.38.913c.252.253.557.379.912.379.356 0 .66-.126.913-.38.253-.252.38-.556.38-.912zM11.641 8.44a3.201 3.201 0 11-6.403 0 3.201 3.201 0 016.403 0zm1.358 0a4.56 4.56 0 11-9.12 0 4.56 4.56 0 019.12 0z"/></svg><svg fill="none" viewBox="0 0 54 54" id="kia" xmlns="http://www.w3.org/2000/svg"><g clip-path="url(#anclip0_34_722)"><path d="M30.32 30.96c0 .075.02.115.065.115a.201.201 0 00.1-.035l12.39-7.725c.22-.14.415-.215.715-.215h2.725c.42 0 .7.27.7.675v4.985c0 .6-.135.95-.7 1.275l-3.305 1.9c-.04.03-.08.04-.11.04-.04 0-.075-.025-.075-.135v-5.825c0-.065-.02-.115-.07-.115-.035 0-.06.015-.095.035L33.6 31.58c-.255.16-.46.205-.695.205h-6.01c-.415 0-.7-.27-.7-.67V23.93c0-.05-.025-.095-.065-.095a.193.193 0 00-.1.03l-5.975 3.445c-.06.035-.075.07-.075.095 0 .025.01.045.055.085l4.265 4.09c.055.055.095.1.095.14 0 .045-.06.07-.135.07H20.4c-.3 0-.535-.045-.7-.2l-2.59-2.485c-.03-.03-.05-.04-.075-.04a.224.224 0 00-.085.025l-4.325 2.5c-.26.15-.44.195-.7.195H7.94c-.42 0-.7-.27-.7-.67V26.22c0-.61.135-.95.7-1.275l3.325-1.915a.165.165 0 01.09-.025c.045 0 .075.05.075.155v6.55c0 .065.02.1.07.1.025 0 .06-.02.095-.04l11.23-6.475c.265-.155.43-.2.74-.2h6.045c.42 0 .7.27.7.67l.01 7.195z" fill="#000"/></g><defs><clipPath id="anclip0_34_722"><path fill="#fff" transform="translate(7 23)" d="M0 0h40v9H0z"/></clipPath></defs></svg><svg fill="none" viewBox="0 0 180 36" id="logo" xmlns="http://www.w3.org/2000/svg"><path d="M118.807 12.297h2.679v13.756h-2.679l-.064-4.08c-.574-.02-2.487 0-3.38 0-3.869.022-4.146-2.563-4.146-5.404v-4.272h2.679s.021 4.358.021 4.764c.043 1.943.829 2.285 1.744 2.328 1.02.043 1.913.043 3.167 0l-.021-7.092zm16.37 10.424v-5.96c0-2.627-1.169-3.951-2.912-4.378-1.871-.47-4.465-.064-6.74.982l.893 2.307c1.871-.812 4.507-1.26 5.358-.726.637.406.722 1.303.722 2.713 0 0-2.253 0-3.529-.022-2.742.022-4.188.962-4.23 3.802 0 .535.021.94.063 1.624.255 2.563 1.637 3.097 3.678 3.033 1.467-.043 3.572-.448 4.444-.747.17.17.34.79 1.934.747.489-.021.851 0 1.318-.021l.022-2.52c-.744.063-1.021.106-1.021-.834zm-2.7.235s-.701.256-2.806.62c-2.105.363-2.232-.748-2.254-1.346-.021-1.474-.085-2.2 1.425-2.286 2.168-.021 3.635-.021 3.635-.021v3.033zm40.096-10.787h-3.295c-2.36 0-4.252 1.922-4.252 4.272v5.404a4.26 4.26 0 004.252 4.273h3.295c2.36 0 4.252-1.923 4.252-4.273v-5.383a4.252 4.252 0 00-4.252-4.293zm1.659 9.74c0 .876-.702 1.581-1.574 1.581h-3.486a1.574 1.574 0 01-1.574-1.58v-5.554c0-.876.702-1.581 1.574-1.581h3.486c.872 0 1.574.705 1.574 1.58v5.555zm-70.456-9.74h-2.678c-2.36 0-4.252 1.922-4.252 4.272v1.132h-2.68v-5.276h-2.678v13.778h2.679v-6.13h2.679v1.879a4.26 4.26 0 004.252 4.272h2.678c2.36 0 4.252-1.922 4.252-4.272v-5.383c.022-2.35-1.892-4.272-4.252-4.272zm1.659 9.74c0 .876-.702 1.581-1.574 1.581h-2.848a1.574 1.574 0 01-1.574-1.58v-5.554c0-.876.702-1.581 1.574-1.581h2.848c.872 0 1.574.705 1.574 1.58v5.555zm46.729-9.612h11.161l-.34 2.457h-3.933v11.32h-2.679v-11.32h-3.912l-.297-2.457zm-74.027 0h9.29v13.8h-2.7V14.753h-4.039c-.064 3.033.043 7.625-.276 8.736-.808 2.82-2.658 2.905-3.933 2.905-.107-.769-.32-2.221-.32-2.221 1.447-.193 1.935-.855 1.978-2.52.043-1.688 0-9.357 0-9.357zm70.498 6.195c.595-.641.893-1.282.914-2.542 0-2.008-1.977-3.653-4.21-3.653h-5.463l-.022 13.82h6.251c2.36 0 4.252-1.922 4.252-4.272v-.405c-.022 0 .021-2.008-1.722-2.948zm-6.102-3.674h2.998c.808.021 1.339.555 1.339 1.345 0 .983-.531 1.496-1.233 1.496h-3.083c-.021-.385-.021-2.65-.021-2.841zm3.614 8.758h-3.614v-3.653h3.593c.744 0 1.658.47 1.658 1.837-.021 1.26-.765 1.73-1.637 1.816zm-74.43-3.098c.276.598.956 2.649 2.147 5.618h-2.85c-.68-1.73-1.764-4.72-1.934-4.934-.425-1.004-1.063-1.218-2.402-1.196l-1.382-.022.021 6.174H62.66v-13.8h2.657v5.234h1.467l4.103-5.233h2.956L69.484 18c1.403.449 1.744 1.453 2.233 2.478zM14.527 4.97c3.53 0 6.74 1.688 8.568 4.422a1.886 1.886 0 00-.042.363c0 .833.659 1.495 1.488 1.495.83 0 1.488-.662 1.488-1.495 0-.235-.064-.449-.149-.64.66-.77 1.403-1.432 2.19-2.03.106.107.191.213.319.32-.553.47-.914.855-1.106 1.111-.085.021-.19.107-.276.235-.128.192-.149.384-.064.427.085.043.234-.064.362-.235a.566.566 0 00.106-.32c.191-.235.531-.62 1.084-1.09.085.107.192.193.298.3.659-.535 2.02-1.24 2.02-1.24l-.213-.427a17.89 17.89 0 012.339-1.004c.999.641 1.382 1.026 1.382 1.026l.02.021.043-.021c.022 0 1.34-.32 3.168-.257l-.021.257h-.085c-.022-.043-.064-.086-.107-.086-.042 0-.085.022-.127.086-.213 0-.425.021-.617.042-.021-.085-.085-.15-.149-.15-.063 0-.127.086-.148.193-.192.021-.383.043-.596.086-.02-.129-.106-.235-.191-.235s-.149.128-.149.299l-.574.128c-.021-.192-.127-.32-.234-.3-.106.022-.148.172-.127.364 0 .021 0 .021.021.043-.191.064-.404.106-.595.17 0-.042 0-.064-.022-.106-.042-.171-.148-.3-.255-.278-.085.021-.148.192-.106.363.021.043.021.086.043.128-.404-.384-.936-.747-1.233-.94.127-.085.19-.17.17-.235-.043-.085-.234-.085-.447 0-.212.086-.34.235-.297.32.042.086.212.086.403.022.255.171.808.534 1.233.919-.17.064-.36.15-.531.213 0-.064 0-.15-.021-.235-.064-.17-.17-.299-.277-.256-.085.021-.127.192-.063.363.02.107.085.171.127.214-4.23 1.944-7.186 6.216-7.186 11.193 0 1.645.32 3.204.915 4.635-.128.107-.17.235-.128.32.043.065.149.086.298.043.085.214.19.406.297.62-.042.085-.042.15 0 .192.021.043.085.043.128.043a12.623 12.623 0 003.571 4.08l-.34.555a.118.118 0 00-.064-.107c-.106-.064-.297.043-.404.235-.127.192-.127.406-.042.47a.135.135 0 00.128 0l-.447.748a13.832 13.832 0 01-2.445-1.987c.021-.085.043-.17.043-.256 0-.598-.468-1.068-1.063-1.068-.043 0-.085 0-.128.021-.361-.47-.701-.982-.999-1.495.085-.15.128-.342.128-.534 0-.171-.043-.342-.107-.491a.631.631 0 00.298-.107c.191-.128.297-.3.234-.406-.064-.107-.277-.085-.468.021a.67.67 0 00-.213.214 1.126 1.126 0 00-.701-.406 10.747 10.747 0 01-.49-1.388 1.49 1.49 0 00-.51-2.457 12.89 12.89 0 01-.084-1.58H21.5c0 .576.042 1.131.085 1.687a1.491 1.491 0 00-.723 1.282v.042c-2.296 1.303-5.23 1.773-7.951 2.2-1.914.3-3.72.599-5.06 1.154-4.72 1.986-4.21 6.387-4.21 6.43l.064.534h21.75l-.787-1.218H4.854c.043-1.047.51-3.354 3.466-4.593 1.211-.512 2.955-.79 4.783-1.089 2.7-.427 5.783-.94 8.292-2.307.212.192.467.3.765.342.149.512.34 1.025.531 1.516a1.328 1.328 0 00-.191.641c0 .62.489 1.132 1.084 1.175.362.62.766 1.218 1.212 1.773 0 .043-.021.085-.021.107 0 .577.468 1.047 1.042 1.068 2.806 2.905 6.718 4.72 11.055 4.72 3.763 0 7.334-1.367 10.098-3.802l.447.62s1.551-1.047 2.508-2.734l-2.487-2.115a12.261 12.261 0 002.445-7.37 12.14 12.14 0 00-.85-4.507l.722-.128a14.12 14.12 0 01.765 4.571h1.297c0-2.84-.765-5.51-2.104-7.796a4.392 4.392 0 00-.553-1.09c-.043.022-.064.022-.106.043-.15-.192-.277-.384-.426-.577l.255-.15s-.361-.832-1.041-1.494c-.128.085-.255.192-.383.277-.213-.213-.425-.427-.638-.62l.362-.384s-.574-.726-1.404-1.175c-.127.15-.233.278-.34.428A15.145 15.145 0 0041.4 3.795V3.71A1.71 1.71 0 0039.7 2c-.702 0-1.319.449-1.574 1.068a14.869 14.869 0 00-1.7-.085c-2.36 0-4.636.534-6.698 1.538l-.127-.257c-1.892.876-2.636 1.624-2.636 1.624s.063.064.19.213c-.828.641-1.615 1.346-2.316 2.158-.107-.022-.213-.043-.32-.043-.233 0-.446.064-.658.15-2.084-2.884-5.57-4.657-9.376-4.657-6.272 0-11.353 4.806-11.353 10.702h1.212c.043-5.17 4.592-9.442 10.183-9.442zm25.172.491c.425 0 .808-.17 1.106-.427.446.15.871.32 1.297.492l-.085.192a1.448 1.448 0 00-.617-.128c-.489 0-.935.235-1.212.62a13.55 13.55 0 00-2.445-.364l.128-1.431c.106 0 .191.021.297.042.256.577.85 1.004 1.531 1.004zm2.36 1.389c-.106-.043-.213-.107-.319-.15l.085-.17c.085.106.17.213.234.32zm5.23 9.698a.447.447 0 00-.319-.064c-.191.02-.319.128-.298.213.022.107.17.15.362.128a.706.706 0 00.255-.107c-.021.214-.043.406-.064.599-.042 0-.085-.022-.149 0-.191.021-.319.106-.319.192 0 .107.17.17.34.15.022 0 .043 0 .086-.022-.022.17-.043.32-.085.491-.17 0-.32.086-.32.171 0 .086.107.15.256.171-.043.15-.064.3-.106.47-.107.021-.192.064-.192.128s.043.107.107.15c-.043.15-.086.299-.128.427-.043.021-.064.043-.064.085 0 .022 0 .043.021.064-.19.599-.425 1.133-.701 1.56a.551.551 0 00-.234.213c-.128.171-.17.364-.106.428.085.064.255-.043.382-.214.107-.15.15-.299.128-.384.128-.235.255-.47.383-.748a.374.374 0 00.255.15c.17.042.34 0 .361-.107.021-.107-.106-.214-.276-.257a.508.508 0 00-.255 0c.063-.17.148-.363.212-.555.043.021.085.043.15.043.19.021.34-.022.36-.128.022-.107-.127-.193-.297-.236h-.106c.042-.106.063-.213.085-.32h.042c.191.021.34-.043.34-.15 0-.085-.127-.192-.297-.213.042-.15.063-.3.106-.449.149-.021.234-.085.234-.17 0-.065-.085-.129-.192-.15.043-.192.064-.384.085-.577.043-.043.064-.064.064-.107a.162.162 0 00-.042-.085c.085-.684.106-1.388.085-2.093.276.96.446 1.986.446 3.033 0 2.328-.744 4.464-1.977 6.237l-.276-.235-1.595 1.752.234.32c-.128.128-.276.235-.425.363l-.914-1.303c2.04-1.794 3.359-4.421 3.359-7.348a9.792 9.792 0 00-1.276-4.827c.149-.534.255-1.004.32-1.453.148.278.318.662.34.961l.573-.213c.064.107.128.213.192.299-.447.107-.66.17-.66.17s.34.898.277 1.41l1.063-.17c.042.107.085.235.127.341.064.727.064 1.346.043 1.966zm-20.92 1.815c0-2.413.787-4.635 2.126-6.43.021 0 .043-.02.064-.042.021-.021.021-.043.021-.085.128-.171.277-.342.404-.513.064.021.106.021.15-.021.042-.043.042-.107.02-.171l.447-.449c.085.064.17.086.212.043.064-.043.043-.15 0-.257.128-.106.256-.235.383-.341.085.107.213.15.276.107.064-.043.064-.171 0-.32.128-.108.255-.193.383-.3.085.15.234.214.298.17.085-.042.085-.213-.021-.384.127-.085.255-.17.382-.235 0 .022 0 .022.021.043.085.171.213.257.298.214.085-.043.085-.214.021-.385-.02-.021-.02-.042-.042-.064.106-.064.191-.107.297-.17 0 .02.022.063.022.106.063.171.191.278.297.235.085-.043.107-.214.043-.384a.47.47 0 00-.064-.107c.17-.086.34-.171.51-.235 0 .064 0 .107.022.17.063.172.17.3.276.257.085-.021.127-.192.064-.363-.022-.064-.064-.128-.085-.171.212-.085.425-.17.659-.235a.523.523 0 000 .256c.042.171.149.3.255.278.085-.021.149-.192.106-.363a.486.486 0 00-.127-.235c.233-.064.467-.128.722-.192-.085.042-.127.17-.106.342.021.192.128.32.234.299.106-.022.149-.171.128-.364-.022-.17-.107-.299-.213-.299.744-.17 1.53-.256 2.339-.256h.276l-.043.406c-.02-.15-.063-.256-.148-.256-.107 0-.192.128-.192.32-.021.192.064.342.15.342.063 0 .148-.086.17-.192l-.022.277c-.234-.021-.49-.021-.723-.021-5.336 0-9.673 4.357-9.673 9.719 0 1.474.34 2.884.914 4.144a.214.214 0 00-.021.192c.021.043.085.064.148.064.107.214.213.406.32.598 0 .022 0 .064.02.086 0 .021.022.021.043.021.83 1.325 1.956 2.457 3.296 3.247l-.51.855c-.022 0-.022-.022-.043-.022 0 0 0-.021-.021-.021h-.022a10.734 10.734 0 01-4.74-8.908zM37.68 6.401c.17 0 .32 0 .49.022-.022.042-.043.106-.064.17-.022.065 0 .129 0 .193h-.468l.042-.385zm3.253.193c.192.064.383.128.574.213l-.021.064-.638-.192a.167.167 0 01.085-.085zm.468.427l-.17.384c-.191-.064-.383-.128-.553-.192v-.064c0-.128.021-.235.085-.32.213.042.425.106.638.192zm5.187 5.853l-.191-.32.361-.129.128.384c-.106.022-.213.043-.298.065zm-1.105-1.581c-.021-.043-.064-.064-.085-.107v-.17l.51-.3c.064.086.128.192.191.3-.255.127-.467.213-.616.277zm-.276.32a8.84 8.84 0 01-.298 1.496 9.96 9.96 0 00-1.807-2.2l.808-.983c.319.256.616.512.893.812.106.17.212.341.255.512l.148-.085c.022.021.043.064.064.085 0 .064 0 .107-.021.171-.064.043-.106.043-.106.043s0 .064.063.15zm-.893 2.97c-.15 0-.277.149-.277.32 0 .17.149.299.298.299s.276-.15.276-.32a.263.263 0 00-.106-.214c.17-.385.319-.77.425-1.132a9.428 9.428 0 011.19 4.614 9.583 9.583 0 01-3.273 7.22l-.808-1.133a8.104 8.104 0 002.296-4.378c.446-.129.765-.534.765-1.026 0-.598-.467-1.068-1.063-1.068-.595 0-1.063.47-1.063 1.068 0 .406.213.748.532.919-.596 3.375-3.53 5.96-7.08 5.96-3.954 0-7.186-3.247-7.186-7.22 0-1.902.723-3.696 2.041-5.042l-.574-.576a8.027 8.027 0 00-2.274 5.617 8.03 8.03 0 003.911 6.9l-.17.3c0-.022-.021-.022-.021-.044-.106-.064-.298.043-.404.235-.085.15-.128.3-.085.385-.17-.107-.319-.214-.468-.32.107 0 .234-.086.34-.236.128-.192.17-.405.064-.47-.106-.064-.297.022-.425.214-.106.15-.149.3-.106.385a6.908 6.908 0 01-.617-.492c.107 0 .234-.085.34-.213.15-.171.192-.385.107-.47-.085-.086-.298 0-.447.17a.627.627 0 00-.149.364 15.448 15.448 0 01-.595-.577c.106 0 .213-.064.319-.17.17-.172.234-.364.149-.45-.085-.085-.298-.02-.447.129a.594.594 0 00-.17.32 8.977 8.977 0 01-.425-.512.592.592 0 00.276-.15c.17-.15.256-.342.17-.449-.085-.085-.297-.042-.467.107a.448.448 0 00-.17.235c-.107-.15-.213-.32-.32-.47.065-.021.15-.043.235-.107.191-.128.276-.32.212-.427-.063-.107-.276-.064-.467.064-.064.043-.107.107-.15.15-.084-.15-.148-.278-.233-.427.042-.022.106-.043.149-.064.191-.129.297-.3.234-.406-.064-.107-.277-.086-.468.021-.043.021-.064.043-.107.085a9.622 9.622 0 01-.871-3.994c0-1.132.191-2.243.574-3.247.021.086.106.171.234.214.17.085.34.064.382-.022.043-.085-.063-.235-.233-.299-.128-.064-.255-.064-.34-.021 1.36-3.61 4.825-6.195 8.907-6.195.234 0 .468.022.702.022l-.064.79c-.021-.085-.064-.15-.127-.15-.107 0-.192.129-.192.321-.021.192.064.342.149.342.064 0 .106-.043.149-.107l-.043.534a7.66 7.66 0 00-2.87.299l.234.79a7.008 7.008 0 012.658-.256c1.573.15 3.018.79 4.188 1.837l.553-.598s-.022 0-.022-.021l1.085-1.325a9.578 9.578 0 011.85 2.286 16.03 16.03 0 01-.469 1.26c-.106.021-.127.021-.148.021zM33.874 28.659c-.021-.021-.021-.043-.064-.043h-.064a9.052 9.052 0 01-.807-.299c-.022-.042-.043-.064-.064-.064a.065.065 0 00-.085 0 8 8 0 01-.744-.363c-.022-.021-.043-.064-.064-.064-.021-.021-.043-.021-.085 0-.191-.107-.383-.235-.574-.342l.51-.854c.723.406 1.51.748 2.317.961l.022.021h.063c.362.086.723.15 1.085.214l-.255 1.196c-.404-.128-.808-.235-1.191-.363zm-1.765-2.52c.022-.043.043-.064.043-.107l.34-.556a8.052 8.052 0 003.104 1.004l-.234 1.133a12.116 12.116 0 01-.935-.171c.042-.064.085-.107.106-.193.085-.213.043-.427-.064-.47-.106-.042-.276.107-.34.32-.021.086-.042.172-.042.257-.192-.064-.383-.107-.574-.17a.67.67 0 00.17-.236c.085-.213.085-.427-.043-.47-.106-.042-.276.086-.383.3a.949.949 0 00-.063.32c-.213-.086-.404-.171-.596-.257a.587.587 0 00.255-.256c.107-.213.107-.427 0-.47-.106-.064-.276.064-.403.257a.6.6 0 00-.064.363c-.17-.086-.32-.171-.49-.257l.15-.235c.02-.064.042-.085.063-.106zm6.655.042l.255 1.218a9.873 9.873 0 01-2.402.32 9.21 9.21 0 01-1.085-.064l.234-1.132c.234.021.447.021.68.021a9.218 9.218 0 002.318-.363zm-3.274 1.624a9.69 9.69 0 001.127.064c.85 0 1.658-.107 2.444-.32l.085.427a2.105 2.105 0 00-2.849 1.175 8.512 8.512 0 01-1.062-.129l.255-1.217zm2.764.79c.36 0 .68.15.914.385a10.01 10.01 0 01-1.977.192 1.238 1.238 0 011.063-.577zm1.084-.534l-.128-.555a9.711 9.711 0 003.593-1.901l.914 1.281a10.74 10.74 0 01-3.678 1.88 2.216 2.216 0 00-.701-.705zm-.149-.726l-.255-1.218a7.822 7.822 0 002.998-1.794l.807 1.132a9.505 9.505 0 01-3.55 1.88zm5.06-17.302c-.043-.043-.107-.086-.149-.129l.532-.555c.085.064.17.15.255.214-.383.277-.574.427-.638.47zm-.383-.32a11.811 11.811 0 00-1.85-1.176c.213-.106.404-.235.553-.427.255.128.51.256.766.406-.255.32-.362.47-.362.47s.553.363.893.726zM41.4 7.874c-.064 0-.128-.021-.191-.021l.106-.256c.149.064.298.106.446.17a.714.714 0 01-.361.107zm-.34-.085a.801.801 0 01-.34-.406c.148.043.297.107.446.15l-.106.256zm.34.897c.149 0 .276-.021.425-.064.702.342 1.34.747 1.956 1.217l-.786.962a10.242 10.242 0 00-2.424-1.56l.319-.683c.127.085.319.128.51.128zm1.467 2.264l-1.084 1.324a7.716 7.716 0 00-2.02-1.281l.723-1.56c.872.364 1.658.898 2.38 1.517zm-3.274-.021a8.284 8.284 0 00-2.275-.577l.149-1.709c1 .086 1.956.342 2.849.726l-.723 1.56zm5.421-1.453c-.085-.085-.17-.15-.276-.235l.212-.235.107.107c.02.086.042.171.063.278-.042.021-.063.043-.106.085zm-1.297-1.41c-.106.129-.191.235-.276.342-.255-.15-.532-.277-.765-.406a1.42 1.42 0 00.19-.405c.277.149.575.299.851.47zm-1.807-.405c-.17-.064-.34-.15-.51-.214l.17-.385c.191.065.361.129.532.193a.663.663 0 01-.192.406zm-2.04-.663c-.128-.021-.256-.064-.383-.085 0-.021.02-.043.02-.064.022-.128.022-.235-.02-.32.148.02.319.064.467.085a2.489 2.489 0 00-.085.384zm-.702-.213c0 .021 0 .064-.022.085a4.32 4.32 0 00-.722-.064.31.31 0 00.042-.15c.021-.063 0-.149 0-.192.276.022.574.043.85.086-.085.021-.127.107-.148.235zm-.936.15h.043c.276.02.574.042.893.085.021.064.042.107.106.128.042.021.106-.021.149-.086.149.022.297.065.446.086 0 .214.043.427.128.62a9.893 9.893 0 00-2.403-.364l.043-.47h.595zm1.871 1.046c.149.235.362.427.617.555l-.32.684a9.436 9.436 0 00-2.89-.726l.084-.897c.85 0 1.701.149 2.51.384zM31.216 27.57c.15.107.32.192.49.299a.464.464 0 00-.15.192c-.106.214-.106.427 0 .47.107.064.277-.064.405-.256a.48.48 0 00.063-.214c.192.107.383.192.596.3a.746.746 0 00-.128.191c-.085.214-.085.428.043.47.106.043.276-.085.382-.299.043-.085.043-.15.064-.213.213.085.425.17.638.235-.043.064-.085.128-.106.213-.085.214-.043.428.063.47.107.043.277-.107.34-.32.022-.086.043-.171.043-.235.361.107.744.213 1.127.277l-.255 1.197a11.972 11.972 0 01-4.104-1.88l.49-.897zm3.997 1.58c.34.065.68.107 1.042.129a1.85 1.85 0 00-.085.598c0 .256.043.491.128.705a9.789 9.789 0 01-1.34-.235l.255-1.197zm1.765.727c0-.192.042-.385.127-.556h.022c.744 0 1.467-.085 2.147-.213.064.085.128.192.17.299l.085.384v.086c0 .235-.064.47-.191.662-.553.085-1.127.128-1.701.128h-.404c-.149-.235-.255-.491-.255-.79zm.68.961c.532 0 1.063-.043 1.573-.107a1.242 1.242 0 01-.956.449c-.34 0-.638-.128-.872-.342.085-.021.17 0 .255 0zm2.594-.299a12.14 12.14 0 004.592-2.072l.787 1.11a13.94 13.94 0 01-5.4 2.67l-.255-1.131c.127-.193.212-.385.276-.577zm.042-.17c.043-.15.064-.321.064-.492 0-.342-.085-.684-.234-.961a11.027 11.027 0 003.7-1.88l.935 1.303a11.979 11.979 0 01-4.465 2.03zm3.657-3.44c.149-.107.276-.235.425-.363l.957 1.324c-.149.128-.298.235-.446.363l-.936-1.324zm3.083-14.162c-.043-.128-.085-.256-.128-.406l.915-.342c.106.15.19.3.276.47-.404.107-.744.192-1.063.278zm-.787-1.816a3.612 3.612 0 00-.191-.299l.489-.299c.106.107.191.214.297.342a5.53 5.53 0 00-.595.256zm-.978-1.666c-.021-.064-.021-.128-.042-.17.042.042.085.063.127.106-.02.021-.063.043-.085.064zm-3.167-2.2a4.124 4.124 0 00-.468-.171l.021-.064.447.192v.043zm-.532-.427a4.124 4.124 0 00-.468-.171.677.677 0 01.298-.064.91.91 0 01.255.042l-.085.193zm-1.488-.3l-.064.129c-.744-.15-1.53-.235-2.317-.235l.021-.235c.723.021 1.53.128 2.36.342zm-2.573.065l-.042.363h-.106a.685.685 0 00.106-.278v-.107c.021.022.042.022.042.022zm-2.87.512c.064 0 .107-.085.128-.17.191-.043.404-.086.616-.129.043.128.107.214.192.214s.149-.128.149-.278c.19-.021.361-.064.552-.085 0 .17.085.32.17.32.107 0 .17-.15.17-.342v-.021c.17-.021.362-.021.532-.043 0 .022-.021.043-.021.064 0 .129.021.235.085.3-.957.064-1.85.256-2.722.448-.19.043-.403.085-.595.128-.064-.085-.149-.17-.212-.256.02 0 .042.021.042 0 .043 0 .064-.043.085-.064.234-.086.447-.15.68-.214.043.107.107.15.15.128zm-1.148.214c.128.128.234.235.298.342l.021.042.043-.021c.212-.043.446-.085.659-.15.956-.213 1.913-.405 2.934-.47l-.043.45h-.297c-1.744 0-3.402.426-4.869 1.153-.043-.022-.064-.022-.106-.022-.043.022-.064.043-.064.107-.128.064-.276.15-.404.214-.064-.043-.106-.064-.149-.043-.042.021-.064.085-.064.17-.148.086-.297.193-.446.279-.085-.065-.149-.107-.213-.065-.064.043-.064.129-.042.257-.128.107-.277.192-.404.299-.085-.107-.213-.15-.276-.107-.064.043-.064.192 0 .32a5.534 5.534 0 00-.383.342c-.107-.128-.255-.192-.32-.128-.084.064-.042.235.065.363a7.834 7.834 0 00-.404.427l-.043-.042c-.127-.128-.297-.193-.361-.128-.064.064-.021.235.106.363l.064.064c-.106.128-.234.277-.34.406a.166.166 0 00-.085-.086c-.128-.128-.298-.17-.362-.085-.064.064 0 .235.128.363.042.043.085.064.127.085-.063.107-.148.192-.212.3a.362.362 0 00-.128-.129c-.149-.107-.319-.15-.361-.064-.064.085 0 .235.149.342.063.043.127.085.191.085-.085.15-.191.3-.276.449-.022-.064-.085-.128-.17-.192-.15-.107-.32-.128-.383-.043-.064.085.021.235.17.342a.451.451 0 00.255.085c-.106.192-.213.385-.298.598 0-.085-.063-.192-.212-.277-.107-.064-.234-.086-.298-.064 1.425-2.799 3.827-5.02 6.803-6.131zM27.602 25.24a.776.776 0 00.298-.149c.17-.15.255-.342.17-.449-.085-.085-.298-.042-.468.107a.447.447 0 00-.17.235c-.127-.192-.234-.406-.361-.598a.634.634 0 00.17-.085c.191-.129.276-.32.212-.428-.063-.106-.276-.064-.467.065-.043.02-.064.064-.085.085-.085-.171-.17-.342-.255-.534.02 0 .02 0 .042-.021.192-.129.298-.3.234-.406-.064-.107-.255-.086-.446.021a11.955 11.955 0 01-.872-4.55c0-1.474.276-2.905.744-4.208a.511.511 0 00.17.128c.17.086.34.064.383-.021.042-.085-.064-.235-.234-.3-.085-.042-.17-.063-.234-.042.085-.192.17-.406.255-.598.021.064.085.15.192.214.148.085.297.085.36.021a10.875 10.875 0 00-1.02 4.635c0 3.055 1.255 5.81 3.253 7.818a.64.64 0 00-.319.193c-.148.17-.191.384-.106.47.085.085.298 0 .447-.171.084-.107.148-.235.148-.32.192.17.383.362.596.512a.926.926 0 00-.234.192c-.128.192-.17.406-.064.47.106.064.298-.021.425-.213a.445.445 0 00.106-.257c.128.107.255.192.404.3a.814.814 0 00-.191.191c-.127.193-.149.406-.043.47.022.022.064.022.085.022l-.19.32a12.795 12.795 0 01-2.935-3.119zm3.02 3.333a12.04 12.04 0 004.145 1.9l-.404 1.923a14.18 14.18 0 01-4.911-1.9l1.17-1.923zm3.89 3.866l.404-1.922c.467.106.956.192 1.424.235.34.726 1.063 1.238 1.913 1.238.638 0 1.212-.277 1.595-.726l.213 1.026a14.454 14.454 0 01-3.19.363 17.018 17.018 0 01-2.36-.214zm11.246-2.97l-.786-1.088c.148-.107.297-.236.446-.364l.787 1.068-.447.385zm3.955-10.936c0 2.713-.893 5.234-2.403 7.263l-1.275-1.09a10.884 10.884 0 002.02-6.344c0-1.303-.234-2.542-.639-3.716-.02-.129-.02-.235-.042-.364l1.488-.235a12.11 12.11 0 01.85 4.486zm-1.446-6.088c-.085-.17-.191-.32-.298-.49l.787-.3c.106.192.212.384.297.577-.255.085-.531.15-.786.213zm-.425-2.242l-.872.405c-.106-.128-.191-.235-.298-.341l.83-.492c.106.128.233.278.34.428zm-1.467-1.73c-.34.234-.617.448-.872.64a4.075 4.075 0 00-.361-.278l.765-.811c.149.15.319.299.468.448zm-2.509-.577c-.319-.214-.616-.428-.935-.599 0-.042.021-.085.021-.15 0-.576-.319-1.067-.787-1.345l.085-.213c.83.384 1.616.833 2.36 1.367-.297.363-.553.662-.744.94zm-7.42-3.568c.426 0 .85.022 1.255.064l-.128 1.453c-1.68-.064-2.934.192-3.167.235-.107-.107-.532-.47-1.404-1.047l-.042-.021-.043.021c-.935.32-1.722.662-2.402 1.026l-.17-.32a13.836 13.836 0 016.101-1.41zm6.4 11.791c.02.043.042.086.042.129v.256c0 .043-.021.085-.042.128-.022.021-.064.043-.128.043h-1.382v3.354c0 .063-.021.106-.042.128-.043.042-.085.042-.128.042h-.34a.227.227 0 01-.128-.042c-.042-.043-.042-.086-.042-.129v-3.353h-1.382a.227.227 0 01-.128-.043c-.042-.021-.042-.064-.042-.128v-.256a.23.23 0 01.042-.129c.043-.042.085-.042.128-.042h3.487c.02 0 .063.021.085.042zm-5.698-.128c-.532 0-.978.171-1.297.513-.319.342-.51.79-.531 1.367v.534c.02.577.212 1.047.531 1.389.32.341.744.512 1.297.512.34 0 .638-.064.893-.17.255-.129.468-.257.617-.428.148-.17.212-.299.212-.427a.164.164 0 00-.042-.107c-.043-.021-.086-.043-.128-.043h-.361c-.064 0-.107 0-.128.022-.021.021-.064.042-.106.107a1.043 1.043 0 01-.362.299c-.149.106-.361.149-.616.149-.32 0-.574-.128-.787-.363a1.51 1.51 0 01-.319-.876v-.064h2.743a.227.227 0 00.127-.043c.043-.042.043-.085.043-.128v-.15c0-.64-.17-1.132-.49-1.516-.254-.384-.7-.577-1.296-.577zm1.105 1.859h-2.21v-.022c0-.363.106-.683.297-.918s.468-.342.808-.342.617.107.808.342c.191.235.297.534.297.918v.022zm-3.592-1.73a.305.305 0 01.042.128v3.78c0 .064-.021.107-.042.129-.043.042-.085.042-.128.042h-.34a.227.227 0 01-.128-.042c-.042-.043-.042-.086-.042-.129v-3.353h-1.446v.662c0 1.004-.106 1.73-.34 2.179-.234.448-.595.683-1.084.683-.043 0-.107-.021-.128-.064-.042-.043-.064-.085-.064-.128v-.278c0-.042.022-.085.043-.128a.346.346 0 01.127-.064c.256 0 .447-.192.575-.555.127-.363.19-.94.19-1.752v-1.025a.23.23 0 01.043-.128c.043-.043.085-.043.128-.043h2.487c.043.043.085.064.107.085zm1.594-8.096c0-.193.085-.342.17-.342.107 0 .17.15.17.342 0 .192-.085.341-.17.341-.085-.02-.17-.17-.17-.341zm0 1.538c0-.193.085-.342.17-.342.107 0 .17.15.17.342 0 .192-.085.341-.17.341s-.17-.15-.17-.341zm-.787-1.496c-.02-.192.064-.341.15-.341.106 0 .19.128.19.32.022.192-.063.342-.148.342-.085 0-.17-.15-.191-.32zm.107 1.538c-.022-.192.064-.341.149-.341.106 0 .19.128.19.32.022.192-.063.342-.148.342-.085 0-.17-.15-.191-.32zm-.702.086c-.021-.192.022-.342.128-.363.106-.022.191.128.234.299.02.192-.022.342-.128.363-.106.021-.212-.107-.234-.3zm-.701.15c-.043-.172 0-.342.106-.364.085-.021.212.107.255.278.043.17 0 .342-.106.363-.106.021-.213-.107-.255-.278zm-.766.234c-.063-.17-.021-.341.064-.363.085-.021.213.086.276.257.064.17.022.341-.063.363-.107.021-.213-.086-.277-.257zm-1.87-2.584c-.064-.171-.064-.342.042-.385.085-.043.213.064.298.235.063.171.042.342-.043.385-.085.042-.212-.064-.298-.235zm1.169 2.84c-.064-.17-.043-.341.042-.384.085-.043.213.064.298.235.064.171.042.342-.043.385-.085.042-.212-.064-.297-.235zm-1.85-2.52c-.085-.17-.064-.342.021-.384.085-.043.234.064.298.213.085.171.064.342-.021.385-.085.042-.234-.043-.298-.214zm1.34 2.777c-.086-.17-.064-.342.02-.384.086-.043.235.064.298.213.085.171.064.342-.02.385-.086.042-.214-.043-.299-.214zm-2.148-2.35c-.085-.15-.106-.32-.021-.384.085-.043.234.043.319.192.085.15.106.32.021.385-.085.064-.212-.022-.319-.193zm1.552 2.67c-.085-.15-.106-.32-.021-.384.085-.043.234.043.319.192.085.15.106.32.021.385-.085.064-.234-.022-.319-.193zm-2.338-2.157c-.107-.15-.128-.32-.043-.385.085-.064.234.022.34.171.107.15.128.32.043.385-.085.064-.234 0-.34-.171zm2.083 2.734c-.085.064-.234-.021-.34-.17-.106-.15-.128-.321-.043-.385s.234.021.34.17c.107.15.107.321.043.385zM28.495 9.35c-.106-.15-.149-.32-.064-.363.085-.064.234 0 .34.15.107.149.15.32.064.363-.063.064-.212 0-.34-.15zm2.211 2.179c.107.15.15.32.064.363-.085.064-.234 0-.34-.15-.106-.149-.149-.32-.064-.363.064-.064.234 0 .34.15zM25.413 25.07c.19-.129.404-.171.467-.065.064.107-.021.3-.212.428-.192.128-.404.17-.468.064-.064-.086.043-.278.213-.427zm.552 1.388c-.085-.085 0-.299.17-.448.17-.15.383-.193.468-.107.085.085 0 .299-.17.448-.17.171-.383.214-.468.107zm.85.919c-.084-.086-.02-.3.15-.449.17-.17.361-.235.446-.128.085.085.021.299-.149.448-.17.171-.361.235-.446.129zm1.957-1.966c.085.086.02.3-.15.449-.17.17-.36.235-.446.128-.085-.085-.02-.299.15-.448.148-.15.36-.214.446-.129zm-.957 2.905c-.085-.085-.043-.299.106-.47.15-.17.34-.256.447-.17.085.085.042.299-.107.47-.148.17-.361.256-.446.17zm1 .79c-.107-.063-.065-.277.063-.47.128-.191.319-.277.425-.213.106.064.064.278-.064.47-.127.192-.319.278-.425.214zm2.231.407c.107.064.107.277 0 .47-.106.213-.276.32-.404.256-.106-.064-.106-.278 0-.47.107-.192.298-.32.404-.256zm1.063.982c-.085.214-.255.342-.382.3-.107-.043-.128-.257-.043-.47.085-.214.255-.342.383-.3.127.043.149.257.042.47zm1.148.427c-.085.214-.233.364-.34.32-.106-.042-.148-.255-.064-.47.086-.213.234-.362.34-.32.107.043.128.236.065.47zM27.73 10.054c-.128-.128-.17-.3-.106-.363.063-.064.234-.022.361.128.128.128.17.3.106.363-.085.064-.255 0-.361-.128zm2.36 1.986c.127.129.17.3.106.364-.064.064-.234.021-.361-.129-.128-.128-.17-.299-.107-.363.085-.064.255 0 .362.128zm-3.04-1.26c-.128-.128-.192-.277-.128-.363.064-.064.234-.043.361.086.128.128.192.277.128.363-.064.085-.234.042-.361-.086zm2.53 1.795c.127.128.19.277.127.363-.064.064-.234.042-.361-.086-.128-.128-.192-.277-.128-.363.064-.085.213-.043.361.086zm-2.658-1.133c-.064.086-.234.043-.361-.064-.15-.107-.213-.277-.15-.341.065-.086.235-.043.362.064.149.128.213.277.149.341zm2.424 1.923c-.064.085-.234.043-.362-.064-.149-.107-.212-.278-.149-.342.064-.085.234-.043.362.064.149.107.212.257.149.342zm-2.934-1.196c-.064.085-.213.064-.383-.043-.149-.107-.234-.256-.17-.342.064-.085.213-.064.383.043.148.107.212.256.17.342zm2.551 1.73c-.064.085-.213.064-.383-.043-.148-.107-.234-.256-.17-.342.064-.085.213-.064.383.043.149.107.213.256.17.342zm-3.04-.961c-.043.085-.213.085-.383 0-.17-.086-.255-.235-.191-.32.042-.086.212-.086.383 0 .148.106.233.234.19.32zm2.679 1.538c-.043.085-.213.085-.383 0-.17-.086-.255-.235-.192-.32.043-.086.213-.086.383 0 .149.085.234.234.192.32zm-3.338-1.004c.17.085.276.213.234.299-.043.085-.213.107-.383.021-.17-.085-.276-.213-.234-.299.043-.085.213-.085.383-.021zm23.386 7.626c-.022.085-.192.149-.362.106-.17-.042-.297-.15-.276-.256.021-.107.191-.15.361-.107.17.043.298.15.277.256zm-2.998-.705c-.021.085-.191.15-.361.106-.17-.042-.298-.15-.277-.256.021-.107.191-.15.362-.107.17.043.297.171.276.257zm2.53-.406c.021-.107.17-.15.361-.128.192.02.32.128.298.234-.021.107-.17.15-.361.129-.192-.043-.32-.129-.298-.235zm-3.04-.449c.021-.107.17-.15.361-.128.191.021.319.128.298.235-.022.107-.17.15-.362.128-.191-.043-.319-.128-.297-.235zm3.784-.235c0 .107-.17.171-.34.15-.191-.022-.32-.107-.32-.214s.171-.17.341-.15c.191.022.319.107.319.214zm-3.061-.277c0 .106-.17.17-.34.149-.192-.021-.32-.107-.32-.214 0-.106.17-.17.34-.15.192.044.32.13.32.215zm3.103-.663c0 .107-.148.171-.34.171-.191 0-.34-.085-.34-.192s.149-.17.34-.17c.192.02.34.084.34.191zm-3.06-.042c0 .106-.15.17-.341.17-.191 0-.34-.085-.34-.192s.149-.17.34-.17c.191.02.34.106.34.192zm2.7-1.09c.19-.021.34.064.34.15 0 .107-.128.192-.32.192-.191.021-.34-.064-.34-.15 0-.085.128-.17.32-.192zm-3.062.192c.191-.02.34.065.34.15 0 .107-.128.192-.32.192-.19.022-.34-.064-.34-.15-.02-.085.128-.17.32-.192zm2.636-.918c-.021-.107.127-.192.297-.214.192-.021.34.043.362.128.021.107-.128.193-.298.214-.191.021-.34-.043-.361-.128zm-3.04.427c-.022-.107.127-.192.297-.213.192-.022.34.042.362.128.021.106-.128.192-.298.213-.191.022-.34-.021-.361-.128zm-5.528-8.437c.064-.171.17-.3.277-.257.085.022.127.193.063.363-.063.171-.17.3-.276.257-.085-.022-.128-.192-.064-.363zm-.468 1.474c.064-.171.17-.3.277-.257.085.022.127.192.064.363-.064.171-.17.3-.277.257-.085-.022-.127-.193-.064-.363zm-.34-1.688c.043-.17.15-.299.255-.278.085.022.128.193.085.363-.042.171-.148.3-.255.278-.085-.021-.127-.192-.085-.363zm-.361 1.495c.042-.17.149-.299.255-.277.085.021.127.192.085.363-.042.17-.149.299-.255.277-.085-.02-.128-.17-.085-.363zm-.553-1.666c.021-.192.128-.32.234-.299.106.021.149.171.128.363-.022.192-.128.32-.234.3-.107-.022-.15-.172-.128-.364zm-.234 1.538c.021-.192.128-.32.234-.299.106.021.149.171.128.363-.022.192-.128.32-.234.3-.107-.022-.149-.193-.128-.364z" fill="#D1D3D4"/></svg><svg fill="none" viewBox="0 0 26 26" id="microPin" xmlns="http://www.w3.org/2000/svg"><circle cx="13" cy="13" r="13" fill="#A50034"/><path d="M13.464 18.507l.442.407-.442-.407zm-.928 0l-.442.407.442-.407zm4.53-6.84c0 .388-.145.9-.432 1.507-.283.597-.677 1.236-1.117 1.866-.881 1.259-1.911 2.428-2.494 3.061l.883.813c.598-.65 1.669-1.864 2.594-3.186.462-.661.897-1.361 1.218-2.041.317-.67.549-1.371.549-2.02h-1.2zm-4.09 6.434c-.582-.633-1.612-1.802-2.493-3.06-.44-.63-.834-1.27-1.117-1.867-.287-.607-.433-1.12-.433-1.507h-1.2c0 .649.232 1.35.548 2.02.322.68.757 1.38 1.22 2.041.924 1.322 1.995 2.537 2.593 3.186l.883-.813zm-4.043-6.434A4.067 4.067 0 0113 7.6V6.4a5.267 5.267 0 00-5.267 5.267h1.2zM13 7.6a4.067 4.067 0 014.067 4.067h1.2A5.267 5.267 0 0013 6.4v1.2zm.023 10.501a.04.04 0 01-.013.01.023.023 0 01-.01.002c-.003 0-.007 0-.01-.002a.04.04 0 01-.013-.01l-.883.813c.49.532 1.322.532 1.812 0l-.883-.813zm1.377-6.434a1.4 1.4 0 01-1.4 1.4v1.2a2.6 2.6 0 002.6-2.6h-1.2zm-1.4 1.4a1.4 1.4 0 01-1.4-1.4h-1.2a2.6 2.6 0 002.6 2.6v-1.2zm-1.4-1.4a1.4 1.4 0 011.4-1.4v-1.2a2.6 2.6 0 00-2.6 2.6h1.2zm1.4-1.4a1.4 1.4 0 011.4 1.4h1.2a2.6 2.6 0 00-2.6-2.6v1.2z" fill="#fff"/></svg><svg fill="none" viewBox="0 0 18 2" id="minus" xmlns="http://www.w3.org/2000/svg"><path d="M1 1h16" stroke="#fff" stroke-width="1.5" stroke-linecap="round" stroke-linejoin="round"/></svg><svg viewBox="0 0 14 14" id="more-hor" xmlns="http://www.w3.org/2000/svg"><path fill-rule="evenodd" clip-rule="evenodd" d="M12.216 8.75a1.75 1.75 0 100-3.5 1.75 1.75 0 000 3.5zm-5.25 0a1.75 1.75 0 100-3.5 1.75 1.75 0 000 3.5zm-5.25 0a1.75 1.75 0 100-3.5 1.75 1.75 0 000 3.5z"/></svg><svg fill="none" viewBox="0 0 54 54" id="nissan" xmlns="http://www.w3.org/2000/svg"><g clip-path="url(#asclip0_34_706)" fill="#000"><path d="M31.017 28.47c-.034.008-.174.008-.234.008h-4.487v1.047h4.565c.035 0 .304 0 .356-.009.93-.087 1.357-.863 1.357-1.544 0-.698-.444-1.448-1.287-1.526-.165-.018-.304-.018-.365-.018h-2.983c-.13 0-.278-.008-.33-.026-.235-.06-.322-.27-.322-.445 0-.157.087-.366.33-.436a1.24 1.24 0 01.313-.026h4.305v-1.03H27.86c-.183 0-.322.01-.435.027-.748.105-1.27.706-1.27 1.474 0 .628.392 1.36 1.253 1.483.156.017.374.017.47.017h2.904c.052 0 .182 0 .208.01.33.043.444.287.444.505 0 .21-.13.436-.418.488zM22.513 28.47c-.035.008-.174.008-.226.008h-4.495v1.047h4.565c.035 0 .304 0 .356-.009.93-.087 1.357-.863 1.357-1.544 0-.698-.444-1.448-1.287-1.526-.165-.018-.305-.018-.365-.018h-2.983c-.13 0-.278-.008-.33-.026-.235-.06-.322-.27-.322-.445 0-.157.087-.366.33-.436a1.24 1.24 0 01.313-.026h4.305v-1.03h-4.374c-.183 0-.322.01-.435.027-.748.105-1.27.706-1.27 1.474 0 .628.392 1.36 1.252 1.483.157.017.374.017.47.017h2.904c.053 0 .183 0 .21.01.33.043.443.287.443.505a.48.48 0 01-.418.488zM15.452 24.43h-1.13v5.12h1.13v-5.12zM11.826 29.55v-5.12h-1.13v3.821l-3.766-3.82H5.478v5.12h1.13v-3.838L10.4 29.55h1.426zM48.183 24.43v3.821l-3.766-3.82h-1.452v5.12h1.13v-3.838l3.783 3.838h1.426v-5.12h-1.121zM37.078 24.43l-3.183 5.12h1.374l.566-.915h3.713l.565.916h1.365l-3.183-5.12h-1.217zm1.887 3.237h-2.548l1.279-2.059 1.27 2.059zM11.765 21.526C14.044 14.854 20.322 10.37 27.4 10.37c7.078 0 13.365 4.484 15.635 11.156l.017.053h4.983v-.602l-2.07-.244c-1.278-.149-1.547-.716-1.895-1.43l-.087-.175c-2.991-6.385-9.505-10.52-16.583-10.52-7.087 0-13.591 4.135-16.582 10.537l-.087.175c-.348.715-.618 1.282-1.896 1.43l-2.07.244v.602h4.974l.026-.07zM43.052 32.412l-.017.052c-2.279 6.673-8.557 11.148-15.635 11.148-7.078 0-13.365-4.484-15.635-11.156l-.017-.053H6.774v.602l2.07.244c1.277.149 1.547.716 1.895 1.43l.087.175c2.991 6.403 9.504 10.537 16.582 10.537 7.079 0 13.592-4.134 16.583-10.528l.087-.174c.348-.716.617-1.283 1.896-1.43l2.07-.245v-.602h-4.992z"/></g><defs><clipPath id="asclip0_34_706"><path fill="#fff" transform="translate(5.478 8.608)" d="M0 0h43.826v36.783H0z"/></clipPath></defs></svg><svg viewBox="0 0 16 16" id="phone" xmlns="http://www.w3.org/2000/svg"><path d="M15.524 14.279s-3.643 5.2-11.314-2.477C-3.505 4.071 1.742.476 1.742.476A1.622 1.622 0 014.19.65l1.476 1.978a1.627 1.627 0 01-.15 2.126L4.214 6.057s0 1.15 2.297 3.45c2.297 2.3 3.446 2.3 3.446 2.3l1.3-1.302a1.623 1.623 0 012.124-.15l1.968 1.478a1.63 1.63 0 01.175 2.446z"/></svg><svg viewBox="0 0 50 50" id="pin" xmlns="http://www.w3.org/2000/svg"><path d="M26.451 42.21l.81.746-.81-.745zm-2.902 0l-.81.746.81-.745zm14.934-21.377c0 1.382-.511 3.104-1.427 5.041-.907 1.92-2.166 3.957-3.557 5.946-2.78 3.975-6.026 7.658-7.857 9.646l1.619 1.49c1.858-2.018 5.178-5.784 8.04-9.875 1.432-2.046 2.765-4.196 3.744-6.267.97-2.052 1.638-4.122 1.638-5.98h-2.2zM24.358 41.466c-1.83-1.988-5.076-5.671-7.857-9.646-1.391-1.989-2.65-4.027-3.557-5.946-.916-1.937-1.427-3.66-1.427-5.04h-2.2c0 1.858.668 3.928 1.638 5.98.98 2.072 2.312 4.221 3.743 6.267 2.863 4.091 6.183 7.857 8.041 9.875l1.619-1.49zM11.517 20.833C11.517 13.387 17.553 7.35 25 7.35v-2.2c-8.662 0-15.683 7.022-15.683 15.683h2.2zM25 7.35c7.447 0 13.483 6.037 13.483 13.483h2.2C40.683 12.172 33.662 5.15 25 5.15v2.2zm.642 34.116a.86.86 0 01-1.284 0l-1.619 1.49a3.059 3.059 0 004.522 0l-1.619-1.49zm4.508-20.633a5.15 5.15 0 01-5.15 5.15v2.2a7.35 7.35 0 007.35-7.35h-2.2zM25 25.983a5.15 5.15 0 01-5.15-5.15h-2.2a7.35 7.35 0 007.35 7.35v-2.2zm-5.15-5.15a5.15 5.15 0 015.15-5.15v-2.2a7.35 7.35 0 00-7.35 7.35h2.2zm5.15-5.15a5.15 5.15 0 015.15 5.15h2.2a7.35 7.35 0 00-7.35-7.35v2.2z"/></svg><svg viewBox="0 0 18 18" id="plus" xmlns="http://www.w3.org/2000/svg"><path d="M9 1v8m0 8V9m0 0H1m8 0h8"/></svg><svg fill="none" viewBox="0 0 16 17" id="sr-download" xmlns="http://www.w3.org/2000/svg"><path d="M7.333 9.558V1.834a.667.667 0 011.334 0v7.724l2.195-2.196a.667.667 0 01.943.943L8.47 11.638a.667.667 0 01-.942 0L4.195 8.305a.667.667 0 11.943-.943l2.195 2.196z" fill="#A50034"/><path d="M1.333 10.5c.369 0 .667.299.667.667v2.667c0 .368.299.666.667.666h10.666a.667.667 0 00.667-.666v-2.667a.667.667 0 011.333 0v2.667a2 2 0 01-2 2H2.667a2 2 0 01-2-2v-2.667c0-.368.298-.667.666-.667z" fill="#A50034"/></svg><svg viewBox="0 0 16 16" id="sr-longarrow-right" xmlns="http://www.w3.org/2000/svg"><path d="M10.862 10.862a.667.667 0 00.943.943l3.333-3.334a.667.667 0 000-.942l-3.333-3.334a.667.667 0 00-.943.943l2.195 2.195H1.333a.667.667 0 000 1.334h11.724l-2.195 2.195z"/></svg><svg fill="none" viewBox="0 0 60 60" id="sv1" xmlns="http://www.w3.org/2000/svg"><path d="M29.966 52.693c-7.23 0-14.481-.302-21.711-.908A4.899 4.899 0 013.8 46.92v-7.97a9.506 9.506 0 013.48-7.509l-3.713-.938a2.571 2.571 0 01-1.727-3.527 4.389 4.389 0 014.005-2.603h3.6a3.399 3.399 0 012.488 1.555l2.66-4.356a8.674 8.674 0 017.343-4.124h16.126a8.677 8.677 0 017.342 4.123l2.66 4.355a3.359 3.359 0 012.423-1.551h3.666a4.389 4.389 0 014.004 2.595c.143.328.218.682.22 1.04a2.562 2.562 0 01-1.946 2.495l-3.74.943.06.052a9.857 9.857 0 013.222 7.419v7.995a4.9 4.9 0 01-4.455 4.865 251.97 251.97 0 01-21.553.914zM9.366 25.99l-3.522.004a2.766 2.766 0 00-2.52 1.637.952.952 0 00.021.801.923.923 0 00.617.498l5.594 1.408a.81.81 0 01.103 1.54 4.45 4.45 0 00-.905.496 7.813 7.813 0 00-3.329 6.574v7.97a3.268 3.268 0 002.967 3.252 256.142 256.142 0 0042.994 0 3.27 3.27 0 002.97-3.252v-8a8.234 8.234 0 00-2.677-6.205 3.876 3.876 0 00-1.264-.819.811.811 0 01.047-1.559l5.58-1.407a.956.956 0 00.715-.917 1.01 1.01 0 00-.086-.395 2.763 2.763 0 00-2.514-1.622h-3.601c-.06.012-1.266.196-1.501 1.903a.81.81 0 01-1.495.312l-3.533-5.791a7.043 7.043 0 00-5.96-3.348H21.937a7.04 7.04 0 00-5.96 3.349l-3.537 5.79a.81.81 0 01-1.495-.312c-.235-1.708-1.441-1.891-1.578-1.907z" fill="#4D4D4F"/><path d="M43.366 32.225H16.634a1.523 1.523 0 01-1.33-2.27l3.325-5.924a4.252 4.252 0 013.704-2.168h15.332a4.251 4.251 0 013.703 2.168l3.325 5.92a1.524 1.524 0 01-1.33 2.27l.003.004zm-26.564-1.622h26.396l-3.243-5.775a2.632 2.632 0 00-2.29-1.34h-15.33a2.63 2.63 0 00-2.29 1.34l-3.243 5.775zM36.255 44.99h-12.47a2.271 2.271 0 01-2.189-1.631l-.453-1.521a2.324 2.324 0 012.225-2.987h13.303a2.323 2.323 0 012.226 2.987l-.452 1.517a2.299 2.299 0 01-2.19 1.636zm-12.887-4.515a.704.704 0 00-.672.902l.453 1.515a.66.66 0 00.636.474h12.47a.668.668 0 00.637-.474l.452-1.518a.702.702 0 00-.672-.902l-13.304.003zM16.946 44.79c-.156 0-.312-.02-.463-.06l-5.757-1.578a3.376 3.376 0 01-2.388-4.196 3.616 3.616 0 013.457-2.616c.286.003.57.039.849.106l.486.14a7.4 7.4 0 015.309 5.194l.21.758a1.78 1.78 0 01-1.702 2.252h-.001zm-5.154-6.828a1.986 1.986 0 00-1.896 1.444 1.751 1.751 0 001.241 2.18h.01l5.758 1.577a.153.153 0 00.144-.044.153.153 0 00.038-.146l-.21-.758a5.788 5.788 0 00-4.167-4.061l-.47-.136a2.226 2.226 0 00-.446-.056h-.002zM43.054 44.79a1.777 1.777 0 01-1.703-2.252l.211-.758a7.415 7.415 0 015.338-5.202l.41-.119c.293-.075.595-.115.898-.12a3.617 3.617 0 013.458 2.619 3.374 3.374 0 01-2.39 4.194l-5.753 1.576c-.153.04-.31.061-.469.061zm5.154-6.828a2.32 2.32 0 00-.496.067l-.39.115a5.802 5.802 0 00-4.197 4.07l-.21.758a.144.144 0 00.038.15.142.142 0 00.149.04l5.752-1.575h.01a1.751 1.751 0 001.244-2.181 1.989 1.989 0 00-1.902-1.444h.002zM51.486 57.23h-4.928a2.445 2.445 0 01-2.443-2.444v-3.335a.81.81 0 111.622 0v3.335a.822.822 0 00.82.822h4.93a.823.823 0 00.82-.822v-4.332a.811.811 0 011.622 0v4.332a2.446 2.446 0 01-2.443 2.444zM13.442 57.23H8.514a2.446 2.446 0 01-2.447-2.444v-4.332a.81.81 0 111.622 0v4.332a.823.823 0 00.825.822h4.932a.823.823 0 00.82-.822v-3.335a.81.81 0 111.622 0v3.335a2.445 2.445 0 01-2.446 2.444zM41.813 14.816a5.562 5.562 0 01-5.002-3.071H23.189a5.613 5.613 0 01-10.21-.442.81.81 0 01.752-1.116h2.259l.956-1.395-.954-1.396h-2.259a.81.81 0 01-.751-1.116 5.614 5.614 0 0110.207-.437h13.622a5.612 5.612 0 0110.208.439.81.81 0 01-.752 1.114h-2.26l-.953 1.396.95 1.396h2.26a.811.811 0 01.752 1.114 5.585 5.585 0 01-5.203 3.514zm-19.148-4.693h14.676a.811.811 0 01.757.52 3.989 3.989 0 006.74 1.166h-1.26a.812.812 0 01-.67-.354l-1.502-2.206a.81.81 0 010-.913l1.503-2.207a.812.812 0 01.67-.355h1.259a3.991 3.991 0 00-6.743 1.171.811.811 0 01-.756.52H22.663a.81.81 0 01-.756-.52 3.992 3.992 0 00-6.745-1.17h1.256a.81.81 0 01.67.354l1.503 2.207a.81.81 0 010 .913l-1.503 2.206a.812.812 0 01-.67.354h-1.256a3.99 3.99 0 006.746-1.167.812.812 0 01.757-.519z" fill="#4D4D4F"/></svg><svg fill="none" viewBox="0 0 60 60" id="sv2" xmlns="http://www.w3.org/2000/svg"><path d="M57.568 54.73H45.405a.811.811 0 01-.81-.811v-2.635a3.045 3.045 0 013.04-3.04h7.703a3.044 3.044 0 013.04 3.04v2.635a.81.81 0 01-.81.81zm-11.352-1.622h10.54v-1.824a1.42 1.42 0 00-1.418-1.42h-7.703a1.42 1.42 0 00-1.419 1.42v1.824z" fill="#4D4D4F"/><path d="M53.919 49.865h-4.865a.81.81 0 01-.81-.81V8.513a3.243 3.243 0 016.486 0v40.54a.81.81 0 01-.811.811zm-4.054-1.622h3.243V8.514a1.622 1.622 0 00-3.243 0v39.73zM14.595 54.73H2.432a.811.811 0 01-.81-.811v-2.635a3.045 3.045 0 013.04-3.04h7.703a3.044 3.044 0 013.04 3.04v2.635a.81.81 0 01-.81.81zM3.243 53.108h10.54v-1.824a1.42 1.42 0 00-1.418-1.42H4.662a1.42 1.42 0 00-1.419 1.42v1.824z" fill="#4D4D4F"/><path d="M10.946 49.865H6.08a.81.81 0 01-.81-.81V8.513a3.243 3.243 0 016.486 0v40.54a.81.81 0 01-.811.811zm-4.054-1.622h3.243V8.514a1.622 1.622 0 10-3.243 0v39.73zM49.054 40.54h-15.81a.811.811 0 010-1.621h15.81a.811.811 0 010 1.622z" fill="#4D4D4F"/><path d="M24.831 40.54H10.946a.811.811 0 010-1.621H24.83a.811.811 0 010 1.622zM40.493 40.54H36.78a1.497 1.497 0 01-1.494-1.495v-2.857a.811.811 0 011.621 0v2.73h3.46v-2.73a.81.81 0 111.622 0v2.857a1.497 1.497 0 01-1.495 1.495z" fill="#4D4D4F"/><path d="M23.123 40.54H19.41a1.497 1.497 0 01-1.49-1.495v-2.857a.811.811 0 011.622 0v2.73H23v-2.73a.81.81 0 111.62 0v2.857a1.497 1.497 0 01-1.497 1.495z" fill="#4D4D4F"/><path d="M42.802 37H17.099a2.137 2.137 0 01-2.132-2.135v-4.062a5.39 5.39 0 015.384-5.383h19.202a5.39 5.39 0 015.383 5.383v4.062a2.136 2.136 0 01-2.134 2.134zm-22.45-9.959a3.765 3.765 0 00-3.763 3.762v4.062a.512.512 0 00.513.512h25.702a.512.512 0 00.51-.512v-4.062a3.765 3.765 0 00-3.761-3.762H20.35z" fill="#4D4D4F"/><path d="M37.965 33.95a2.559 2.559 0 11-.002-5.118 2.559 2.559 0 01.002 5.117zm0-3.498a.938.938 0 10-.002 1.875.938.938 0 00.002-1.875zM21.939 33.95a2.56 2.56 0 110-5.119 2.56 2.56 0 010 5.119zm0-3.498a.938.938 0 100 1.876.938.938 0 000-1.876zM18.835 27.314a.811.811 0 01-.765-1.079l1.832-5.264a.821.821 0 01.044-.102 4.048 4.048 0 013.618-2.22h12.774a4.048 4.048 0 013.617 2.22.865.865 0 01.044.102l1.839 5.263a.811.811 0 11-1.532.535l-1.82-5.207a2.432 2.432 0 00-2.148-1.292H23.564a2.432 2.432 0 00-2.15 1.29L19.6 26.77a.81.81 0 01-.766.545z" fill="#4D4D4F"/><path d="M41.223 27.357a.812.812 0 01-.076-1.622 3.006 3.006 0 002.419-1.895.81.81 0 111.505.606 4.65 4.65 0 01-3.848 2.91zM18.777 27.356h-.081a4.65 4.65 0 01-3.77-2.903.81.81 0 111.505-.606 3.007 3.007 0 002.419 1.895.812.812 0 11-.077 1.622l.004-.008z" fill="#4D4D4F"/></svg><svg fill="none" viewBox="0 0 60 60" id="sv3" xmlns="http://www.w3.org/2000/svg"><path d="M57.568 48.948H46.974a.81.81 0 01-.736-.47l-5.561-12.05H23.556a2.432 2.432 0 01-2.433-2.432v-9.277a2.432 2.432 0 012.433-2.432h26.612a2.432 2.432 0 012.433 2.433v10.72l5.703 12.358a.81.81 0 01-.736 1.15zm-10.075-1.621H56.3l-5.246-11.37a.804.804 0 01-.075-.34V24.72a.811.811 0 00-.81-.811H23.555a.811.811 0 00-.811.81v9.277a.81.81 0 00.81.81h17.64a.811.811 0 01.736.472l5.562 12.049z" fill="#4D4D4F"/><path d="M21.934 33h-4.865a.811.811 0 110-1.622h4.054v-4.156H17.07a.81.81 0 110-1.621h4.865a.81.81 0 01.81.81v5.778a.811.811 0 01-.81.811z" fill="#4D4D4F"/><path d="M13.165 36.331h-1.753a.81.81 0 01-.81-.81V23.076a.81.81 0 01.81-.811h1.753a4.77 4.77 0 014.764 4.764v4.54a4.77 4.77 0 01-4.764 4.762zm-.942-1.621h.942a3.146 3.146 0 003.143-3.144v-4.54a3.146 3.146 0 00-3.143-3.143h-.942V34.71zM7.489 30.109H2.432a.81.81 0 110-1.622H7.49a.81.81 0 110 1.622zM7.09 25.82a.809.809 0 01-.305-.06l-4.26-1.734a.811.811 0 01.611-1.502l4.26 1.733a.81.81 0 01-.306 1.563zM2.831 36.132a.81.81 0 01-.306-1.562l4.26-1.732a.81.81 0 11.611 1.501l-4.26 1.733c-.096.04-.2.06-.305.06zM39.251 23.907h-3.908a.81.81 0 01-.81-.811V19.62a.81.81 0 111.621 0v2.664h2.287V19.62a.81.81 0 111.621 0v3.475a.81.81 0 01-.81.81z" fill="#4D4D4F"/><path d="M39.25 20.433a.811.811 0 11-.048-1.622 1.716 1.716 0 001.606-1.71v-4.428h-7.022V17.1a1.716 1.716 0 001.607 1.711.81.81 0 01.76.86.796.796 0 01-.86.759 3.34 3.34 0 01-3.128-3.33v-4.735a1.314 1.314 0 011.313-1.313h7.638a1.314 1.314 0 011.314 1.313V17.1a3.34 3.34 0 01-3.128 3.333h-.051zM42.973 28.31H30a.81.81 0 110-1.622h12.973a.81.81 0 110 1.621z" fill="#4D4D4F"/></svg><svg fill="none" viewBox="0 0 60 60" id="sv4" xmlns="http://www.w3.org/2000/svg"><path fill-rule="evenodd" clip-rule="evenodd" d="M46.47 3.9c.33-.33.776-.514 1.242-.514h8.002a.9.9 0 01.9.9v51.428a.9.9 0 01-.9.9H4a.9.9 0 110-1.8h41.184L44.15 53.78a4.537 4.537 0 010-6.415 2.736 2.736 0 000-3.87 4.537 4.537 0 010-6.416 2.737 2.737 0 000-3.87 4.537 4.537 0 010-6.416 2.737 2.737 0 000-3.87 4.537 4.537 0 010-6.416 2.737 2.737 0 000-3.87 4.537 4.537 0 010-6.415l2.32-2.32zm1.26 50.914h7.084V5.186H47.73l-2.308 2.308a2.736 2.736 0 000 3.87 4.537 4.537 0 010 6.415 2.736 2.736 0 000 3.87 4.537 4.537 0 010 6.416 2.737 2.737 0 000 3.87 4.537 4.537 0 010 6.416 2.737 2.737 0 000 3.87 4.537 4.537 0 010 6.415 2.737 2.737 0 000 3.87l2.308 2.308zm.013-49.64z" fill="#4D4D4F"/><path fill-rule="evenodd" clip-rule="evenodd" d="M18.587 7.568a.9.9 0 011.273 0c10.732 10.732 10.732 28.131 0 38.863a.9.9 0 11-1.273-1.273c10.03-10.029 10.03-26.288 0-36.317a.9.9 0 010-1.273zm-7.33 7.33a.9.9 0 011.273 0c6.684 6.684 6.684 17.52 0 24.203a.9.9 0 11-1.273-1.273c5.98-5.98 5.98-15.677 0-21.657a.9.9 0 010-1.273zM4.68 21.476a.9.9 0 011.273 0 7.81 7.81 0 010 11.047.9.9 0 11-1.273-1.273 6.01 6.01 0 000-8.5.9.9 0 010-1.274z" fill="#4D4D4F"/></svg><svg fill="none" viewBox="0 0 60 60" id="sv5" xmlns="http://www.w3.org/2000/svg"><path fill-rule="evenodd" clip-rule="evenodd" d="M9.469 9.469c-5.733 5.732-5.733 15.026 0 20.759 4.48 4.48 11.139 5.46 16.57 2.934l-3.647-3.648a6.108 6.108 0 01-8.075-.499l-4.924-4.924 1.133-1.133a9.325 9.325 0 0112.432-12.432l1.133-1.133 4.924 4.925a6.108 6.108 0 01.498 8.074l3.648 3.648c2.526-5.432 1.547-12.09-2.934-16.571-5.732-5.732-15.026-5.732-20.758 0zm24.814 17.693c3.078-6.07 2.08-13.678-2.995-18.754-6.318-6.318-16.562-6.318-22.88 0-6.318 6.319-6.318 16.562 0 22.88 5.075 5.076 12.683 6.073 18.754 2.996l3.747 3.747 1.364-1.364L43.94 48.335l1.667-1.667 3.96 3.96a6.062 6.062 0 004.286 1.776c.564 0 1.02.456 1.02 1.02v.337c0 .75-.607 1.358-1.357 1.358H34.37a3.466 3.466 0 01-3.466-3.465 4.966 4.966 0 00-4.966-4.967h-12.84v1.5h12.84a3.466 3.466 0 013.466 3.467 4.966 4.966 0 004.966 4.965h19.146a2.858 2.858 0 002.858-2.858v-.337a2.52 2.52 0 00-2.52-2.52c-1.21 0-2.37-.481-3.226-1.337l-3.96-3.96 1.666-1.667-11.667-11.667 1.364-1.364-3.748-3.747zm1.323 6.172l-2.273 2.273L43.94 46.213l2.273-2.273-10.607-10.606zM28.442 21.32a4.608 4.608 0 00-.488-5.943l-3.863-3.863-2.728 2.727 7.079 7.079zm-8.14-8.14l1.517-1.516a7.824 7.824 0 00-10.154 10.154l1.516-1.516-1.212-1.212 7.121-7.122 1.212 1.212zm-6.06 8.182l-2.728 2.728 3.864 3.864a4.608 4.608 0 005.942.487l-7.078-7.079zm8.182 6.061l5-5-8.334-8.334-5 5 8.334 8.334zm1.06 1.061l5-5 7.425 7.425-5 5-7.424-7.425z" fill="#4D4D4F"/><path fill-rule="evenodd" clip-rule="evenodd" d="M40.289 25.31h.02l.073-.003a9.854 9.854 0 001.198-.13 5.975 5.975 0 001.037-.268c.327-.121.556-.258.69-.392.133-.133.27-.362.391-.69.119-.318.205-.681.267-1.036a9.858 9.858 0 00.134-1.27V21.5a.75.75 0 011.5 0v.02l.004.073a9.863 9.863 0 00.13 1.198c.062.355.149.718.267 1.037.122.327.259.556.392.69.134.133.363.27.69.391a5.97 5.97 0 001.036.267 9.853 9.853 0 001.271.134h.02a.75.75 0 01.001 1.5h-.021l-.073.004a9.823 9.823 0 00-1.198.13 5.961 5.961 0 00-1.036.268c-.327.121-.556.258-.69.392-.133.133-.27.362-.392.69a5.961 5.961 0 00-.267 1.036 9.857 9.857 0 00-.133 1.27V30.622a.75.75 0 01-1.5 0v-.003l-.001-.017a6.562 6.562 0 00-.02-.354 9.853 9.853 0 00-.114-.917 5.97 5.97 0 00-.267-1.037c-.122-.327-.258-.556-.392-.69-.133-.133-.362-.27-.69-.391a5.966 5.966 0 00-1.036-.267 9.825 9.825 0 00-1.27-.134H40.288a.75.75 0 010-1.5zm0 0zm4.56 1.894c.13-.238.288-.466.483-.661s.423-.353.66-.482a2.862 2.862 0 01-.66-.483 2.862 2.862 0 01-.483-.66 2.86 2.86 0 01-.482.66 2.86 2.86 0 01-.661.483c.238.129.466.287.66.482.196.195.354.423.483.66zm-4.56-.394zM46.804 7.886H46.825a5.568 5.568 0 00.353-.02c.24-.02.566-.053.918-.114a5.974 5.974 0 001.036-.267c.327-.122.556-.259.69-.392.133-.134.27-.363.392-.69.118-.319.205-.682.267-1.036a9.854 9.854 0 00.133-1.271V4.076a.75.75 0 011.5-.001v.003l.001.018.003.073a9.859 9.859 0 00.13 1.198c.063.354.15.717.268 1.036.122.327.258.556.392.69.133.133.362.27.69.392.318.118.682.205 1.036.267a9.85 9.85 0 001.27.133H55.926a.75.75 0 010 1.5h-.003l-.017.001-.073.003a9.848 9.848 0 00-1.198.13 5.972 5.972 0 00-1.037.268c-.327.122-.556.258-.69.392-.133.133-.27.362-.391.69a5.97 5.97 0 00-.267 1.036 9.857 9.857 0 00-.134 1.27V13.197a.75.75 0 01-1.5 0v-.02a6.562 6.562 0 00-.02-.354 9.853 9.853 0 00-.114-.917 5.97 5.97 0 00-.267-1.037c-.122-.327-.259-.556-.392-.69-.134-.133-.363-.27-.69-.391a5.974 5.974 0 00-1.036-.267 9.845 9.845 0 00-1.271-.134H46.804a.75.75 0 010-1.5zm0 0zm4.56 1.893c.13-.238.288-.466.483-.66.195-.196.423-.354.661-.483a2.865 2.865 0 01-.66-.483 2.867 2.867 0 01-.483-.66c-.13.237-.288.465-.483.66a2.865 2.865 0 01-.66.483c.237.129.465.287.66.482s.354.423.483.661zm-4.56-.393zM4.226 40.766h.021l.073-.004a9.854 9.854 0 001.198-.13 5.973 5.973 0 001.036-.268c.327-.121.556-.258.69-.392.133-.133.27-.362.392-.69a5.97 5.97 0 00.267-1.035 9.85 9.85 0 00.133-1.272v-.017l.001-.003a.75.75 0 011.5 0v.02a5.568 5.568 0 00.02.354c.019.24.053.566.114.917.062.355.148.718.267 1.037.122.327.258.556.392.69.133.133.363.27.69.391.318.12.682.206 1.036.268a9.853 9.853 0 001.271.133h.02a.75.75 0 010 1.5h-.003l-.017.001-.073.003a9.853 9.853 0 00-1.198.13 5.982 5.982 0 00-1.036.268c-.327.121-.556.258-.69.392-.133.133-.27.362-.392.69a5.972 5.972 0 00-.267 1.036 9.856 9.856 0 00-.134 1.27V46.077a.75.75 0 01-1.5 0v-.02a5.568 5.568 0 00-.02-.354 9.856 9.856 0 00-.114-.917 5.972 5.972 0 00-.267-1.037c-.122-.327-.259-.556-.392-.69-.134-.133-.363-.27-.69-.391a5.981 5.981 0 00-1.036-.267 9.854 9.854 0 00-1.271-.134h-.02a.75.75 0 010-1.5zm0 0zm4.56 1.893c.13-.238.288-.466.483-.66.195-.196.424-.354.661-.483a2.864 2.864 0 01-.66-.483 2.864 2.864 0 01-.483-.66c-.13.237-.288.465-.483.66a2.864 2.864 0 01-.66.483c.237.129.465.287.66.482s.354.423.483.661zm-4.56-.393z" fill="#4D4D4F"/></svg><svg fill="none" viewBox="0 0 60 60" id="sv6" xmlns="http://www.w3.org/2000/svg"><path d="M54.226 51.84H5.774a4.15 4.15 0 01-4.054-5.052l5.198-23.38a4.125 4.125 0 014.054-3.25H49.03a4.125 4.125 0 014.054 3.25l5.195 23.38a4.15 4.15 0 01-4.054 5.052zM10.97 21.779a2.513 2.513 0 00-2.47 1.977L3.306 47.14a2.53 2.53 0 002.469 3.081h48.452a2.53 2.53 0 002.47-3.08l-5.197-23.384a2.513 2.513 0 00-2.468-1.98l-38.061.003zM44 9.546l-.014-.75a.75.75 0 000 1.5l.014-.75zM48.546 5l.75-.014a.75.75 0 00-1.5 0l.75.014zm4.545 4.546l.015.75a.75.75 0 000-1.5l-.015.75zm-4.545 4.546l-.75.014a.75.75 0 001.5 0l-.75-.014zm4.545-4.546l-.014-.75h-.002-.01a3.854 3.854 0 00-.12.005 11.353 11.353 0 00-1.388.152 7.452 7.452 0 00-1.302.338c-.425.159-.879.39-1.227.737l1.06 1.061c.134-.133.363-.27.69-.392a5.98 5.98 0 011.037-.267 9.858 9.858 0 011.27-.134H53.107l-.015-.75zm-4.063.482c-.348.348-.578.802-.737 1.227a7.45 7.45 0 00-.339 1.303 11.343 11.343 0 00-.155 1.48v.027l-.001.008v.003l.75.016.75.014v-.003-.017l.003-.073a9.858 9.858 0 01.13-1.198 5.98 5.98 0 01.268-1.036c.122-.327.258-.556.392-.69l-1.06-1.06zM44 9.546l.015.75h.011l.027-.001.093-.004a11.347 11.347 0 001.388-.152 7.452 7.452 0 001.302-.338c.426-.159.88-.39 1.227-.738l-1.06-1.06c-.134.133-.363.27-.69.392a5.97 5.97 0 01-1.036.267 9.85 9.85 0 01-1.272.133l-.017.001h-.003l.015.75zm4.063-.483c.348-.348.579-.8.737-1.227.162-.433.268-.893.34-1.302a11.348 11.348 0 00.154-1.481l.001-.026v-.008-.003-.001L48.545 5l-.75-.015v.021l-.003.073a9.854 9.854 0 01-.13 1.198 5.973 5.973 0 01-.267 1.036c-.122.327-.259.556-.393.69l1.061 1.06zm.483 5.029l.75-.015v-.002-.002-.008l-.002-.026-.003-.093a11.343 11.343 0 00-.152-1.388 7.45 7.45 0 00-.339-1.303c-.158-.425-.389-.879-.737-1.227l-1.06 1.061c.133.133.27.363.392.69.118.319.205.682.267 1.036a9.858 9.858 0 01.133 1.271v.02l.75-.014zm-.483-4.064c-.348-.348-.801-.578-1.227-.737a7.455 7.455 0 00-1.302-.339 11.351 11.351 0 00-1.508-.156h-.011l-.015.75-.015.75h.021l.073.003a9.853 9.853 0 011.198.13 5.98 5.98 0 011.036.268c.327.122.556.259.69.392l1.06-1.06zM48.546 5l-.75.015v.038l.005.093a11.348 11.348 0 00.152 1.388c.07.409.177.869.338 1.302.159.426.39.88.737 1.227l1.06-1.06c-.133-.134-.27-.363-.391-.69a5.982 5.982 0 01-.267-1.036 9.854 9.854 0 01-.134-1.271v-.017-.004l-.75.015zm.482 4.063c.348.348.802.58 1.227.738.434.161.894.267 1.302.338a11.349 11.349 0 001.482.156H53.076l.015-.75.015-.749h-.02a5.568 5.568 0 01-.354-.02 9.856 9.856 0 01-.917-.114 5.97 5.97 0 01-1.036-.267c-.328-.122-.557-.259-.69-.392l-1.06 1.06z" fill="#4D4D4F"/><path d="M11 30.546l-.014-.75a.75.75 0 000 1.5l.014-.75zM15.546 26l.75-.014a.75.75 0 00-1.5 0l.75.014zm4.545 4.546l.015.75a.75.75 0 000-1.5l-.015.75zm-4.545 4.546l-.75.014a.75.75 0 001.5 0l-.75-.014zm4.545-4.546l-.014-.75h-.002-.01l-.026.001-.094.004a11.349 11.349 0 00-1.388.152 7.449 7.449 0 00-1.302.338c-.425.159-.879.39-1.227.737l1.06 1.061c.134-.133.363-.27.69-.392a5.98 5.98 0 011.037-.267 9.858 9.858 0 011.27-.134H20.107l-.015-.75zm-4.063.482c-.348.348-.578.802-.737 1.227a7.45 7.45 0 00-.339 1.303 11.343 11.343 0 00-.155 1.48v.027l-.001.008v.003l.75.016.75.014v-.003-.017l.003-.073a9.858 9.858 0 01.13-1.198 5.98 5.98 0 01.268-1.036c.122-.327.258-.557.392-.69l-1.06-1.06zM11 30.546l.015.75h.011l.027-.001.093-.004a11.347 11.347 0 001.388-.152 7.452 7.452 0 001.302-.338c.426-.159.88-.39 1.227-.738l-1.06-1.06c-.134.133-.363.27-.69.392a5.98 5.98 0 01-1.036.267 9.853 9.853 0 01-1.271.134H10.984l.015.75zm4.063-.483c.348-.348.579-.8.737-1.227a7.45 7.45 0 00.34-1.302 11.347 11.347 0 00.154-1.481l.001-.027v-.007-.003-.001l-.75-.015-.75-.015v.021l-.003.073a9.853 9.853 0 01-.13 1.198 5.97 5.97 0 01-.268 1.036c-.121.327-.258.556-.392.69l1.061 1.06zm.483 5.029l.75-.015v-.002-.002-.008l-.002-.026-.003-.093a11.343 11.343 0 00-.152-1.388 7.45 7.45 0 00-.339-1.303c-.158-.425-.389-.879-.737-1.227l-1.06 1.061c.133.133.27.363.392.69.118.318.205.682.267 1.036a9.858 9.858 0 01.133 1.271v.02l.75-.014zm-.483-4.064c-.348-.348-.801-.578-1.227-.737a7.452 7.452 0 00-1.302-.339 11.347 11.347 0 00-1.481-.155H11.016l-.001-.001-.015.75-.015.75h.02l.074.003a9.853 9.853 0 011.198.13 5.98 5.98 0 011.036.268c.327.122.556.259.69.392l1.06-1.06zM15.546 26l-.75.015v.038l.005.093a11.347 11.347 0 00.152 1.388c.07.409.177.869.338 1.302.159.426.39.88.737 1.227l1.06-1.06c-.133-.134-.27-.363-.391-.69a5.98 5.98 0 01-.267-1.036 9.853 9.853 0 01-.134-1.271v-.017-.004l-.75.015zm.482 4.063c.348.349.802.58 1.227.738.434.161.894.267 1.302.339a11.349 11.349 0 001.482.155H20.076l.015-.75.015-.749h-.02l-.073-.003a9.858 9.858 0 01-1.198-.13 5.98 5.98 0 01-1.037-.268c-.327-.122-.556-.259-.69-.392l-1.06 1.06zM41.85 51.843a.812.812 0 01-.79-.996l1.426-6.09-4.825-4.135a.812.812 0 111.054-1.23l5.2 4.453a.81.81 0 01.262.8l-1.54 6.569a.81.81 0 01-.787.629z" fill="#4D4D4F"/><path d="M34.778 44.826a.811.811 0 01-.617-1.336l6.81-8.016a.811.811 0 111.236 1.054l-6.811 8.016a.812.812 0 01-.618.282zM23.683 51.843a.812.812 0 01-.79-.996l1.427-6.09-4.826-4.135a.812.812 0 111.054-1.23l5.2 4.453a.81.81 0 01.262.8l-1.54 6.569a.811.811 0 01-.787.629z" fill="#4D4D4F"/><path d="M16.612 44.825a.811.811 0 01-.617-1.336l6.81-8.015a.813.813 0 011.236 1.054l-6.81 8.015a.811.811 0 01-.62.282z" fill="#4D4D4F"/></svg><svg viewBox="0 0 22 14" id="vk" xmlns="http://www.w3.org/2000/svg"><path d="M12.036 13.108s.38-.043.576-.257c.179-.197.173-.568.173-.568s-.024-1.73.762-1.986c.775-.252 1.77 1.674 2.825 2.414.798.56 1.403.438 1.403.438l2.821-.04s1.475-.094.776-1.28c-.058-.097-.408-.877-2.097-2.48-1.77-1.68-1.532-1.408.598-4.311 1.297-1.768 1.816-2.848 1.654-3.31-.154-.44-1.109-.324-1.109-.324l-3.175.02s-.236-.032-.41.074c-.17.105-.281.349-.281.349s-.502 1.368-1.172 2.532c-1.415 2.454-1.98 2.584-2.211 2.432-.538-.356-.404-1.428-.404-2.19 0-2.379.353-3.37-.687-3.627-.345-.086-.6-.142-1.482-.152-1.133-.011-2.092.005-2.635.276-.362.18-.64.584-.47.607.21.029.684.131.937.482.325.453.314 1.47.314 1.47s.186 2.8-.437 3.148c-.428.239-1.015-.248-2.276-2.476-.646-1.14-1.133-2.402-1.133-2.402s-.094-.235-.263-.362c-.203-.153-.487-.2-.487-.2l-3.018.02s-.453.012-.62.214c-.147.178-.01.549-.01.549s2.362 5.652 5.037 8.5c2.453 2.612 5.238 2.44 5.238 2.44h1.263z"/></svg></svg>